<?xml version="1.0" standalone="no"?>
<!DOCTYPE svg PUBLIC "-//W3C//DTD SVG 1.1//EN" "http://www.w3.org/Graphics/SVG/1.1/DTD/svg11.dtd" >
<svg xmlns="http://www.w3.org/2000/svg" xmlns:xlink="http://www.w3.org/1999/xlink" version="1.1">
<metadata>
Created by FontForge 20170910 at Tue Jul 11 14:38:25 2017
 By Jimmy Wärting
Copyright 2017 BlackFoundry
</metadata>
<defs>
<font id="DaciaSpirit-Regular" horiz-adv-x="0" >
  <font-face 
    font-family="DaciaSpirit"
    font-weight="400"
    font-stretch="normal"
    units-per-em="1000"
    panose-1="2 11 5 3 2 2 3 2 2 3"
    ascent="800"
    descent="-200"
    x-height="449"
    cap-height="685"
    bbox="-658 -462 1316 1163"
    underline-thickness="50"
    underline-position="-105"
    unicode-range="U+000D-FEFC"
  />
<missing-glyph horiz-adv-x="682" 
d="M587 0h-492v685h492v-685zM147 638v-591h388v591h-388z" />
    <glyph glyph-name="fi" unicode="fi" horiz-adv-x="566" 
d="M171 545q0 -15 5 -35t18 -56l2 -5h292v-449h-91v370h-191v-370h-91v370h-97v74l90 5l-4 10q-13 34 -18.5 57.5t-5.5 43.5q0 70 45 112.5t119 42.5q35 0 71.5 -13.5t67.5 -37.5l-44 -64q-18 15 -40 24t-43 9q-38 0 -61.5 -24.5t-23.5 -63.5zM442 634q25 0 42.5 -17.5
t17.5 -42.5t-17.5 -42.5t-42.5 -17.5q-24 0 -41.5 17.5t-17.5 42.5t17.5 42.5t41.5 17.5z" />
    <glyph glyph-name="fl" unicode="fl" horiz-adv-x="566" 
d="M311 449v-79h-105v-370h-91v370h-95v74l88 5l-5 13q-11 26 -16.5 49.5t-5.5 44.5q0 73 47 116t126 43q42 0 80.5 -10.5t75.5 -32.5l7 33h71v-705h-91v590q-34 22 -66 32.5t-65 10.5q-43 0 -68.5 -25t-25.5 -67q0 -18 5.5 -39t15.5 -44l4 -9h114z" />
    <glyph glyph-name="lam.init_alef.fina" unicode="&#xfedf;&#xfe8e;" horiz-adv-x="517" arabic-form="isolated" 
d="M-53 575l71 56q111 -137 170 -270.5t66 -263.5q48 13 70 47t22 97v464h83v-472q0 -119 -66 -181t-191 -62q-33 0 -74 5.5t-68 13.5l2 98q32 -8 71.5 -13t72.5 -5h4q-12 123 -65.5 236t-167.5 250z" />
    <glyph glyph-name="lam.medi_alef.fina" unicode="&#xfee0;&#xfe8e;" horiz-adv-x="546" arabic-form="final" 
d="M-53 575l71 56q111 -137 170 -271t65 -263q49 13 71 48t22 99v461h83v-497q0 -60 24 -84.5t83 -24.5h10v-99h-9q-59 0 -95.5 23t-50.5 70q-27 -48 -85.5 -75.5t-133.5 -27.5q-34 0 -74.5 5.5t-67.5 13.5l2 98q32 -8 71.5 -13t68.5 -5h8q-12 123 -65.5 236t-167.5 250z
" />
    <glyph glyph-name="lam.init_ah.fina" unicode="&#xfedf;&#xfe82;" horiz-adv-x="517" arabic-form="isolated" 
d="M-41 743q10 0 21 -3t33 -12q19 -8 28 -10.5t16 -2.5q12 0 24 2.5t30 9.5l-6 -57q-15 -8 -28 -12t-25 -4q-10 0 -21 3t-32 12q-20 8 -29 10.5t-17 2.5q-9 0 -18.5 -2t-35.5 -10l6 57q15 8 28.5 12t25.5 4zM-36 552l69 55q103 -128 158.5 -256t62.5 -254q49 13 70.5 47
t21.5 97v464h83v-472q0 -119 -66 -181t-191 -62q-33 0 -74 5.5t-68 13.5l2 98q32 -8 71.5 -13t72.5 -5h4q-12 120 -62.5 229.5t-153.5 233.5z" />
    <glyph glyph-name="lam.medi_ah.fina" unicode="&#xfee0;&#xfe82;" horiz-adv-x="546" arabic-form="final" 
d="M-41 743q10 0 21 -3t33 -12q19 -8 28 -10.5t16 -2.5q12 0 24 2.5t30 9.5l-6 -57q-15 -8 -28 -12t-25 -4q-10 0 -21 3t-32 12q-20 8 -29 10.5t-17 2.5q-9 0 -18.5 -2t-35.5 -10l6 57q15 8 28.5 12t25.5 4zM-36 552l69 55q104 -130 159 -257t62 -252q49 13 70.5 47t21.5 99
v461h83v-497q0 -60 24 -84.5t83 -24.5h10v-99h-9q-59 0 -95.5 23t-50.5 70q-27 -48 -85 -75.5t-134 -27.5q-34 0 -74.5 5.5t-67.5 13.5l2 98q32 -8 71.5 -13t68.5 -5h8q-12 120 -62.5 229.5t-153.5 233.5z" />
    <glyph glyph-name="lam.init_alefHamzeAbove.fina" unicode="&#xfedf;&#xfe84;" horiz-adv-x="517" arabic-form="isolated" 
d="M122 735v-55l-209 -32v56l51 8q-11 15 -16 32t-5 36q0 36 24 59t62 23q22 0 41 -6.5t33 -19.5l-17 -42q-13 5 -28.5 8t-29.5 3q-10 0 -19 -1.5t-15 -4.5q2 -31 17 -52.5t35 -21.5q3 0 9 1t25 3q17 3 25.5 4t16.5 2zM-36 552l69 55q103 -128 158.5 -256t62.5 -254
q49 13 70.5 47t21.5 97v464h83v-472q0 -119 -66 -181t-191 -62q-33 0 -74 5.5t-68 13.5l2 98q32 -8 71.5 -13t72.5 -5h4q-12 120 -62.5 229.5t-153.5 233.5z" />
    <glyph glyph-name="lam.medi_alefHamzeAbove.fina" unicode="&#xfee0;&#xfe84;" horiz-adv-x="546" arabic-form="final" 
d="M122 735v-55l-209 -32v56l51 8q-11 15 -16 32t-5 36q0 36 24 59t62 23q22 0 41 -6.5t33 -19.5l-17 -42q-13 5 -28.5 8t-29.5 3q-10 0 -19 -1.5t-15 -4.5q2 -31 17 -52.5t35 -21.5q3 0 9 1t25 3q17 3 25.5 4t16.5 2zM-36 552l69 55q104 -130 159 -257t62 -252
q49 13 70.5 47t21.5 99v461h83v-497q0 -60 24 -84.5t83 -24.5h10v-99h-9q-59 0 -95.5 23t-50.5 70q-27 -48 -85 -75.5t-134 -27.5q-34 0 -74.5 5.5t-67.5 13.5l2 98q32 -8 71.5 -13t68.5 -5h8q-12 120 -62.5 229.5t-153.5 233.5z" />
    <glyph glyph-name="lam.init_alefHamzeBelow.fina" unicode="&#xfedf;&#xfe88;" horiz-adv-x="517" arabic-form="isolated" 
d="M-53 575l71 56q111 -137 170 -270.5t66 -263.5q48 13 70 47t22 97v464h83v-472q0 -119 -66 -181t-191 -62q-33 0 -74 5.5t-68 13.5l2 98q32 -8 71.5 -13t72.5 -5h4q-12 123 -65.5 236t-167.5 250zM251 -173v-55l-209 -32v56l51 8q-10 15 -15 31.5t-5 36.5q0 36 24 59
t62 23q20 0 39 -7t34 -19l-17 -42q-13 5 -28 8t-29 3q-10 0 -19 -1.5t-15 -4.5q1 -31 15.5 -52.5t35.5 -21.5q3 0 9 1t25 3q17 3 25.5 4t16.5 2z" />
    <glyph glyph-name="lam.medi_alefHamzeBelow.fina" unicode="&#xfee0;&#xfe88;" horiz-adv-x="546" arabic-form="final" 
d="M-53 575l71 56q111 -137 170 -271t65 -263q49 13 71 48t22 99v461h83v-497q0 -60 24 -84.5t83 -24.5h10v-99h-9q-59 0 -95.5 23t-50.5 70q-27 -48 -85.5 -75.5t-133.5 -27.5q-34 0 -74.5 5.5t-67.5 13.5l2 98q32 -8 71.5 -13t68.5 -5h8q-12 123 -65.5 236t-167.5 250z
M251 -173v-55l-209 -32v56l51 8q-10 15 -15 31.5t-5 36.5q0 36 24 59t62 23q20 0 39 -7t34 -19l-17 -42q-13 5 -28 8t-29 3q-10 0 -19 -1.5t-15 -4.5q1 -31 15.5 -52.5t35.5 -21.5q3 0 9 1t25 3q17 3 25.5 4t16.5 2z" />
    <glyph glyph-name="allah" unicode="&#xfe8d;&#xfedf;&#xfee0;&#xfeea;" horiz-adv-x="1355" arabic-form="isolated" 
d="M619 792v153h56v-153h-56zM735 668q-3 22 -7.5 41.5t-10.5 35.5l47 17q11 -32 13 -66.5t-6 -69.5q-17 -10 -34 -15.5t-32 -5.5q-19 0 -33.5 4.5t-24.5 14.5q-18 -10 -33 -14.5t-30 -4.5q-33 0 -49.5 19t-16.5 57v74h45v-69q0 -16 6 -22t23 -6q9 0 17.5 2.5t15.5 6.5
q-1 9 -2 18.5t-1 18.5v43h46v-45q0 -22 8 -31.5t27 -9.5q7 0 15.5 2t16.5 5zM1279 705v-705h-83v705h83zM996 628v-420q0 -104 -50 -156t-150 -52q-52 0 -87.5 20.5t-52.5 59.5q-29 -38 -75.5 -59t-101.5 -21q-58 0 -95 24t-51 70q-24 -15 -53 -23t-60 -8q-75 0 -120.5 40
t-45.5 106q0 81 69 140t201 89v41h83v-291q0 -48 18 -68.5t61 -20.5q40 0 71 12t52 36v409h83v-353q0 -53 24.5 -78.5t75.5 -25.5q60 0 90 26.5t30 80.5v422h84zM132 218q0 -32 25 -48.5t72 -16.5q23 0 47.5 4t47.5 12v173q-94 -13 -143 -45t-49 -79z" />
    <glyph glyph-name="alef.isol" unicode="&#x627;" horiz-adv-x="260" arabic-form="isolated" 
d="M171 705v-705h-83v705h83z" />
    <glyph glyph-name="alef.fina" unicode="&#x627;" horiz-adv-x="279" arabic-form="final" 
d="M270 99h9v-99h-16q-87 0 -131 44.5t-44 132.5v528h83v-523q0 -42 24 -62.5t75 -20.5z" />
    <glyph glyph-name="ah.isol" unicode="&#x622;" horiz-adv-x="260" arabic-form="isolated" 
d="M171 705v-705h-83v705h83zM83 865q10 0 21 -3t33 -11q19 -8 28 -10.5t16 -2.5q12 0 24 2.5t30 9.5l-6 -58q-14 -8 -26.5 -11.5t-26.5 -3.5q-10 0 -21 3t-33 11q-19 8 -28 10.5t-16 2.5q-10 0 -21 -2.5t-33 -9.5l6 58q15 8 28 11.5t25 3.5z" />
    <glyph glyph-name="ah.fina" unicode="&#x622;" horiz-adv-x="279" arabic-form="final" 
d="M270 99h9v-99h-16q-87 0 -131 44.5t-44 132.5v528h83v-523q0 -42 24 -62.5t75 -20.5zM83 865q10 0 21 -3t33 -11q19 -8 28 -10.5t16 -2.5q12 0 24 2.5t30 9.5l-6 -58q-14 -8 -26.5 -11.5t-26.5 -3.5q-10 0 -21 3t-33 11q-19 8 -28 10.5t-16 2.5q-10 0 -21 -2.5t-33 -9.5
l6 58q15 8 28 11.5t25 3.5z" />
    <glyph glyph-name="alefHamzeAbove.isol" unicode="&#x623;" horiz-adv-x="260" arabic-form="isolated" 
d="M171 705v-705h-83v705h83zM235 858v-56l-209 -31v55l51 9q-10 15 -15 31.5t-5 35.5q0 37 24 59.5t62 22.5q21 0 40 -6.5t33 -19.5l-17 -42q-13 5 -29 8t-30 3q-9 0 -17.5 -1t-14.5 -4q1 -30 16 -52.5t35 -22.5q6 0 38 5t38 6z" />
    <glyph glyph-name="alefHamzeAbove.fina" unicode="&#x623;" horiz-adv-x="279" arabic-form="final" 
d="M270 99h9v-99h-16q-87 0 -131 44.5t-44 132.5v528h83v-523q0 -42 24 -62.5t75 -20.5zM235 858v-56l-209 -31v55l51 9q-10 15 -15 31.5t-5 35.5q0 37 24 59.5t62 22.5q21 0 40 -6.5t33 -19.5l-17 -42q-13 5 -29 8t-30 3q-9 0 -17.5 -1t-14.5 -4q1 -30 16 -52.5t35 -22.5
q6 0 38 5t38 6z" />
    <glyph glyph-name="alefHamzeBelow.isol" unicode="&#x625;" horiz-adv-x="260" arabic-form="isolated" 
d="M171 705v-705h-83v705h83zM237 -173v-55l-209 -32v56l51 8q-10 15 -15 31.5t-5 36.5q0 36 24 59t62 23q20 0 39 -7t34 -19l-17 -42q-13 5 -28 8t-29 3q-10 0 -19 -1.5t-15 -4.5q1 -31 15.5 -52.5t35.5 -21.5q3 0 9 1t25 3q17 3 25.5 4t16.5 2z" />
    <glyph glyph-name="alefHamzeBelow.fina" unicode="&#x625;" horiz-adv-x="279" arabic-form="final" 
d="M270 99h9v-99h-16q-87 0 -131 44.5t-44 132.5v528h83v-523q0 -42 24 -62.5t75 -20.5zM237 -173v-55l-209 -32v56l51 8q-10 15 -15 31.5t-5 36.5q0 36 24 59t62 23q20 0 39 -7t34 -19l-17 -42q-13 5 -28 8t-29 3q-10 0 -19 -1.5t-15 -4.5q1 -31 15.5 -52.5t35.5 -21.5
q3 0 9 1t25 3q17 3 25.5 4t16.5 2z" />
    <glyph glyph-name="alefWavyHamzehAbove.fina" unicode="&#x672;" horiz-adv-x="279" 
d="M270 99h9v-99h-16q-87 0 -131 44.5t-44 132.5v528h83v-523q0 -42 24 -62.5t75 -20.5zM235 802l-126 -19q-6 -1 -12 -1.5t-12 -0.5q-16 0 -34 3.5t-42 12.5q-17 6 -24.5 7.5t-13.5 1.5v0v0q-10 0 -21 -2.5t-30 -9.5l6 56q16 8 29.5 11.5t24.5 3.5q9 0 19 -2.5t30 -11.5
q19 -9 28.5 -11.5t18.5 -3.5q-10 15 -14.5 31.5t-4.5 34.5v0v0q0 37 24 59.5t62 22.5q21 0 40 -6.5t33 -19.5l-17 -42q-13 5 -29 8t-30 3q-9 0 -17.5 -1t-14.5 -4q1 -31 16 -53t35 -22q6 0 38 5t38 6v-56z" />
    <glyph glyph-name="alefWasleh.isol" unicode="&#x671;" horiz-adv-x="260" arabic-form="isolated" 
d="M171 705v-705h-83v705h83zM159 957q43 0 68 -43.5t13 -106.5q-15 -14 -33 -21.5t-37 -7.5q-11 0 -23 3t-34 12q-20 9 -29.5 11.5t-18.5 2.5q-11 0 -23 -2.5t-32 -9.5l6 57q13 7 23.5 10.5t21.5 4.5q14 41 40.5 65.5t57.5 24.5zM194 856q0 17 -12 31t-28 14q-13 0 -24 -10
t-21 -31q2 -1 24 -10.5t37 -9.5q12 0 18 4t6 12z" />
    <glyph glyph-name="alefWasleh.fina" unicode="&#x671;" horiz-adv-x="279" arabic-form="final" 
d="M270 99h9v-99h-16q-87 0 -131 44.5t-44 132.5v528h83v-523q0 -42 24 -62.5t75 -20.5zM159 957q43 0 68 -43.5t13 -106.5q-15 -14 -33 -21.5t-37 -7.5q-11 0 -23 3t-34 12q-20 9 -29.5 11.5t-18.5 2.5q-11 0 -23 -2.5t-32 -9.5l6 57q13 7 23.5 10.5t21.5 4.5
q14 41 40.5 65.5t57.5 24.5zM194 856q0 17 -12 31t-28 14q-13 0 -24 -10t-21 -31q2 -1 24 -10.5t37 -9.5q12 0 18 4t6 12z" />
    <glyph glyph-name="dotlessBeh.init" unicode="&#x66e;" horiz-adv-x="339" 
d="M0 99h5q56 0 102 8.5t81 24.5q-3 65 -9.5 107t-18.5 89l85 26q20 -77 22 -150t-14 -145q-47 -29 -108.5 -44t-135.5 -15h-9q-9 0 -15 14t-6 35t6 35.5t15 14.5z" />
    <glyph glyph-name="dotlessBeh.medi" unicode="&#x66e;" horiz-adv-x="380" 
d="M380 99v-99h-17q-58 0 -101.5 22t-60.5 60q-27 -36 -81.5 -59t-115.5 -23h-4q-9 0 -15 14t-6 35t6 35.5t15 14.5h9q48 0 84.5 12t59.5 36v146h84v-87q0 -55 33 -81t102 -26h8z" />
    <glyph glyph-name="dotlessBeh.fina" unicode="&#x66e;" horiz-adv-x="852" 
d="M852 0h-10q-55 0 -97 16.5t-67 46.5q-64 -34 -154.5 -53.5t-182.5 -19.5q-145 0 -218 50.5t-73 150.5q0 37 13 74t37 72l58 -32q-14 -27 -20 -48.5t-6 -43.5q0 -64 54.5 -94t170.5 -30q81 0 150.5 12t131.5 36l-44 145l80 24l23 -79q25 -83 54 -105.5t94 -22.5h6v-99z
" />
    <glyph glyph-name="beh.isol" unicode="&#x628;" horiz-adv-x="807" arabic-form="isolated" 
d="M132 211q0 -63 62.5 -92.5t195.5 -29.5q80 0 152 11t114 30q-2 59 -8 100.5t-18 89.5l84 26q19 -74 21 -145t-14 -142q-58 -32 -151.5 -50.5t-194.5 -18.5q-163 0 -244 50.5t-81 152.5q0 36 13.5 74t37.5 70l58 -33q-14 -25 -20.5 -47t-6.5 -46zM456 -136l-62 -60l-62 60
l62 60z" />
    <glyph glyph-name="beh.fina" unicode="&#x628;" horiz-adv-x="852" arabic-form="final" 
d="M852 0h-10q-55 0 -97 16.5t-67 46.5q-64 -34 -154.5 -53.5t-182.5 -19.5q-145 0 -218 50.5t-73 150.5q0 37 13 74t37 72l58 -32q-14 -27 -20 -48.5t-6 -43.5q0 -64 54.5 -94t170.5 -30q81 0 150.5 12t131.5 36l-44 145l80 24l23 -79q25 -83 54 -105.5t94 -22.5h6v-99z
M439 -136l-62 -60l-62 60l62 60z" />
    <glyph glyph-name="beh.medi" unicode="&#x628;" horiz-adv-x="380" arabic-form="medial" 
d="M380 99v-99h-17q-58 0 -101.5 22t-60.5 60q-27 -36 -81.5 -59t-115.5 -23h-4q-9 0 -15 14t-6 35t6 35.5t15 14.5h9q48 0 84.5 12t59.5 36v146h84v-87q0 -55 33 -81t102 -26h8zM256 -136l-62 -60l-62 60l62 60z" />
    <glyph glyph-name="beh.init" unicode="&#x628;" horiz-adv-x="339" arabic-form="initial" 
d="M0 99h5q56 0 102 8.5t81 24.5q-3 65 -9.5 107t-18.5 89l85 26q20 -77 22 -150t-14 -145q-47 -29 -108.5 -44t-135.5 -15h-9q-9 0 -15 14t-6 35t6 35.5t15 14.5zM255 -136l-62 -60l-62 60l62 60z" />
    <glyph glyph-name="peh.isol" unicode="&#x67e;" horiz-adv-x="807" arabic-form="isolated" 
d="M132 211q0 -63 62.5 -92.5t195.5 -29.5q80 0 152 11t114 30q-2 59 -8 100.5t-18 89.5l84 26q19 -74 21 -145t-14 -142q-58 -32 -151.5 -50.5t-194.5 -18.5q-163 0 -244 50.5t-81 152.5q0 36 13.5 74t37.5 70l58 -33q-14 -25 -20.5 -47t-6.5 -46zM392 -136l-62 -60l-62 60
l62 60zM520 -136l-62 -60l-62 60l62 60zM456 -246l-62 -60l-62 60l62 61z" />
    <glyph glyph-name="peh.fina" unicode="&#x67e;" horiz-adv-x="852" arabic-form="final" 
d="M852 0h-10q-55 0 -97 16.5t-67 46.5q-64 -34 -154.5 -53.5t-182.5 -19.5q-145 0 -218 50.5t-73 150.5q0 37 13 74t37 72l58 -32q-14 -27 -20 -48.5t-6 -43.5q0 -64 54.5 -94t170.5 -30q81 0 150.5 12t131.5 36l-44 145l80 24l23 -79q25 -83 54 -105.5t94 -22.5h6v-99z
M375 -136l-62 -60l-62 60l62 60zM503 -136l-62 -60l-62 60l62 60zM439 -246l-62 -60l-62 60l62 61z" />
    <glyph glyph-name="peh.medi" unicode="&#x67e;" horiz-adv-x="380" arabic-form="medial" 
d="M380 99v-99h-17q-58 0 -101.5 22t-60.5 60q-27 -36 -81.5 -59t-115.5 -23h-4q-9 0 -15 14t-6 35t6 35.5t15 14.5h9q48 0 84.5 12t59.5 36v146h84v-87q0 -55 33 -81t102 -26h8zM192 -136l-62 -60l-62 60l62 60zM320 -136l-62 -60l-62 60l62 60zM256 -246l-62 -60l-62 60
l62 61z" />
    <glyph glyph-name="peh.init" unicode="&#x67e;" horiz-adv-x="339" arabic-form="initial" 
d="M0 99h5q56 0 102 8.5t81 24.5q-3 65 -9.5 107t-18.5 89l85 26q20 -77 22 -150t-14 -145q-47 -29 -108.5 -44t-135.5 -15h-9q-9 0 -15 14t-6 35t6 35.5t15 14.5zM191 -136l-62 -60l-62 60l62 60zM319 -136l-62 -60l-62 60l62 60zM255 -246l-62 -60l-62 60l62 61z" />
    <glyph glyph-name="teh.isol" unicode="&#x62a;" horiz-adv-x="807" arabic-form="isolated" 
d="M132 211q0 -63 62.5 -92.5t195.5 -29.5q80 0 152 11t114 30q-2 59 -8 100.5t-18 89.5l84 26q19 -74 21 -145t-14 -142q-58 -32 -151.5 -50.5t-194.5 -18.5q-163 0 -244 50.5t-81 152.5q0 36 13.5 74t37.5 70l58 -33q-14 -25 -20.5 -47t-6.5 -46zM392 487l-62 -60l-62 60
l62 61zM520 487l-62 -60l-62 60l62 61z" />
    <glyph glyph-name="teh.fina" unicode="&#x62a;" horiz-adv-x="852" arabic-form="final" 
d="M852 0h-10q-55 0 -97 16.5t-67 46.5q-64 -34 -154.5 -53.5t-182.5 -19.5q-145 0 -218 50.5t-73 150.5q0 37 13 74t37 72l58 -32q-14 -27 -20 -48.5t-6 -43.5q0 -64 54.5 -94t170.5 -30q81 0 150.5 12t131.5 36l-44 145l80 24l23 -79q25 -83 54 -105.5t94 -22.5h6v-99z
M375 487l-62 -60l-62 60l62 61zM503 487l-62 -60l-62 60l62 61z" />
    <glyph glyph-name="teh.medi" unicode="&#x62a;" horiz-adv-x="380" arabic-form="medial" 
d="M380 99v-99h-17q-58 0 -101.5 22t-60.5 60q-27 -36 -81.5 -59t-115.5 -23h-4q-9 0 -15 14t-6 35t6 35.5t15 14.5h9q48 0 84.5 12t59.5 36v146h84v-87q0 -55 33 -81t102 -26h8zM192 470l-62 -60l-62 60l62 61zM320 470l-62 -60l-62 60l62 61z" />
    <glyph glyph-name="teh.init" unicode="&#x62a;" horiz-adv-x="339" arabic-form="initial" 
d="M0 99h5q56 0 102 8.5t81 24.5q-3 65 -9.5 107t-18.5 89l85 26q20 -77 22 -150t-14 -145q-47 -29 -108.5 -44t-135.5 -15h-9q-9 0 -15 14t-6 35t6 35.5t15 14.5zM156 519l-62 -60l-62 60l62 61zM284 519l-62 -60l-62 60l62 61z" />
    <glyph glyph-name="theh.isol" unicode="&#x62b;" horiz-adv-x="807" arabic-form="isolated" 
d="M132 211q0 -63 62.5 -92.5t195.5 -29.5q80 0 152 11t114 30q-2 59 -8 100.5t-18 89.5l84 26q19 -74 21 -145t-14 -142q-58 -32 -151.5 -50.5t-194.5 -18.5q-163 0 -244 50.5t-81 152.5q0 36 13.5 74t37.5 70l58 -33q-14 -25 -20.5 -47t-6.5 -46zM456 597l-62 -60l-62 60
l62 61zM392 487l-62 -60l-62 60l62 61zM520 487l-62 -60l-62 60l62 61z" />
    <glyph glyph-name="theh.fina" unicode="&#x62b;" horiz-adv-x="852" arabic-form="final" 
d="M852 0h-10q-55 0 -97 16.5t-67 46.5q-64 -34 -154.5 -53.5t-182.5 -19.5q-145 0 -218 50.5t-73 150.5q0 37 13 74t37 72l58 -32q-14 -27 -20 -48.5t-6 -43.5q0 -64 54.5 -94t170.5 -30q81 0 150.5 12t131.5 36l-44 145l80 24l23 -79q25 -83 54 -105.5t94 -22.5h6v-99z
M439 597l-62 -60l-62 60l62 61zM375 487l-62 -60l-62 60l62 61zM503 487l-62 -60l-62 60l62 61z" />
    <glyph glyph-name="theh.medi" unicode="&#x62b;" horiz-adv-x="380" arabic-form="medial" 
d="M380 99v-99h-17q-58 0 -101.5 22t-60.5 60q-27 -36 -81.5 -59t-115.5 -23h-4q-9 0 -15 14t-6 35t6 35.5t15 14.5h9q48 0 84.5 12t59.5 36v146h84v-87q0 -55 33 -81t102 -26h8zM256 580l-62 -60l-62 60l62 61zM192 470l-62 -60l-62 60l62 61zM320 470l-62 -60l-62 60
l62 61z" />
    <glyph glyph-name="theh.init" unicode="&#x62b;" horiz-adv-x="339" arabic-form="initial" 
d="M0 99h5q56 0 102 8.5t81 24.5q-3 65 -9.5 107t-18.5 89l85 26q20 -77 22 -150t-14 -145q-47 -29 -108.5 -44t-135.5 -15h-9q-9 0 -15 14t-6 35t6 35.5t15 14.5zM220 629l-62 -60l-62 60l62 61zM156 519l-62 -60l-62 60l62 61zM284 519l-62 -60l-62 60l62 61z" />
    <glyph glyph-name="tehTa.isol" unicode="&#x679;" horiz-adv-x="807" arabic-form="isolated" 
d="M132 211q0 -63 62.5 -92.5t195.5 -29.5q80 0 152 11t114 30q-2 59 -8 100.5t-18 89.5l84 26q19 -74 21 -145t-14 -142q-58 -32 -151.5 -50.5t-194.5 -18.5q-163 0 -244 50.5t-81 152.5q0 36 13.5 74t37.5 70l58 -33q-14 -25 -20.5 -47t-6.5 -46zM532 493q0 -16 -4 -30.5
t-13 -26.5q-30 -8 -70.5 -12t-89.5 -4q-30 0 -57 4.5t-49 12.5l17 50q14 -4 25 -6t21 -3q2 9 5 17.5t7 15.5v148h51v-94q16 14 32.5 20.5t35.5 6.5q39 0 64 -27.5t25 -71.5zM480 483q0 25 -13 39t-36 14q-25 0 -43 -15t-28 -44q41 0 71.5 1.5t48.5 4.5z" />
    <glyph glyph-name="tehTa.fina" unicode="&#x679;" horiz-adv-x="852" arabic-form="final" 
d="M852 0h-10q-55 0 -97 16.5t-67 46.5q-64 -34 -154.5 -53.5t-182.5 -19.5q-145 0 -218 50.5t-73 150.5q0 37 13 74t37 72l58 -32q-14 -27 -20 -48.5t-6 -43.5q0 -64 54.5 -94t170.5 -30q81 0 150.5 12t131.5 36l-44 145l80 24l23 -79q25 -83 54 -105.5t94 -22.5h6v-99z
M515 493q0 -16 -4 -30.5t-13 -26.5q-30 -8 -70.5 -12t-89.5 -4q-30 0 -57 4.5t-49 12.5l17 50q14 -4 25 -6t21 -3q2 9 5 17.5t7 15.5v148h51v-94q16 14 32.5 20.5t35.5 6.5q39 0 64 -27.5t25 -71.5zM463 483q0 25 -13 39t-36 14q-25 0 -43 -15t-28 -44q41 0 71.5 1.5
t48.5 4.5z" />
    <glyph glyph-name="tehTa.medi" unicode="&#x679;" horiz-adv-x="380" arabic-form="medial" 
d="M380 99v-99h-17q-58 0 -101.5 22t-60.5 60q-27 -36 -81.5 -59t-115.5 -23h-4q-9 0 -15 14t-6 35t6 35.5t15 14.5h9q48 0 84.5 12t59.5 36v146h84v-87q0 -55 33 -81t102 -26h8zM332 475q0 -16 -4 -30.5t-13 -26.5q-30 -8 -70.5 -12t-89.5 -4q-30 0 -57 4.5t-49 12.5l17 50
q14 -4 25 -6t21 -3q2 9 5 17.5t7 15.5v148h51v-94q16 14 32.5 20.5t35.5 6.5q39 0 64 -27.5t25 -71.5zM280 465q0 25 -13 39t-36 14q-25 0 -43 -15t-28 -44q41 0 71.5 1.5t48.5 4.5z" />
    <glyph glyph-name="tehTa.init" unicode="&#x679;" horiz-adv-x="339" arabic-form="initial" 
d="M0 99h5q56 0 102 8.5t81 24.5q-3 65 -9.5 107t-18.5 89l85 26q20 -77 22 -150t-14 -145q-47 -29 -108.5 -44t-135.5 -15h-9q-9 0 -15 14t-6 35t6 35.5t15 14.5zM296 524q0 -16 -4 -30.5t-13 -26.5q-30 -8 -70.5 -12t-89.5 -4q-30 0 -57 4.5t-49 12.5l17 50q14 -4 25 -6
t21 -3q2 9 5 17.5t7 15.5v148h51v-94q16 14 32.5 20.5t35.5 6.5q39 0 64 -27.5t25 -71.5zM244 514q0 25 -13 39t-36 14q-25 0 -43 -15t-28 -44q41 0 71.5 1.5t48.5 4.5z" />
    <glyph glyph-name="jim.isol" unicode="&#x62c;" horiz-adv-x="711" arabic-form="isolated" 
d="M585 -147l-5 -97q-42 -12 -93 -18.5t-100 -6.5q-160 0 -251 64t-91 178q0 133 118 221t336 115q-70 23 -130 35t-106 12q-58 0 -108 -9.5t-99 -30.5l-27 86q55 21 107.5 31t112.5 10q87 0 199.5 -33.5t210.5 -87.5l-21 -77q-240 -2 -374.5 -71t-134.5 -186
q0 -78 62.5 -118t184.5 -40q60 0 109 5.5t100 17.5zM419 23l-62 -60l-62 60l62 61z" />
    <glyph glyph-name="jim.fina" unicode="&#x62c;" horiz-adv-x="711" arabic-form="final" 
d="M585 -147l-5 -97q-42 -12 -93 -18.5t-100 -6.5q-160 0 -251 64t-91 178q0 133 118 221t336 115q-70 23 -130 35t-106 12q-58 0 -108 -9.5t-99 -30.5l-27 86q55 21 107.5 31t112.5 10q87 0 199.5 -33.5t210.5 -87.5l-19 -69q-36 0 -62 -1t-48 -4q9 -81 48.5 -115
t126.5 -34h6v-99h-8q-114 0 -171.5 56.5t-65.5 176.5q-161 -23 -249 -87.5t-88 -157.5q0 -78 62.5 -118t184.5 -40q60 0 109 5.5t100 17.5zM409 23l-62 -60l-62 60l62 61z" />
    <glyph glyph-name="jim.medi" unicode="&#x62c;" horiz-adv-x="711" arabic-form="medial" 
d="M253 443q93 0 203 -31.5t204 -85.5l-37 -74q-20 12 -41 22.5t-43 20.5q-7 -13 -14 -24.5t-14 -21.5q8 -81 51.5 -115.5t142.5 -34.5h6v-99h-8q-109 0 -169 44.5t-77 137.5q-82 -88 -199 -135t-255 -47h-3q-9 0 -15 14t-6 35t6 35.5t15 14.5h6q150 0 271 59t184 167
q-50 16 -99 23.5t-99 7.5q-58 0 -108 -9.5t-99 -30.5l-27 86q56 22 108.5 31.5t115.5 9.5zM409 -136l-62 -60l-62 60l62 60z" />
    <glyph glyph-name="jim.init" unicode="&#x62c;" horiz-adv-x="711" arabic-form="initial" 
d="M253 443q93 0 203 -31.5t204 -85.5l-37 -74q-20 12 -41 22.5t-43 20.5q-76 -140 -216.5 -217.5t-319.5 -77.5h-3q-9 0 -15 14t-6 35t6 35.5t15 14.5h6q150 0 271 59t184 167q-50 16 -99 23.5t-99 7.5q-58 0 -108 -9.5t-99 -30.5l-27 86q56 22 108.5 31.5t115.5 9.5z
M409 -136l-62 -60l-62 60l62 60z" />
    <glyph glyph-name="cheh.isol" unicode="&#x686;" horiz-adv-x="711" arabic-form="isolated" 
d="M585 -147l-5 -97q-42 -12 -93 -18.5t-100 -6.5q-160 0 -251 64t-91 178q0 133 118 221t336 115q-70 23 -130 35t-106 12q-58 0 -108 -9.5t-99 -30.5l-27 86q55 21 107.5 31t112.5 10q87 0 199.5 -33.5t210.5 -87.5l-21 -77q-240 -2 -374.5 -71t-134.5 -186
q0 -78 62.5 -118t184.5 -40q60 0 109 5.5t100 17.5zM355 56l-58 -56l-58 56l58 56zM475 56l-58 -56l-58 56l58 56zM415 -38l-58 -56l-58 56l58 57z" />
    <glyph glyph-name="cheh.fina" unicode="&#x686;" horiz-adv-x="711" arabic-form="final" 
d="M585 -147l-5 -97q-42 -12 -93 -18.5t-100 -6.5q-160 0 -251 64t-91 178q0 133 118 221t336 115q-70 23 -130 35t-106 12q-58 0 -108 -9.5t-99 -30.5l-27 86q55 21 107.5 31t112.5 10q87 0 199.5 -33.5t210.5 -87.5l-19 -69q-36 0 -62 -1t-48 -4q9 -81 48.5 -115
t126.5 -34h6v-99h-8q-114 0 -171.5 56.5t-65.5 176.5q-161 -23 -249 -87.5t-88 -157.5q0 -78 62.5 -118t184.5 -40q60 0 109 5.5t100 17.5zM345 56l-58 -56l-58 56l58 56zM465 56l-58 -56l-58 56l58 56zM405 -38l-58 -56l-58 56l58 57z" />
    <glyph glyph-name="cheh.medi" unicode="&#x686;" horiz-adv-x="711" arabic-form="medial" 
d="M253 443q93 0 203 -31.5t204 -85.5l-37 -74q-20 12 -41 22.5t-43 20.5q-7 -13 -14 -24.5t-14 -21.5q8 -81 51.5 -115.5t142.5 -34.5h6v-99h-8q-109 0 -169 44.5t-77 137.5q-82 -88 -199 -135t-255 -47h-3q-9 0 -15 14t-6 35t6 35.5t15 14.5h6q150 0 271 59t184 167
q-50 16 -99 23.5t-99 7.5q-58 0 -108 -9.5t-99 -30.5l-27 86q56 22 108.5 31.5t115.5 9.5zM345 -136l-62 -60l-62 60l62 60zM473 -136l-62 -60l-62 60l62 60zM409 -246l-62 -60l-62 60l62 61z" />
    <glyph glyph-name="cheh.init" unicode="&#x686;" horiz-adv-x="711" arabic-form="initial" 
d="M253 443q93 0 203 -31.5t204 -85.5l-37 -74q-20 12 -41 22.5t-43 20.5q-76 -140 -216.5 -217.5t-319.5 -77.5h-3q-9 0 -15 14t-6 35t6 35.5t15 14.5h6q150 0 271 59t184 167q-50 16 -99 23.5t-99 7.5q-58 0 -108 -9.5t-99 -30.5l-27 86q56 22 108.5 31.5t115.5 9.5z
M345 -136l-62 -60l-62 60l62 60zM473 -136l-62 -60l-62 60l62 60zM409 -246l-62 -60l-62 60l62 61z" />
    <glyph glyph-name="hah.isol" unicode="&#x62d;" horiz-adv-x="711" arabic-form="isolated" 
d="M585 -147l-5 -97q-42 -12 -93 -18.5t-100 -6.5q-160 0 -251 64t-91 178q0 133 118 221t336 115q-70 23 -130 35t-106 12q-58 0 -108 -9.5t-99 -30.5l-27 86q55 21 107.5 31t112.5 10q87 0 199.5 -33.5t210.5 -87.5l-21 -77q-240 -2 -374.5 -71t-134.5 -186
q0 -78 62.5 -118t184.5 -40q60 0 109 5.5t100 17.5z" />
    <glyph glyph-name="hah.fina" unicode="&#x62d;" horiz-adv-x="711" arabic-form="final" 
d="M585 -147l-5 -97q-42 -12 -93 -18.5t-100 -6.5q-160 0 -251 64t-91 178q0 133 118 221t336 115q-70 23 -130 35t-106 12q-58 0 -108 -9.5t-99 -30.5l-27 86q55 21 107.5 31t112.5 10q87 0 199.5 -33.5t210.5 -87.5l-19 -69q-36 0 -62 -1t-48 -4q9 -81 48.5 -115
t126.5 -34h6v-99h-8q-114 0 -171.5 56.5t-65.5 176.5q-161 -23 -249 -87.5t-88 -157.5q0 -78 62.5 -118t184.5 -40q60 0 109 5.5t100 17.5z" />
    <glyph glyph-name="hah.medi" unicode="&#x62d;" horiz-adv-x="711" arabic-form="medial" 
d="M253 443q93 0 203 -31.5t204 -85.5l-37 -74q-20 12 -41 22.5t-43 20.5q-7 -13 -14 -24.5t-14 -21.5q8 -81 51.5 -115.5t142.5 -34.5h6v-99h-8q-109 0 -169 44.5t-77 137.5q-82 -88 -199 -135t-255 -47h-3q-9 0 -15 14t-6 35t6 35.5t15 14.5h6q150 0 271 59t184 167
q-50 16 -99 23.5t-99 7.5q-58 0 -108 -9.5t-99 -30.5l-27 86q56 22 108.5 31.5t115.5 9.5z" />
    <glyph glyph-name="hah.init" unicode="&#x62d;" horiz-adv-x="711" arabic-form="initial" 
d="M253 443q93 0 203 -31.5t204 -85.5l-37 -74q-20 12 -41 22.5t-43 20.5q-76 -140 -216.5 -217.5t-319.5 -77.5h-3q-9 0 -15 14t-6 35t6 35.5t15 14.5h6q150 0 271 59t184 167q-50 16 -99 23.5t-99 7.5q-58 0 -108 -9.5t-99 -30.5l-27 86q56 22 108.5 31.5t115.5 9.5z" />
    <glyph glyph-name="kheh.isol" unicode="&#x62e;" horiz-adv-x="711" arabic-form="isolated" 
d="M585 -147l-5 -97q-42 -12 -93 -18.5t-100 -6.5q-160 0 -251 64t-91 178q0 133 118 221t336 115q-70 23 -130 35t-106 12q-58 0 -108 -9.5t-99 -30.5l-27 86q55 21 107.5 31t112.5 10q87 0 199.5 -33.5t210.5 -87.5l-21 -77q-240 -2 -374.5 -71t-134.5 -186
q0 -78 62.5 -118t184.5 -40q60 0 109 5.5t100 17.5zM373 593l-62 -60l-62 60l62 61z" />
    <glyph glyph-name="kheh.fina" unicode="&#x62e;" horiz-adv-x="711" arabic-form="final" 
d="M585 -147l-5 -97q-42 -12 -93 -18.5t-100 -6.5q-160 0 -251 64t-91 178q0 133 118 221t336 115q-70 23 -130 35t-106 12q-58 0 -108 -9.5t-99 -30.5l-27 86q55 21 107.5 31t112.5 10q87 0 199.5 -33.5t210.5 -87.5l-19 -69q-36 0 -62 -1t-48 -4q9 -81 48.5 -115
t126.5 -34h6v-99h-8q-114 0 -171.5 56.5t-65.5 176.5q-161 -23 -249 -87.5t-88 -157.5q0 -78 62.5 -118t184.5 -40q60 0 109 5.5t100 17.5zM373 593l-62 -60l-62 60l62 61z" />
    <glyph glyph-name="kheh.medi" unicode="&#x62e;" horiz-adv-x="711" arabic-form="medial" 
d="M253 443q93 0 203 -31.5t204 -85.5l-37 -74q-20 12 -41 22.5t-43 20.5q-7 -13 -14 -24.5t-14 -21.5q8 -81 51.5 -115.5t142.5 -34.5h6v-99h-8q-109 0 -169 44.5t-77 137.5q-82 -88 -199 -135t-255 -47h-3q-9 0 -15 14t-6 35t6 35.5t15 14.5h6q150 0 271 59t184 167
q-50 16 -99 23.5t-99 7.5q-58 0 -108 -9.5t-99 -30.5l-27 86q56 22 108.5 31.5t115.5 9.5zM373 593l-62 -60l-62 60l62 61z" />
    <glyph glyph-name="kheh.init" unicode="&#x62e;" horiz-adv-x="711" arabic-form="initial" 
d="M253 443q93 0 203 -31.5t204 -85.5l-37 -74q-20 12 -41 22.5t-43 20.5q-76 -140 -216.5 -217.5t-319.5 -77.5h-3q-9 0 -15 14t-6 35t6 35.5t15 14.5h6q150 0 271 59t184 167q-50 16 -99 23.5t-99 7.5q-58 0 -108 -9.5t-99 -30.5l-27 86q56 22 108.5 31.5t115.5 9.5z
M373 593l-62 -60l-62 60l62 61z" />
    <glyph glyph-name="dal.isol" unicode="&#x62f;" horiz-adv-x="585" arabic-form="isolated" 
d="M211 381l50 84q111 -59 185.5 -174.5t70.5 -236.5q-47 -33 -108.5 -48.5t-145.5 -15.5q-73 0 -138 11.5t-106 32.5l40 94q49 -19 102 -29t107 -10q58 0 97.5 6.5t71.5 20.5q-24 78 -85 149.5t-141 115.5z" />
    <glyph glyph-name="dal.fina" unicode="&#x62f;" horiz-adv-x="621" arabic-form="final" 
d="M344 186l-129 251l77 44l123 -248q36 -72 77.5 -103t122.5 -31h6v-99h-12q-66 0 -105.5 13.5t-72.5 45.5q-43 -36 -92.5 -52.5t-111.5 -16.5q-56 0 -113 12t-95 32l40 94q47 -20 92 -29.5t90 -9.5q41 0 76 6.5t67 20.5q-9 14 -19 31.5t-21 38.5z" />
    <glyph glyph-name="zal.isol" unicode="&#x630;" horiz-adv-x="585" arabic-form="isolated" 
d="M211 381l50 84q111 -59 185.5 -174.5t70.5 -236.5q-47 -33 -108.5 -48.5t-145.5 -15.5q-73 0 -138 11.5t-106 32.5l40 94q49 -19 102 -29t107 -10q58 0 97.5 6.5t71.5 20.5q-24 78 -85 149.5t-141 115.5zM293 611l-62 -60l-62 60l62 61z" />
    <glyph glyph-name="zal.fina" unicode="&#x630;" horiz-adv-x="621" arabic-form="final" 
d="M344 186l-129 251l77 44l123 -248q36 -72 77.5 -103t122.5 -31h6v-99h-12q-66 0 -105.5 13.5t-72.5 45.5q-43 -36 -92.5 -52.5t-111.5 -16.5q-56 0 -113 12t-95 32l40 94q47 -20 92 -29.5t90 -9.5q41 0 76 6.5t67 20.5q-9 14 -19 31.5t-21 38.5zM272 621l-62 -60l-62 60
l62 61z" />
    <glyph glyph-name="dalTa.isol" unicode="&#x688;" horiz-adv-x="585" arabic-form="isolated" 
d="M211 381l50 84q111 -59 185.5 -174.5t70.5 -236.5q-47 -33 -108.5 -48.5t-145.5 -15.5q-73 0 -138 11.5t-106 32.5l40 94q49 -19 102 -29t107 -10q58 0 97.5 6.5t71.5 20.5q-24 78 -85 149.5t-141 115.5zM369 616q0 -16 -4 -30.5t-13 -26.5q-30 -8 -70.5 -12t-89.5 -4
q-30 0 -57 4.5t-49 12.5l17 50q14 -4 25 -6t21 -3q2 9 5 17.5t7 15.5v148h51v-94q16 14 32.5 20.5t35.5 6.5q39 0 64 -27.5t25 -71.5zM317 606q0 25 -13 39t-36 14q-25 0 -43 -15t-28 -44q41 0 71.5 1.5t48.5 4.5z" />
    <glyph glyph-name="dalTa.fina" unicode="&#x688;" horiz-adv-x="621" arabic-form="final" 
d="M344 186l-129 251l77 44l123 -248q36 -72 77.5 -103t122.5 -31h6v-99h-12q-66 0 -105.5 13.5t-72.5 45.5q-43 -36 -92.5 -52.5t-111.5 -16.5q-56 0 -113 12t-95 32l40 94q47 -20 92 -29.5t90 -9.5q41 0 76 6.5t67 20.5q-9 14 -19 31.5t-21 38.5zM348 627q0 -16 -4 -30.5
t-13 -26.5q-30 -8 -70.5 -12t-89.5 -4q-30 0 -57 4.5t-49 12.5l17 50q14 -4 25 -6t21 -3q2 9 5 17.5t7 15.5v148h51v-94q16 14 32.5 20.5t35.5 6.5q39 0 64 -27.5t25 -71.5zM296 617q0 25 -13 39t-36 14q-25 0 -43 -15t-28 -44q41 0 71.5 1.5t48.5 4.5z" />
    <glyph glyph-name="reh.isol" unicode="&#x631;" horiz-adv-x="546" arabic-form="isolated" 
d="M309 295l87 39q33 -83 48.5 -145.5t15.5 -111.5q0 -67 -21.5 -127t-62.5 -108q-44 -52 -103 -81.5t-118 -29.5q-35 0 -66 5.5t-61 17.5l20 72q28 -5 43.5 -6.5t29.5 -1.5q86 0 160 57.5t105 152.5q-3 54 -21 117.5t-56 149.5z" />
    <glyph glyph-name="reh.fina" unicode="&#x631;" horiz-adv-x="578" arabic-form="final" 
d="M407 81q-10 14 -20 34t-24 51l-55 130l79 34l57 -138q24 -59 48.5 -76t80.5 -17h5v-99h-10q-36 0 -63 6.5t-47 20.5q-20 -127 -108.5 -211.5t-194.5 -84.5q-35 0 -66 5.5t-61 17.5l20 72q19 -4 36.5 -6t36.5 -2q98 0 175 69.5t111 193.5z" />
    <glyph glyph-name="zeh.isol" unicode="&#x632;" horiz-adv-x="546" arabic-form="isolated" 
d="M309 295l87 39q33 -83 48.5 -145.5t15.5 -111.5q0 -67 -21.5 -127t-62.5 -108q-44 -52 -103 -81.5t-118 -29.5q-35 0 -66 5.5t-61 17.5l20 72q28 -5 43.5 -6.5t29.5 -1.5q86 0 160 57.5t105 152.5q-3 54 -21 117.5t-56 149.5zM360 502l-62 -60l-62 60l62 61z" />
    <glyph glyph-name="zeh.fina" unicode="&#x632;" horiz-adv-x="578" arabic-form="final" 
d="M407 81q-10 14 -20 34t-24 51l-55 130l79 34l57 -138q24 -59 48.5 -76t80.5 -17h5v-99h-10q-36 0 -63 6.5t-47 20.5q-20 -127 -108.5 -211.5t-194.5 -84.5q-35 0 -66 5.5t-61 17.5l20 72q19 -4 36.5 -6t36.5 -2q98 0 175 69.5t111 193.5zM360 502l-62 -60l-62 60l62 61z
" />
    <glyph glyph-name="zheh.isol" unicode="&#x698;" horiz-adv-x="546" arabic-form="isolated" 
d="M309 295l87 39q33 -83 48.5 -145.5t15.5 -111.5q0 -67 -21.5 -127t-62.5 -108q-44 -52 -103 -81.5t-118 -29.5q-35 0 -66 5.5t-61 17.5l20 72q28 -5 43.5 -6.5t29.5 -1.5q86 0 160 57.5t105 152.5q-3 54 -21 117.5t-56 149.5zM360 612l-62 -60l-62 60l62 61zM296 502
l-62 -60l-62 60l62 61zM424 502l-62 -60l-62 60l62 61z" />
    <glyph glyph-name="zheh.fina" unicode="&#x698;" horiz-adv-x="578" arabic-form="final" 
d="M407 81q-10 14 -20 34t-24 51l-55 130l79 34l57 -138q24 -59 48.5 -76t80.5 -17h5v-99h-10q-36 0 -63 6.5t-47 20.5q-20 -127 -108.5 -211.5t-194.5 -84.5q-35 0 -66 5.5t-61 17.5l20 72q19 -4 36.5 -6t36.5 -2q98 0 175 69.5t111 193.5zM360 612l-62 -60l-62 60l62 61z
M296 502l-62 -60l-62 60l62 61zM424 502l-62 -60l-62 60l62 61z" />
    <glyph glyph-name="rehTa.isol" unicode="&#x691;" horiz-adv-x="546" arabic-form="isolated" 
d="M309 295l87 39q33 -83 48.5 -145.5t15.5 -111.5q0 -67 -21.5 -127t-62.5 -108q-44 -52 -103 -81.5t-118 -29.5q-35 0 -66 5.5t-61 17.5l20 72q28 -5 43.5 -6.5t29.5 -1.5q86 0 160 57.5t105 152.5q-3 54 -21 117.5t-56 149.5zM436 507q0 -16 -4 -30.5t-13 -26.5
q-30 -8 -70.5 -12t-89.5 -4q-30 0 -57 4.5t-49 12.5l17 50q14 -4 25 -6t21 -3q2 9 5 17.5t7 15.5v148h51v-94q16 14 32.5 20.5t35.5 6.5q39 0 64 -27.5t25 -71.5zM384 497q0 25 -13 39t-36 14q-25 0 -43 -15t-28 -44q41 0 71.5 1.5t48.5 4.5z" />
    <glyph glyph-name="rehTa.fina" unicode="&#x691;" horiz-adv-x="578" arabic-form="final" 
d="M407 81q-10 14 -20 34t-24 51l-55 130l79 34l57 -138q24 -59 48.5 -76t80.5 -17h5v-99h-10q-36 0 -63 6.5t-47 20.5q-20 -127 -108.5 -211.5t-194.5 -84.5q-35 0 -66 5.5t-61 17.5l20 72q19 -4 36.5 -6t36.5 -2q98 0 175 69.5t111 193.5zM436 507q0 -16 -4 -30.5
t-13 -26.5q-30 -8 -70.5 -12t-89.5 -4q-30 0 -57 4.5t-49 12.5l17 50q14 -4 25 -6t21 -3q2 9 5 17.5t7 15.5v148h51v-94q16 14 32.5 20.5t35.5 6.5q39 0 64 -27.5t25 -71.5zM384 497q0 25 -13 39t-36 14q-25 0 -43 -15t-28 -44q41 0 71.5 1.5t48.5 4.5z" />
    <glyph glyph-name="sin.isol" unicode="&#x633;" horiz-adv-x="1246" arabic-form="isolated" 
d="M585 31q5 -59 5.5 -100t-3.5 -85q-59 -43 -133.5 -67t-149.5 -24q-116 0 -179.5 52.5t-63.5 148.5q0 40 14.5 86.5t40.5 91.5l63 -28q-16 -35 -25 -67.5t-9 -57.5q0 -65 43 -96.5t131 -31.5q52 0 104 12.5t93 34.5q0 87 -16 174.5t-52 204.5l85 25l26 -93
q18 -63 49.5 -92.5t80.5 -29.5t77.5 37t28.5 97v70h83v-71q0 -67 25.5 -100t77.5 -33q33 0 60 8.5t50 26.5q-3 73 -9.5 115t-18.5 89l84 26q21 -79 23 -153.5t-14 -149.5q-36 -31 -75 -46t-87 -15q-52 0 -87.5 24.5t-55.5 72.5q-22 -45 -65 -71t-96 -26q-34 0 -60.5 10
t-44.5 31z" />
    <glyph glyph-name="sin.fina" unicode="&#x633;" horiz-adv-x="1316" arabic-form="final" 
d="M585 31q5 -59 5.5 -100t-3.5 -85q-59 -43 -133.5 -67t-149.5 -24q-116 0 -179.5 52.5t-63.5 148.5q0 40 14.5 86.5t40.5 91.5l63 -28q-16 -35 -25 -67.5t-9 -57.5q0 -65 43 -96.5t131 -31.5q52 0 104 12.5t93 34.5q0 87 -16 174.5t-52 204.5l85 25l26 -93
q18 -62 49.5 -92t80.5 -30t77.5 37t28.5 97v70h83v-71q0 -67 25.5 -100t77.5 -33q47 0 72.5 35t25.5 101v113h83v-90q0 -81 31 -115t114 -34h9v-99h-9q-65 0 -108 22t-66 68q-19 -45 -58.5 -72.5t-85.5 -27.5q-51 0 -88 24t-56 70q-21 -44 -62.5 -69t-92.5 -25
q-34 0 -60.5 10t-44.5 31z" />
    <glyph glyph-name="sin.medi" unicode="&#x633;" horiz-adv-x="935" arabic-form="medial" 
d="M-21 49q0 21 6 35.5t15 14.5h12q57 0 86.5 33t29.5 97v82h83v-89q0 -67 25.5 -100t76.5 -33q47 0 74 35.5t27 98.5v70h84v-71q0 -68 25.5 -100.5t77.5 -32.5q46 0 71.5 35.5t25.5 100.5v113h83v-90q0 -83 30 -116t116 -33h8v-99h-8q-69 0 -110.5 21.5t-64.5 68.5
q-18 -45 -57.5 -72.5t-85.5 -27.5q-53 0 -89.5 23.5t-55.5 70.5q-21 -44 -61 -69t-91 -25t-89.5 25.5t-57.5 72.5q-21 -40 -64.5 -64t-94.5 -24h-6q-9 0 -15 14t-6 35z" />
    <glyph glyph-name="sin.init" unicode="&#x633;" horiz-adv-x="868" arabic-form="initial" 
d="M-21 49q0 21 6 35.5t15 14.5h12q57 0 86.5 33t29.5 97v82h83v-89q0 -67 25.5 -100t76.5 -33q47 0 74 35.5t27 98.5v70h84v-71q0 -67 25.5 -100t77.5 -33q34 0 62 8t49 24q-3 75 -9.5 117.5t-18.5 89.5l83 26q21 -79 23 -153.5t-14 -149.5q-34 -31 -72.5 -46t-86.5 -15
q-56 0 -94.5 23.5t-58.5 70.5q-21 -44 -61.5 -69t-90.5 -25q-51 0 -89.5 25.5t-57.5 72.5q-21 -40 -64.5 -64t-94.5 -24h-6q-9 0 -15 14t-6 35z" />
    <glyph glyph-name="shin.isol" unicode="&#x634;" horiz-adv-x="1246" arabic-form="isolated" 
d="M585 31q5 -59 5.5 -100t-3.5 -85q-59 -43 -133.5 -67t-149.5 -24q-116 0 -179.5 52.5t-63.5 148.5q0 40 14.5 86.5t40.5 91.5l63 -28q-16 -35 -25 -67.5t-9 -57.5q0 -65 43 -96.5t131 -31.5q52 0 104 12.5t93 34.5q0 87 -16 174.5t-52 204.5l85 25l26 -93
q18 -63 49.5 -92.5t80.5 -29.5t77.5 37t28.5 97v70h83v-71q0 -67 25.5 -100t77.5 -33q33 0 60 8.5t50 26.5q-3 73 -9.5 115t-18.5 89l84 26q21 -79 23 -153.5t-14 -149.5q-36 -31 -75 -46t-87 -15q-52 0 -87.5 24.5t-55.5 72.5q-22 -45 -65 -71t-96 -26q-34 0 -60.5 10
t-44.5 31zM898 597l-62 -60l-62 60l62 61zM834 487l-62 -60l-62 60l62 61zM962 487l-62 -60l-62 60l62 61z" />
    <glyph glyph-name="shin.fina" unicode="&#x634;" horiz-adv-x="1316" arabic-form="final" 
d="M585 31q5 -59 5.5 -100t-3.5 -85q-59 -43 -133.5 -67t-149.5 -24q-116 0 -179.5 52.5t-63.5 148.5q0 40 14.5 86.5t40.5 91.5l63 -28q-16 -35 -25 -67.5t-9 -57.5q0 -65 43 -96.5t131 -31.5q52 0 104 12.5t93 34.5q0 87 -16 174.5t-52 204.5l85 25l26 -93
q18 -62 49.5 -92t80.5 -30t77.5 37t28.5 97v70h83v-71q0 -67 25.5 -100t77.5 -33q47 0 72.5 35t25.5 101v113h83v-90q0 -81 31 -115t114 -34h9v-99h-9q-65 0 -108 22t-66 68q-19 -45 -58.5 -72.5t-85.5 -27.5q-51 0 -88 24t-56 70q-21 -44 -62.5 -69t-92.5 -25
q-34 0 -60.5 10t-44.5 31zM898 597l-62 -60l-62 60l62 61zM834 487l-62 -60l-62 60l62 61zM962 487l-62 -60l-62 60l62 61z" />
    <glyph glyph-name="shin.medi" unicode="&#x634;" horiz-adv-x="935" arabic-form="medial" 
d="M-21 49q0 21 6 35.5t15 14.5h12q57 0 86.5 33t29.5 97v82h83v-89q0 -67 25.5 -100t76.5 -33q47 0 74 35.5t27 98.5v70h84v-71q0 -68 25.5 -100.5t77.5 -32.5q46 0 71.5 35.5t25.5 100.5v113h83v-90q0 -83 30 -116t116 -33h8v-99h-8q-69 0 -110.5 21.5t-64.5 68.5
q-18 -45 -57.5 -72.5t-85.5 -27.5q-53 0 -89.5 23.5t-55.5 70.5q-21 -44 -61 -69t-91 -25t-89.5 25.5t-57.5 72.5q-21 -40 -64.5 -64t-94.5 -24h-6q-9 0 -15 14t-6 35zM518 597l-62 -60l-62 60l62 61zM454 487l-62 -60l-62 60l62 61zM582 487l-62 -60l-62 60l62 61z" />
    <glyph glyph-name="shin.init" unicode="&#x634;" horiz-adv-x="868" arabic-form="initial" 
d="M-21 49q0 21 6 35.5t15 14.5h12q57 0 86.5 33t29.5 97v82h83v-89q0 -67 25.5 -100t76.5 -33q47 0 74 35.5t27 98.5v70h84v-71q0 -67 25.5 -100t77.5 -33q34 0 62 8t49 24q-3 75 -9.5 117.5t-18.5 89.5l83 26q21 -79 23 -153.5t-14 -149.5q-34 -31 -72.5 -46t-86.5 -15
q-56 0 -94.5 23.5t-58.5 70.5q-21 -44 -61.5 -69t-90.5 -25q-51 0 -89.5 25.5t-57.5 72.5q-21 -40 -64.5 -64t-94.5 -24h-6q-9 0 -15 14t-6 35zM518 597l-62 -60l-62 60l62 61zM454 487l-62 -60l-62 60l62 61zM582 487l-62 -60l-62 60l62 61z" />
    <glyph glyph-name="sad.isol" unicode="&#x635;" horiz-adv-x="1194" arabic-form="isolated" 
d="M588 9q3 -59 2.5 -94t-3.5 -69q-59 -43 -133.5 -67t-149.5 -24q-116 0 -179.5 52.5t-63.5 148.5q0 40 14.5 86.5t40.5 91.5l63 -28q-16 -35 -25 -67.5t-9 -57.5q0 -65 43 -96.5t131 -31.5q52 0 104 12.5t93 34.5q0 84 -16.5 175t-51.5 204l85 25q16 -56 27 -101t19 -89
q38 139 119 213t194 74q101 0 168 -69t67 -176q0 -26 -6 -53.5t-16 -51.5q-57 -27 -140.5 -39t-228.5 -12q-42 0 -81 2.5t-67 6.5zM1042 129q0 80 -44 128.5t-118 48.5q-82 0 -141.5 -52.5t-90.5 -152.5q26 -1 46.5 -1.5t40.5 -0.5q120 0 190 6.5t117 23.5z" />
    <glyph glyph-name="sad.fina" unicode="&#x635;" horiz-adv-x="1238" arabic-form="final" 
d="M588 9q3 -59 2.5 -94t-3.5 -69q-59 -43 -133.5 -67t-149.5 -24q-116 0 -179.5 52.5t-63.5 148.5q0 40 14.5 86.5t40.5 91.5l63 -28q-16 -35 -25 -67.5t-9 -57.5q0 -65 43 -96.5t131 -31.5q52 0 104 12.5t93 34.5q0 84 -16.5 175t-51.5 204l85 25q17 -60 27.5 -104
t18.5 -86q38 139 119 213t194 74q101 0 168 -69t67 -176q0 -10 -1 -20.5t-2 -20.5q23 -8 49 -12t51 -4h14v-99h-11q-48 0 -88 8.5t-76 25.5q-54 -18 -129 -26t-198 -8q-42 0 -81 2.5t-67 6.5zM1042 129q0 80 -44 128.5t-118 48.5q-82 0 -141.5 -52.5t-90.5 -152.5
q26 -1 46.5 -1.5t40.5 -0.5q120 0 190 6.5t117 23.5z" />
    <glyph glyph-name="sad.medi" unicode="&#x635;" horiz-adv-x="904" arabic-form="medial" 
d="M-21 49q0 21 6 35.5t15 14.5h9q42 0 77.5 11t58.5 31q-1 11 -2 23.5t-1 26.5v102h85v-81q0 -33 5.5 -54t16.5 -33q39 134 119 205t190 71q101 0 168.5 -69t67.5 -176q0 -11 -1 -21.5t-3 -19.5q23 -8 49 -12t52 -4h13v-99h-10q-48 0 -89 8.5t-77 25.5q-59 -18 -141.5 -26
t-217.5 -8q-79 0 -127.5 17t-72.5 54q-25 -34 -68 -52.5t-97 -18.5h-4q-9 0 -15 14t-6 35zM709 129q0 80 -44 128.5t-119 48.5q-82 0 -141.5 -53t-89.5 -153q6 -1 13.5 -1h23.5q134 0 217 7t140 23z" />
    <glyph glyph-name="sad.init" unicode="&#x635;" horiz-adv-x="861" arabic-form="initial" 
d="M794 156q0 -24 -6 -52t-16 -53q-61 -27 -151 -39t-252 -12q-79 0 -127.5 17t-72.5 54q-25 -34 -68 -52.5t-97 -18.5h-4q-9 0 -15 14t-6 35t6 35.5t15 14.5h9q42 0 77.5 11t58.5 31q-1 11 -2 23.5t-1 26.5v102h85v-81q0 -33 5.5 -54t16.5 -33q39 134 119 205t190 71
q101 0 168.5 -69t67.5 -176zM709 129q0 80 -44 128.5t-119 48.5q-82 0 -141.5 -53t-89.5 -153q6 -1 13.5 -1h23.5q134 0 217 7t140 23z" />
    <glyph glyph-name="zad.isol" unicode="&#x636;" horiz-adv-x="1194" arabic-form="isolated" 
d="M588 9q3 -59 2.5 -94t-3.5 -69q-59 -43 -133.5 -67t-149.5 -24q-116 0 -179.5 52.5t-63.5 148.5q0 40 14.5 86.5t40.5 91.5l63 -28q-16 -35 -25 -67.5t-9 -57.5q0 -65 43 -96.5t131 -31.5q52 0 104 12.5t93 34.5q0 84 -16.5 175t-51.5 204l85 25q16 -56 27 -101t19 -89
q38 139 119 213t194 74q101 0 168 -69t67 -176q0 -26 -6 -53.5t-16 -51.5q-57 -27 -140.5 -39t-228.5 -12q-42 0 -81 2.5t-67 6.5zM1042 129q0 80 -44 128.5t-118 48.5q-82 0 -141.5 -52.5t-90.5 -152.5q26 -1 46.5 -1.5t40.5 -0.5q120 0 190 6.5t117 23.5zM942 536l-62 -60
l-62 60l62 61z" />
    <glyph glyph-name="zad.fina" unicode="&#x636;" horiz-adv-x="1238" arabic-form="final" 
d="M588 9q3 -59 2.5 -94t-3.5 -69q-59 -43 -133.5 -67t-149.5 -24q-116 0 -179.5 52.5t-63.5 148.5q0 40 14.5 86.5t40.5 91.5l63 -28q-16 -35 -25 -67.5t-9 -57.5q0 -65 43 -96.5t131 -31.5q52 0 104 12.5t93 34.5q0 84 -16.5 175t-51.5 204l85 25q17 -60 27.5 -104
t18.5 -86q38 139 119 213t194 74q101 0 168 -69t67 -176q0 -10 -1 -20.5t-2 -20.5q23 -8 49 -12t51 -4h14v-99h-11q-48 0 -88 8.5t-76 25.5q-54 -18 -129 -26t-198 -8q-42 0 -81 2.5t-67 6.5zM1042 129q0 80 -44 128.5t-118 48.5q-82 0 -141.5 -52.5t-90.5 -152.5
q26 -1 46.5 -1.5t40.5 -0.5q120 0 190 6.5t117 23.5zM942 536l-62 -60l-62 60l62 61z" />
    <glyph glyph-name="zad.medi" unicode="&#x636;" horiz-adv-x="904" arabic-form="medial" 
d="M-21 49q0 21 6 35.5t15 14.5h9q42 0 77.5 11t58.5 31q-1 11 -2 23.5t-1 26.5v102h85v-81q0 -33 5.5 -54t16.5 -33q39 134 119 205t190 71q101 0 168.5 -69t67.5 -176q0 -11 -1 -21.5t-3 -19.5q23 -8 49 -12t52 -4h13v-99h-10q-48 0 -89 8.5t-77 25.5q-59 -18 -141.5 -26
t-217.5 -8q-79 0 -127.5 17t-72.5 54q-25 -34 -68 -52.5t-97 -18.5h-4q-9 0 -15 14t-6 35zM709 129q0 80 -44 128.5t-119 48.5q-82 0 -141.5 -53t-89.5 -153q6 -1 13.5 -1h23.5q134 0 217 7t140 23zM602 536l-62 -60l-62 60l62 61z" />
    <glyph glyph-name="zad.init" unicode="&#x636;" horiz-adv-x="861" arabic-form="initial" 
d="M794 156q0 -24 -6 -52t-16 -53q-61 -27 -151 -39t-252 -12q-79 0 -127.5 17t-72.5 54q-25 -34 -68 -52.5t-97 -18.5h-4q-9 0 -15 14t-6 35t6 35.5t15 14.5h9q42 0 77.5 11t58.5 31q-1 11 -2 23.5t-1 26.5v102h85v-81q0 -33 5.5 -54t16.5 -33q39 134 119 205t190 71
q101 0 168.5 -69t67.5 -176zM709 129q0 80 -44 128.5t-119 48.5q-82 0 -141.5 -53t-89.5 -153q6 -1 13.5 -1h23.5q134 0 217 7t140 23zM601 536l-62 -60l-62 60l62 61z" />
    <glyph glyph-name="ta.isol" unicode="&#x637;" horiz-adv-x="756" arabic-form="isolated" 
d="M689 156q0 -24 -6 -52t-16 -53q-62 -27 -152.5 -39t-247.5 -12q-72 0 -141.5 8.5t-115.5 22.5l32 94q26 -7 48 -11.5t43 -6.5q8 30 17 55t20 47v496h83v-395q42 45 92 68t108 23q101 0 168.5 -69t67.5 -176zM604 129q0 80 -44 128.5t-119 48.5q-81 0 -139.5 -53
t-88.5 -153q6 -1 13 -1h21q134 0 217 7t140 23z" />
    <glyph glyph-name="ta.fina" unicode="&#x637;" horiz-adv-x="799" arabic-form="final" 
d="M267 0q-72 0 -141.5 8.5t-115.5 22.5l32 94q26 -7 48 -11.5t43 -6.5q8 30 17 55t20 47v496h83v-395q42 45 92 68t108 23q101 0 168.5 -69t67.5 -176q0 -11 -1 -21.5t-3 -19.5q23 -8 49 -12t52 -4h13v-99h-10q-49 0 -89.5 8.5t-76.5 25.5q-59 -18 -141 -26t-215 -8z
M604 129q0 80 -44 128.5t-119 48.5q-81 0 -139.5 -53t-88.5 -153q6 -1 13 -1h21q134 0 217 7t140 23z" />
    <glyph glyph-name="ta.medi" unicode="&#x637;" horiz-adv-x="760" arabic-form="medial" 
d="M584 34q-59 -18 -141 -26t-216 -8h-227q-9 0 -15 14t-6 35t6 35.5t15 14.5h91q8 31 17.5 58.5t21.5 51.5v496h83v-396q42 46 92 69t109 23q101 0 168 -69t67 -176q0 -10 -1 -20.5t-2 -20.5q22 -8 48.5 -12t52.5 -4h13v-99h-11q-48 0 -89 8.5t-76 25.5zM564 129
q0 80 -44 128.5t-118 48.5q-81 0 -139.5 -53t-88.5 -154h34q134 0 217.5 7t138.5 23z" />
    <glyph glyph-name="ta.init" unicode="&#x637;" horiz-adv-x="716" arabic-form="initial" 
d="M628 51q-62 -27 -152.5 -39t-247.5 -12h-228q-9 0 -15 14t-6 35t6 35.5t15 14.5h92q8 30 17.5 57.5t20.5 50.5v498h84v-395q42 45 92 68t108 23q101 0 168.5 -69t67.5 -176q0 -24 -6 -52t-16 -53zM564 129q0 80 -43.5 128.5t-118.5 48.5q-81 0 -139.5 -53t-88.5 -154h34
q134 0 217 7t139 23z" />
    <glyph glyph-name="za.isol" unicode="&#x638;" horiz-adv-x="756" arabic-form="isolated" 
d="M689 156q0 -24 -6 -52t-16 -53q-62 -27 -152.5 -39t-247.5 -12q-72 0 -141.5 8.5t-115.5 22.5l32 94q26 -7 48 -11.5t43 -6.5q8 30 17 55t20 47v496h83v-395q42 45 92 68t108 23q101 0 168.5 -69t67.5 -176zM604 129q0 80 -44 128.5t-119 48.5q-81 0 -139.5 -53
t-88.5 -153q6 -1 13 -1h21q134 0 217 7t140 23zM588 536l-62 -60l-62 60l62 61z" />
    <glyph glyph-name="za.fina" unicode="&#x638;" horiz-adv-x="799" arabic-form="final" 
d="M267 0q-72 0 -141.5 8.5t-115.5 22.5l32 94q26 -7 48 -11.5t43 -6.5q8 30 17 55t20 47v496h83v-395q42 45 92 68t108 23q101 0 168.5 -69t67.5 -176q0 -11 -1 -21.5t-3 -19.5q23 -8 49 -12t52 -4h13v-99h-10q-49 0 -89.5 8.5t-76.5 25.5q-59 -18 -141 -26t-215 -8z
M604 129q0 80 -44 128.5t-119 48.5q-81 0 -139.5 -53t-88.5 -153q6 -1 13 -1h21q134 0 217 7t140 23zM588 536l-62 -60l-62 60l62 61z" />
    <glyph glyph-name="za.medi" unicode="&#x638;" horiz-adv-x="760" arabic-form="medial" 
d="M584 34q-59 -18 -141 -26t-216 -8h-227q-9 0 -15 14t-6 35t6 35.5t15 14.5h91q8 31 17.5 58.5t21.5 51.5v496h83v-396q42 46 92 69t109 23q101 0 168 -69t67 -176q0 -10 -1 -20.5t-2 -20.5q22 -8 48.5 -12t52.5 -4h13v-99h-11q-48 0 -89 8.5t-76 25.5zM564 129
q0 80 -44 128.5t-118 48.5q-81 0 -139.5 -53t-88.5 -154h34q134 0 217.5 7t138.5 23zM545 536l-62 -60l-62 60l62 61z" />
    <glyph glyph-name="za.init" unicode="&#x638;" horiz-adv-x="716" arabic-form="initial" 
d="M628 51q-62 -27 -152.5 -39t-247.5 -12h-228q-9 0 -15 14t-6 35t6 35.5t15 14.5h92q8 30 17.5 57.5t20.5 50.5v498h84v-395q42 45 92 68t108 23q101 0 168.5 -69t67.5 -176q0 -24 -6 -52t-16 -53zM564 129q0 80 -43.5 128.5t-118.5 48.5q-81 0 -139.5 -53t-88.5 -154h34
q134 0 217 7t139 23zM545 536l-62 -60l-62 60l62 61z" />
    <glyph glyph-name="eyn.isol" unicode="&#x639;" horiz-adv-x="619" arabic-form="isolated" 
d="M195 413q2 -75 44 -136.5t91 -61.5q15 0 51.5 8t111.5 28l11 -83l-155 -39q-115 -29 -164.5 -65.5t-49.5 -95.5v0v0q0 -67 63 -102.5t184 -35.5q51 0 101 5.5t106 17.5l-6 -97q-42 -12 -94 -18.5t-99 -6.5q-158 0 -247.5 61.5t-89.5 169.5q0 65 40 117t118 88
q-44 39 -70 95.5t-26 114.5q0 66 50.5 112.5t123.5 46.5q45 0 87.5 -14t75.5 -39l-24 -69q-34 16 -67 24t-63 8t-56 -8t-47 -25z" />
    <glyph glyph-name="eyn.fina" unicode="&#x639;" horiz-adv-x="599" arabic-form="final" 
d="M363 -269q-155 0 -244.5 53.5t-89.5 143.5q0 62 43.5 108t139.5 86q-32 28 -60 63t-52 79q-13 -5 -28 -12t-39 -18l-32 84q93 45 173 67t152 22q96 0 148.5 -35t52.5 -99q0 -48 -29.5 -84.5t-94.5 -68.5q41 -10 88 -15.5t101 -5.5h7v-99h-8q-95 0 -173 18.5t-141 55.5
q-89 -32 -126.5 -62.5t-37.5 -72.5q0 -50 64 -79.5t181 -29.5q51 0 101 5.5t106 17.5l-6 -97q-42 -12 -94.5 -18.5t-101.5 -6.5zM442 256q0 31 -30 47t-89 16q-34 0 -70.5 -6.5t-77.5 -19.5q28 -49 64.5 -84t82.5 -58q59 23 89.5 49.5t30.5 55.5z" />
    <glyph glyph-name="eyn.medi" unicode="&#x639;" horiz-adv-x="620" arabic-form="medial" 
d="M346 407q97 0 149 -34.5t52 -99.5q0 -42 -28 -81.5t-83 -74.5q38 -9 82 -13.5t94 -4.5h8v-99h-8q-86 0 -158 15t-132 45q-75 -28 -158 -44t-156 -16h-8q-9 0 -15 14t-6 35t6 35.5t15 14.5h6q59 0 116.5 5.5t109.5 16.5q-33 29 -61 65t-51 78q-13 -5 -28 -12t-39 -18
l-32 84q93 45 173.5 67t151.5 22zM462 256q0 31 -30 47t-89 16q-34 0 -70.5 -6.5t-77.5 -19.5q28 -48 63.5 -83t81.5 -59q59 22 90.5 49t31.5 56z" />
    <glyph glyph-name="eyn.init" unicode="&#x639;" horiz-adv-x="558" arabic-form="initial" 
d="M300 140q23 0 78.5 13.5t133.5 37.5l25 -91q-142 -50 -273 -75t-253 -25h-11q-9 0 -15 14t-6 35t6 35.5t15 14.5h35q30 0 64 2.5t65 6.5q-37 39 -58 90.5t-21 104.5q0 66 50.5 112.5t123.5 46.5q45 0 87.5 -14t75.5 -40l-25 -68q-34 16 -67 24t-63 8t-56 -8t-47 -25
q2 -76 44 -137.5t92 -61.5z" />
    <glyph glyph-name="gheyn.isol" unicode="&#x63a;" horiz-adv-x="619" arabic-form="isolated" 
d="M195 413q2 -75 44 -136.5t91 -61.5q15 0 51.5 8t111.5 28l11 -83l-155 -39q-115 -29 -164.5 -65.5t-49.5 -95.5v0v0q0 -67 63 -102.5t184 -35.5q51 0 101 5.5t106 17.5l-6 -97q-42 -12 -94 -18.5t-99 -6.5q-158 0 -247.5 61.5t-89.5 169.5q0 65 40 117t118 88
q-44 39 -70 95.5t-26 114.5q0 66 50.5 112.5t123.5 46.5q45 0 87.5 -14t75.5 -39l-24 -69q-34 16 -67 24t-63 8t-56 -8t-47 -25zM353 670l-62 -60l-62 60l62 61z" />
    <glyph glyph-name="gheyn.fina" unicode="&#x63a;" horiz-adv-x="599" arabic-form="final" 
d="M363 -269q-155 0 -244.5 53.5t-89.5 143.5q0 62 43.5 108t139.5 86q-32 28 -60 63t-52 79q-13 -5 -28 -12t-39 -18l-32 84q93 45 173 67t152 22q96 0 148.5 -35t52.5 -99q0 -48 -29.5 -84.5t-94.5 -68.5q41 -10 88 -15.5t101 -5.5h7v-99h-8q-95 0 -173 18.5t-141 55.5
q-89 -32 -126.5 -62.5t-37.5 -72.5q0 -50 64 -79.5t181 -29.5q51 0 101 5.5t106 17.5l-6 -97q-42 -12 -94.5 -18.5t-101.5 -6.5zM442 256q0 31 -30 47t-89 16q-34 0 -70.5 -6.5t-77.5 -19.5q28 -49 64.5 -84t82.5 -58q59 23 89.5 49.5t30.5 55.5zM410 541l-62 -60l-62 60
l62 61z" />
    <glyph glyph-name="gheyn.medi" unicode="&#x63a;" horiz-adv-x="620" arabic-form="medial" 
d="M346 407q97 0 149 -34.5t52 -99.5q0 -42 -28 -81.5t-83 -74.5q38 -9 82 -13.5t94 -4.5h8v-99h-8q-86 0 -158 15t-132 45q-75 -28 -158 -44t-156 -16h-8q-9 0 -15 14t-6 35t6 35.5t15 14.5h6q59 0 116.5 5.5t109.5 16.5q-33 29 -61 65t-51 78q-13 -5 -28 -12t-39 -18
l-32 84q93 45 173.5 67t151.5 22zM462 256q0 31 -30 47t-89 16q-34 0 -70.5 -6.5t-77.5 -19.5q28 -48 63.5 -83t81.5 -59q59 22 90.5 49t31.5 56zM429 541l-62 -60l-62 60l62 61z" />
    <glyph glyph-name="gheyn.init" unicode="&#x63a;" horiz-adv-x="558" arabic-form="initial" 
d="M300 140q23 0 78.5 13.5t133.5 37.5l25 -91q-142 -50 -273 -75t-253 -25h-11q-9 0 -15 14t-6 35t6 35.5t15 14.5h35q30 0 64 2.5t65 6.5q-37 39 -58 90.5t-21 104.5q0 66 50.5 112.5t123.5 46.5q45 0 87.5 -14t75.5 -40l-25 -68q-34 16 -67 24t-63 8t-56 -8t-47 -25
q2 -76 44 -137.5t92 -61.5zM322 596l-62 -60l-62 60l62 61z" />
    <glyph glyph-name="feh.isol" unicode="&#x641;" horiz-adv-x="832" arabic-form="isolated" 
d="M615 713l-63 -59l-62 59l62 61zM361 361q0 87 54 155.5t124 68.5q90 0 157 -93.5t67 -211.5q0 -155 -88 -222.5t-287 -67.5q-167 0 -252.5 54t-85.5 159q0 34 13.5 72t37.5 69l58 -33q-14 -25 -20.5 -47.5t-6.5 -46.5q0 -66 65.5 -97t204.5 -31q145 0 211 36.5t74 119.5
q-32 -11 -68.5 -17t-76.5 -6q-89 0 -135 35.5t-46 103.5zM535 491q-37 0 -66.5 -33.5t-29.5 -78.5q0 -37 30 -54.5t94 -17.5q33 0 62 4t59 12q-13 73 -55 120.5t-94 47.5z" />
    <glyph glyph-name="feh.fina" unicode="&#x641;" horiz-adv-x="871" arabic-form="final" 
d="M687 568l-63 -60l-62 60l62 61zM132 218q0 -67 61.5 -98t193.5 -31q37 0 71 2.5t66 8.5q-41 35 -62.5 77t-21.5 87q0 76 51 124t134 48q82 0 133 -48t51 -124q0 -42 -20.5 -82t-58.5 -75q27 -4 56.5 -6t60.5 -2h24v-99h-29q-58 0 -113 10t-104 29q-55 -24 -117.5 -36.5
t-129.5 -12.5q-163 0 -245.5 53.5t-82.5 159.5q0 35 13.5 73t37.5 68l58 -33q-14 -25 -20.5 -47.5t-6.5 -45.5zM625 343q-50 0 -78 -23t-28 -65q0 -38 29.5 -70.5t83.5 -52.5q47 22 72.5 53.5t25.5 69.5q0 41 -28 64.5t-77 23.5z" />
    <glyph glyph-name="feh.medi" unicode="&#x641;" horiz-adv-x="506" arabic-form="medial" 
d="M481 99h25v-99h-29q-62 0 -119.5 10.5t-107.5 30.5q-51 -20 -108.5 -30.5t-119.5 -10.5h-22q-9 0 -15 14t-6 35t6 35.5t15 14.5h33q31 0 57.5 1.5t49.5 5.5q-40 35 -61 75.5t-21 82.5q0 76 54 124t141 48q86 0 139.5 -48t53.5 -124q0 -42 -21.5 -82t-62.5 -75
q28 -4 58 -6t61 -2zM253 343q-55 0 -85.5 -23t-30.5 -65q0 -35 31 -67t86 -54q54 21 83.5 52.5t29.5 68.5q0 41 -30.5 64.5t-83.5 23.5zM315 568l-62 -60l-62 60l62 61z" />
    <glyph glyph-name="feh.init" unicode="&#x641;" horiz-adv-x="494" arabic-form="initial" 
d="M-21 49q0 21 6 35.5t15 14.5h76q134 0 202 36t76 110q-32 -11 -68.5 -17t-76.5 -6q-89 0 -135 35.5t-46 103.5q0 87 54 155.5t124 68.5q91 0 157.5 -93.5t66.5 -213.5q0 -144 -86 -211t-268 -67h-76q-9 0 -15 14t-6 35zM201 491q-37 0 -66 -33.5t-29 -78.5
q0 -38 29.5 -55t94.5 -17q32 0 60.5 4t59.5 12q-13 74 -54.5 121t-94.5 47zM265 718l-62 -60l-62 60l62 61z" />
    <glyph glyph-name="ghaf.isol" unicode="&#x642;" horiz-adv-x="734" arabic-form="isolated" 
d="M448 488l-63 -60l-62 60l62 61zM576 488l-62 -60l-62 60l62 61zM442 362q91 0 157.5 -96t66.5 -222q0 -152 -83 -232.5t-240 -80.5q-141 0 -217 60.5t-76 171.5q0 37 14 76.5t37 70.5l58 -33q-14 -24 -20.5 -47.5t-6.5 -48.5q0 -74 56 -112.5t163 -38.5q112 0 171.5 46
t66.5 139q-31 -13 -67.5 -19t-77.5 -6q-88 0 -134 37.5t-46 109.5q0 88 53.5 156.5t124.5 68.5zM585 99q-12 75 -53 122.5t-94 47.5q-36 0 -66 -34.5t-30 -79.5q0 -37 30 -54t94 -17q34 0 62.5 3.5t56.5 11.5z" />
    <glyph glyph-name="ghaf.fina" unicode="&#x642;" horiz-adv-x="773" arabic-form="final" 
d="M448 498l-63 -60l-62 60l62 61zM576 498l-62 -60l-62 60l62 61zM264 143q0 91 53.5 160t124.5 69q80 0 143 -78.5t78 -194.5h110v-99h-109q-12 -124 -93 -187t-228 -63q-143 0 -218 55t-75 158q0 37 14 76.5t37 70.5l58 -33q-14 -24 -20.5 -47.5t-6.5 -48.5
q0 -66 54.5 -99t164.5 -33q108 0 166 37t70 114h-136q-90 0 -138.5 37t-48.5 106zM342 165q0 -35 29.5 -50.5t94.5 -15.5h120q-12 80 -53.5 130t-95.5 50q-37 0 -66 -34.5t-29 -79.5z" />
    <glyph glyph-name="ghaf.medi" unicode="&#x642;" horiz-adv-x="506" arabic-form="medial" 
d="M481 99h25v-99h-29q-62 0 -119.5 10.5t-107.5 30.5q-51 -20 -108.5 -30.5t-119.5 -10.5h-22q-9 0 -15 14t-6 35t6 35.5t15 14.5h33q31 0 57.5 1.5t49.5 5.5q-40 35 -61 75.5t-21 82.5q0 76 54 124t141 48q86 0 139.5 -48t53.5 -124q0 -42 -21.5 -82t-62.5 -75
q28 -4 58 -6t61 -2zM253 343q-55 0 -85.5 -23t-30.5 -65q0 -35 31 -67t86 -54q54 21 83.5 52.5t29.5 68.5q0 41 -30.5 64.5t-83.5 23.5zM251 568l-62 -60l-62 60l62 61zM379 568l-62 -60l-62 60l62 61z" />
    <glyph glyph-name="ghaf.init" unicode="&#x642;" horiz-adv-x="494" arabic-form="initial" 
d="M-21 49q0 21 6 35.5t15 14.5h76q134 0 202 36t76 110q-32 -11 -68.5 -17t-76.5 -6q-89 0 -135 35.5t-46 103.5q0 87 54 155.5t124 68.5q91 0 157.5 -93.5t66.5 -213.5q0 -144 -86 -211t-268 -67h-76q-9 0 -15 14t-6 35zM201 491q-37 0 -66 -33.5t-29 -78.5
q0 -38 29.5 -55t94.5 -17q32 0 60.5 4t59.5 12q-13 74 -54.5 121t-94.5 47zM201 718l-62 -60l-62 60l62 61zM329 718l-62 -60l-62 60l62 61z" />
    <glyph glyph-name="kafArabic.isol" unicode="&#x643;" horiz-adv-x="771" arabic-form="isolated" 
d="M721 705v-430q0 -56 -5.5 -112.5t-16.5 -103.5q-57 -32 -147.5 -50.5t-190.5 -18.5q-154 0 -232.5 51t-78.5 152q0 36 13.5 74t37.5 70l58 -33q-14 -25 -20.5 -47t-6.5 -46q0 -63 59.5 -92.5t185.5 -29.5q73 0 139.5 9.5t109.5 25.5q6 35 9 72t3 79v430h83zM537 333
q0 -32 -35.5 -48t-105.5 -16q-26 0 -53 2.5t-51 7.5l10 59q23 -6 50.5 -9t52.5 -3q26 0 47.5 2.5t34.5 6.5q-8 8 -25 19t-54 31q-49 28 -68.5 45t-19.5 38q0 31 48 61.5t133 52.5l13 -54q-48 -11 -82.5 -25t-58.5 -32l104 -63q32 -19 46 -36.5t14 -38.5z" />
    <glyph glyph-name="kafArabic.fina" unicode="&#x643;" horiz-adv-x="829" arabic-form="final" 
d="M820 99h9v-99h-16q-46 0 -79.5 12t-55.5 36q-58 -27 -143.5 -42.5t-180.5 -15.5q-151 0 -227.5 51t-76.5 152q0 36 13.5 74t37.5 70l58 -33q-14 -25 -20.5 -47t-6.5 -46q0 -63 58 -92.5t180 -29.5q81 0 152 10.5t120 29.5q-2 10 -3 22t-1 26v528h83v-523q0 -42 24 -62.5
t75 -20.5zM537 333q0 -32 -35.5 -48t-105.5 -16q-26 0 -53 2.5t-51 7.5l10 59q23 -6 50.5 -9t52.5 -3q26 0 47.5 2.5t34.5 6.5q-8 8 -25 19t-54 31q-49 28 -68.5 45t-19.5 38q0 31 48 61.5t133 52.5l13 -54q-48 -11 -82.5 -25t-58.5 -32l104 -63q32 -19 46 -36.5t14 -38.5z
" />
    <glyph glyph-name="kafArabic.medi" unicode="&#x643;" horiz-adv-x="570" arabic-form="medial" 
d="M564 99h6v-99h-13q-70 0 -123.5 21t-99.5 66q-49 -40 -139 -63.5t-195 -23.5q-9 0 -15 14t-6 35t6 35.5t15 14.5q94 0 165 12t119 35l-218 294q-17 23 -24 36.5t-7 25.5q0 15 8 28.5t25 25.5q64 51 158.5 95t182.5 64l19 -82q-82 -23 -159.5 -58t-142.5 -78l173 -233
q70 -93 125 -129t140 -36z" />
    <glyph glyph-name="kafArabic.init" unicode="&#x643;" horiz-adv-x="478" arabic-form="initial" 
d="M0 0q-9 0 -15 14t-6 35t6 35.5t15 14.5q115 0 185 13.5t90 38.5q-2 21 -18.5 51.5t-54.5 82.5l-111 155q-18 25 -24.5 38t-6.5 24q0 15 8 28.5t25 25.5q64 50 159 94.5t183 64.5l19 -82q-79 -21 -156 -56t-144 -80q129 -169 167 -231.5t38 -108.5q0 -76 -91.5 -116.5
t-267.5 -40.5z" />
    <glyph glyph-name="kaf.isol" unicode="&#x6a9;" horiz-adv-x="809" arabic-form="isolated" 
d="M132 211q0 -62 56.5 -92t172.5 -30q106 0 182 17.5t98 44.5q-2 21 -19 52.5t-54 81.5l-110 155q-17 21 -24 35.5t-7 26.5q0 16 7.5 29.5t22.5 24.5q64 51 159.5 95t184.5 64l20 -82q-79 -21 -156.5 -56t-144.5 -80q131 -172 168.5 -233.5t37.5 -106.5q0 -81 -94.5 -124
t-273.5 -43q-150 0 -229 52t-79 151q0 37 13.5 74.5t37.5 69.5l58 -33q-14 -24 -20.5 -47t-6.5 -46z" />
    <glyph glyph-name="kaf.fina" unicode="&#x6a9;" horiz-adv-x="927" arabic-form="final" 
d="M920 99h7v-99h-14q-69 0 -122 21t-99 65q-49 -44 -139.5 -70t-195.5 -26q-148 0 -227.5 52.5t-79.5 150.5q0 37 13.5 74.5t37.5 69.5l58 -33q-14 -24 -20.5 -47t-6.5 -46q0 -61 57 -91.5t172 -30.5q84 0 156 14.5t124 42.5l-218 294q-17 21 -24 35.5t-7 26.5q0 15 8 28.5
t25 25.5q64 51 158.5 95t182.5 64l19 -82q-81 -22 -159 -57t-143 -79l173 -233q69 -93 124 -129t140 -36z" />
    <glyph glyph-name="kaf.medi" unicode="&#x6a9;" horiz-adv-x="570" arabic-form="medial" 
d="M564 99h6v-99h-13q-70 0 -123.5 21t-99.5 66q-49 -40 -139 -63.5t-195 -23.5q-9 0 -15 14t-6 35t6 35.5t15 14.5q94 0 165 12t119 35l-218 294q-17 23 -24 36.5t-7 25.5q0 15 8 28.5t25 25.5q64 51 158.5 95t182.5 64l19 -82q-82 -23 -159.5 -58t-142.5 -78l173 -233
q70 -93 125 -129t140 -36z" />
    <glyph glyph-name="kaf.init" unicode="&#x6a9;" horiz-adv-x="474" arabic-form="initial" 
d="M0 0q-9 0 -15 14t-6 35t6 35.5t15 14.5q115 0 185 13.5t90 38.5q-2 21 -18.5 51.5t-54.5 82.5l-111 155q-18 25 -24.5 38t-6.5 24q0 15 8 28.5t25 25.5q64 50 159 94.5t183 64.5l19 -82q-79 -21 -156 -56t-144 -80q129 -169 167 -231.5t38 -108.5q0 -76 -91.5 -116.5
t-267.5 -40.5z" />
    <glyph glyph-name="gaf.isol" unicode="&#x6af;" horiz-adv-x="809" arabic-form="isolated" 
d="M454 633l-25 55q56 35 129 69t142 57l20 -57q-67 -22 -139 -55.5t-127 -68.5zM132 211q0 -62 56.5 -92t172.5 -30q106 0 182 17.5t98 44.5q-2 21 -19 52.5t-54 81.5l-110 155q-17 21 -24 35.5t-7 26.5q0 16 7.5 29.5t22.5 24.5q64 51 159.5 95t184.5 64l20 -82
q-79 -21 -156.5 -56t-144.5 -80q131 -172 168.5 -233.5t37.5 -106.5q0 -81 -94.5 -124t-273.5 -43q-150 0 -229 52t-79 151q0 37 13.5 74.5t37.5 69.5l58 -33q-14 -24 -20.5 -47t-6.5 -46z" />
    <glyph glyph-name="gaf.fina" unicode="&#x6af;" horiz-adv-x="927" arabic-form="final" 
d="M425 633l-25 55q56 35 129 69t142 57l20 -57q-67 -22 -139 -55.5t-127 -68.5zM920 99h7v-99h-14q-69 0 -122 21t-99 65q-49 -44 -139.5 -70t-195.5 -26q-148 0 -227.5 52.5t-79.5 150.5q0 37 13.5 74.5t37.5 69.5l58 -33q-14 -24 -20.5 -47t-6.5 -46q0 -61 57 -91.5
t172 -30.5q84 0 156 14.5t124 42.5l-218 294q-17 21 -24 35.5t-7 26.5q0 15 8 28.5t25 25.5q64 51 158.5 95t182.5 64l19 -82q-81 -22 -159 -57t-143 -79l173 -233q69 -93 124 -129t140 -36z" />
    <glyph glyph-name="gaf.medi" unicode="&#x6af;" horiz-adv-x="570" arabic-form="medial" 
d="M72 633l-24 55q56 35 128.5 69t142.5 57l20 -57q-68 -23 -140 -56t-127 -68zM564 99h6v-99h-13q-71 0 -124.5 21.5t-98.5 66.5q-50 -40 -140 -64t-194 -24q-9 0 -15 14t-6 35t6 35.5t15 14.5q94 0 165 12t119 35l-218 294q-17 23 -24 36.5t-7 25.5q0 15 8 28.5t25 25.5
q64 51 158.5 95t182.5 64l19 -82q-82 -23 -159.5 -58t-142.5 -78l173 -233q70 -93 125 -129t140 -36z" />
    <glyph glyph-name="gaf.init" unicode="&#x6af;" horiz-adv-x="474" arabic-form="initial" 
d="M101 633l-25 55q56 35 129 69t142 57l20 -57q-69 -23 -140.5 -56.5t-125.5 -67.5zM0 0q-9 0 -15 14t-6 35t6 35.5t15 14.5q115 0 185 13.5t90 38.5q-2 20 -17.5 49t-55.5 85l-111 155q-18 25 -24.5 38t-6.5 24q0 15 8 28.5t25 25.5q64 50 159 94.5t183 64.5l19 -82
q-79 -21 -156 -56t-144 -80q129 -169 167 -231.5t38 -108.5q0 -76 -91.5 -116.5t-267.5 -40.5z" />
    <glyph glyph-name="lam.isol" unicode="&#x644;" horiz-adv-x="662" arabic-form="isolated" 
d="M478 -47q6 36 9 74.5t3 86.5v591h83v-589q0 -64 -5.5 -118t-15.5 -97q-51 -40 -122 -64t-142 -24q-112 0 -175.5 53.5t-63.5 146.5q0 41 14.5 87.5t40.5 91.5l64 -28q-17 -34 -26 -67t-9 -59q0 -63 41.5 -95t122.5 -32q46 0 93.5 11t87.5 31z" />
    <glyph glyph-name="lam.fina" unicode="&#x644;" horiz-adv-x="690" arabic-form="final" 
d="M478 -47q6 36 9 74.5t3 86.5v591h83v-499q0 -55 26.5 -81t82.5 -26h8v-99h-17q-30 0 -56.5 9.5t-45.5 26.5q-2 -39 -7 -72.5t-12 -62.5q-51 -40 -122 -64t-142 -24q-112 0 -175.5 53.5t-63.5 146.5q0 41 14.5 87.5t40.5 91.5l64 -28q-17 -34 -26 -67t-9 -59
q0 -63 41.5 -95t122.5 -32q46 0 93.5 11t87.5 31z" />
    <glyph glyph-name="lam.medi" unicode="&#x644;" horiz-adv-x="343" arabic-form="medial" 
d="M343 99v-99h-16q-48 0 -84.5 21.5t-51.5 58.5q-27 -36 -78.5 -58t-108.5 -22h-4q-9 0 -15 14t-6 35t6 35.5t15 14.5h9q43 0 77.5 12.5t56.5 35.5v558h84v-499q0 -55 26.5 -81t82.5 -26h7z" />
    <glyph glyph-name="lam.init" unicode="&#x644;" horiz-adv-x="315" arabic-form="initial" 
d="M-21 49q0 21 6 35.5t15 14.5h8q66 0 100.5 28.5t34.5 83.5v494h84v-494q0 -105 -55 -158t-164 -53h-8q-9 0 -15 14t-6 35z" />
    <glyph glyph-name="mim.isol" unicode="&#x645;" horiz-adv-x="688" arabic-form="isolated" 
d="M123 -9q0 -45 12.5 -115.5t31.5 -135.5l-84 -24q-20 75 -32.5 148t-12.5 120q0 87 41 141t115 67q40 105 92.5 157t119.5 52q53 0 103.5 -34.5t82.5 -93.5q29 -51 37 -110t-6 -119q-28 -25 -72 -39.5t-93 -14.5q-76 0 -146.5 28t-120.5 78q-35 -8 -51.5 -34t-16.5 -71z
M458 85q45 0 68 10t23 29q0 68 -44.5 123.5t-99.5 55.5q-42 0 -76.5 -33t-67.5 -107q47 -39 96.5 -58.5t100.5 -19.5z" />
    <glyph glyph-name="mim.fina" unicode="&#x645;" horiz-adv-x="738" arabic-form="final" 
d="M123 -9q0 -45 12.5 -115.5t31.5 -135.5l-84 -24q-20 75 -32.5 148t-12.5 120q0 87 41 141t115 67q40 105 93 157t120 52q62 0 114 -48.5t95 -145.5q31 -68 51.5 -88t64.5 -20h6v-99h-7q-43 0 -71.5 11.5t-54.5 39.5q-19 -30 -56.5 -45.5t-90.5 -15.5q-76 0 -146 28
t-122 78q-34 -8 -50.5 -34t-16.5 -71zM458 85q45 0 68 10t23 29q0 68 -44.5 123.5t-99.5 55.5q-42 0 -76 -33t-68 -107q47 -39 96.5 -58.5t100.5 -19.5z" />
    <glyph glyph-name="mim.medi" unicode="&#x645;" horiz-adv-x="709" arabic-form="medial" 
d="M-21 49q0 21 6 35.5t15 14.5h6q55 0 91 28.5t79 98.5q68 107 108.5 141t93.5 34q62 0 113.5 -47.5t94.5 -144.5q33 -71 53.5 -90.5t64.5 -19.5h5v-99h-7q-42 0 -70.5 11.5t-55.5 39.5q-19 -30 -56 -45.5t-91 -15.5q-72 0 -139.5 25.5t-117.5 70.5q-39 -45 -79.5 -65.5
t-89.5 -20.5h-3q-9 0 -15 14t-6 35zM432 85q43 0 65.5 10t22.5 30q0 67 -44 122.5t-98 55.5q-40 0 -69.5 -28.5t-78.5 -107.5l-1 -1q46 -40 97.5 -60.5t105.5 -20.5z" />
    <glyph glyph-name="mim.init" unicode="&#x645;" horiz-adv-x="660" arabic-form="initial" 
d="M-21 49q0 21 6 35.5t15 14.5h6q57 0 93.5 29t75.5 95q63 107 104.5 142.5t98.5 35.5q53 0 103.5 -34.5t82.5 -93.5q29 -51 37 -110t-6 -119q-28 -25 -72.5 -39.5t-93.5 -14.5q-70 0 -136.5 24.5t-116.5 68.5q-37 -43 -79 -63t-94 -20h-3q-9 0 -15 14t-6 35zM430 85
q45 0 68 10t23 30q0 67 -44.5 122.5t-99.5 55.5q-40 0 -69 -28.5t-75 -108.5q-1 -1 -1.5 -2t-0.5 -2q44 -38 94.5 -57.5t104.5 -19.5z" />
    <glyph glyph-name="noonGhuna.isol" unicode="&#x6ba;" horiz-adv-x="723" arabic-form="isolated" 
d="M561 -40q8 91 -11.5 199.5t-62.5 209.5l85 31q51 -109 66.5 -256t-18.5 -247q-45 -40 -119 -61.5t-164 -21.5q-135 0 -208.5 62.5t-73.5 178.5q0 50 20.5 106.5t57.5 106.5l60 -33q-28 -50 -41 -89t-13 -73q0 -82 50.5 -121t157.5 -39q63 0 118 12t96 35z" />
    <glyph glyph-name="noonGhuna.fina" unicode="&#x6ba;" horiz-adv-x="783" arabic-form="final" 
d="M641 48q3 -61 -2 -114.5t-19 -96.5q-45 -40 -119 -61.5t-164 -21.5q-135 0 -208.5 63t-73.5 179q0 50 20.5 106t57.5 106l60 -33q-28 -50 -41 -89t-13 -73q0 -82 50.5 -121t157.5 -39q63 0 118.5 12t95.5 35q8 92 -12.5 202.5t-64.5 214.5l86 31q7 -20 16 -46t29 -84
q26 -76 57 -97.5t104 -21.5h7v-99h-7q-54 0 -83.5 11t-51.5 37z" />
    <glyph glyph-name="noon.isol" unicode="&#x646;" horiz-adv-x="723" arabic-form="isolated" 
d="M561 -40q8 91 -11.5 199.5t-62.5 209.5l85 31q51 -109 66.5 -256t-18.5 -247q-45 -40 -119 -61.5t-164 -21.5q-135 0 -208.5 62.5t-73.5 178.5q0 50 20.5 106.5t57.5 106.5l60 -33q-28 -50 -41 -89t-13 -73q0 -82 50.5 -121t157.5 -39q63 0 118 12t96 35zM414 540
l-62 -60l-62 60l62 61z" />
    <glyph glyph-name="noon.fina" unicode="&#x646;" horiz-adv-x="783" arabic-form="final" 
d="M641 48q3 -61 -2 -114.5t-19 -96.5q-45 -40 -119 -61.5t-164 -21.5q-135 0 -208.5 63t-73.5 179q0 50 20.5 106t57.5 106l60 -33q-28 -50 -41 -89t-13 -73q0 -82 50.5 -121t157.5 -39q63 0 118.5 12t95.5 35q8 92 -12.5 202.5t-64.5 214.5l86 31q7 -20 16 -46t29 -84
q26 -76 57 -97.5t104 -21.5h7v-99h-7q-54 0 -83.5 11t-51.5 37zM414 481l-62 -60l-62 60l62 61z" />
    <glyph glyph-name="noon.medi" unicode="&#x646;" horiz-adv-x="380" arabic-form="medial" 
d="M380 99v-99h-17q-58 0 -101.5 22t-60.5 60q-27 -36 -81.5 -59t-115.5 -23h-4q-9 0 -15 14t-6 35t6 35.5t15 14.5h9q48 0 84.5 12t59.5 36v146h84v-87q0 -55 33 -81t102 -26h8zM256 470l-62 -60l-62 60l62 61z" />
    <glyph glyph-name="noon.init" unicode="&#x646;" horiz-adv-x="339" arabic-form="initial" 
d="M0 99h5q56 0 102 8.5t81 24.5q-3 65 -9.5 107t-18.5 89l85 26q20 -77 22 -150t-14 -145q-47 -29 -108.5 -44t-135.5 -15h-9q-9 0 -15 14t-6 35t6 35.5t15 14.5zM220 519l-62 -60l-62 60l62 61z" />
    <glyph glyph-name="vav.isol" unicode="&#x648;" horiz-adv-x="535" arabic-form="isolated" 
d="M70 176q0 93 52.5 159t123.5 66q87 0 151 -99t64 -225q0 -68 -22 -129t-63 -109q-44 -51 -103.5 -79.5t-121.5 -28.5q-33 0 -65 6t-56 17l19 72q20 -4 37 -6t34 -2q86 0 157.5 53t105.5 144q-29 -12 -59 -18.5t-60 -6.5q-96 0 -145 47t-49 139zM244 301q-42 0 -69 -32.5
t-27 -86.5q0 -50 27.5 -71.5t92.5 -21.5q31 0 58 4t55 12q-12 93 -48 144.5t-89 51.5z" />
    <glyph glyph-name="vav.fina" unicode="&#x648;" horiz-adv-x="555" arabic-form="final" 
d="M70 176q0 93 52.5 159t123.5 66q82 0 145 -90.5t69 -211.5h95v-99h-101q-24 -118 -110 -193.5t-193 -75.5q-33 0 -65 6t-56 17l19 72q23 -5 38.5 -6.5t32.5 -1.5q82 0 151.5 48.5t105.5 133.5h-110q-96 0 -146.5 45t-50.5 131zM148 182q0 -45 27 -64t92 -19h115
q-12 96 -48.5 149t-89.5 53q-42 0 -69 -32.5t-27 -86.5z" />
    <glyph glyph-name="vavHamzeAbove.isol" unicode="&#x624;" horiz-adv-x="535" arabic-form="isolated" 
d="M70 176q0 93 52.5 159t123.5 66q87 0 151 -99t64 -225q0 -68 -22 -129t-63 -109q-44 -51 -103.5 -79.5t-121.5 -28.5q-33 0 -65 6t-56 17l19 72q20 -4 37 -6t34 -2q86 0 157.5 53t105.5 144q-29 -12 -59 -18.5t-60 -6.5q-96 0 -145 47t-49 139zM244 301q-42 0 -69 -32.5
t-27 -86.5q0 -50 27.5 -71.5t92.5 -21.5q31 0 58 4t55 12q-12 93 -48 144.5t-89 51.5zM351 551v-56l-209 -31v55l51 9q-10 15 -15 31.5t-5 35.5q0 37 24 59.5t62 22.5q21 0 40 -6.5t33 -19.5l-17 -42q-13 5 -29 8t-30 3q-9 0 -17.5 -1t-14.5 -4q1 -30 16 -52.5t35 -22.5
q6 0 38 5t38 6z" />
    <glyph glyph-name="vavHamzeAbove.fina" unicode="&#x624;" horiz-adv-x="555" arabic-form="final" 
d="M70 176q0 93 52.5 159t123.5 66q82 0 145 -90.5t69 -211.5h95v-99h-101q-24 -118 -110 -193.5t-193 -75.5q-33 0 -65 6t-56 17l19 72q23 -5 38.5 -6.5t32.5 -1.5q82 0 151.5 48.5t105.5 133.5h-110q-96 0 -146.5 45t-50.5 131zM148 182q0 -45 27 -64t92 -19h115
q-12 96 -48.5 149t-89.5 53q-42 0 -69 -32.5t-27 -86.5zM351 551v-56l-209 -31v55l51 9q-10 15 -15 31.5t-5 35.5q0 37 24 59.5t62 22.5q21 0 40 -6.5t33 -19.5l-17 -42q-13 5 -29 8t-30 3q-9 0 -17.5 -1t-14.5 -4q1 -30 16 -52.5t35 -22.5q6 0 38 5t38 6z" />
    <glyph glyph-name="heh.isol" unicode="&#x647;" horiz-adv-x="494" arabic-form="isolated" 
d="M230 423q101 -31 155 -95t54 -150q0 -84 -54.5 -136t-142.5 -52q-85 0 -136 47.5t-51 125.5q0 75 44 140t131 120zM235 323q-49 -32 -74 -68.5t-25 -75.5q0 -42 28.5 -66t79.5 -24q54 0 84 26t30 72q0 43 -31 77t-92 59z" />
    <glyph glyph-name="heh.fina" unicode="&#x647;" horiz-adv-x="502" arabic-form="final" 
d="M493 99h9v-99h-16q-63 0 -100.5 23t-52.5 71q-24 -15 -53 -23t-60 -8q-75 0 -120.5 41t-45.5 109q0 83 68.5 142.5t201.5 89.5v44h83v-307q0 -45 19.5 -64t66.5 -19zM132 222q0 -34 24.5 -51.5t72.5 -17.5q23 0 47.5 4t47.5 12v180q-94 -13 -143 -46t-49 -81z" />
    <glyph glyph-name="heh.medi" unicode="&#x647;" horiz-adv-x="546" arabic-form="medial" 
d="M500 -94q0 -72 -44 -117t-116 -45q-92 0 -158.5 70t-82.5 186h-99q-9 0 -15 14t-6 35t6 35.5t15 14.5h97q6 63 32 138t65 141q24 39 41.5 55t37.5 16q17 0 31.5 -9.5t33.5 -33.5q51 -62 74.5 -114t23.5 -106q0 -22 -7 -43.5t-21 -43.5h138v-99h-80q17 -20 25.5 -43
t8.5 -51zM361 182q0 41 -22 81.5t-70 89.5q-38 -61 -62 -130t-28 -127h93q40 0 64.5 24t24.5 62zM425 -86q0 42 -33.5 65t-94.5 23h-114q13 -80 53.5 -121.5t105.5 -41.5q39 0 61 20t22 55z" />
    <glyph glyph-name="heh.init" unicode="&#x647;" horiz-adv-x="665" arabic-form="initial" 
d="M-21 49q0 21 6 35.5t15 14.5h38q29 0 53.5 1.5t45.5 5.5q-43 37 -64.5 79.5t-21.5 88.5q0 77 50 125t132 48q10 0 21 -1t24 -4l29 56q142 -67 222.5 -163.5t80.5 -195.5q0 -68 -32 -113.5t-82 -45.5q-59 0 -126 15.5t-126 42.5q-43 -19 -92 -28.5t-100 -9.5h-52
q-9 0 -15 14t-6 35zM237 361q-50 0 -77.5 -23.5t-27.5 -65.5q0 -37 27.5 -72.5t79.5 -66.5q51 23 78 58t27 80q0 41 -29 65.5t-78 24.5zM471 70q28 0 42.5 17t14.5 49q0 45 -32.5 96.5t-93.5 101.5q7 -17 10.5 -35t3.5 -36q0 -48 -21.5 -91.5t-61.5 -78.5q35 -11 70 -17
t68 -6z" />
    <glyph glyph-name="tehArabic.isol" unicode="&#x629;" horiz-adv-x="494" arabic-form="isolated" 
d="M230 423q101 -31 155 -95t54 -150q0 -84 -54.5 -136t-142.5 -52q-85 0 -136 47.5t-51 125.5q0 75 44 140t131 120zM235 323q-49 -32 -74 -68.5t-25 -75.5q0 -42 28.5 -66t79.5 -24q54 0 84 26t30 72q0 43 -31 77t-92 59zM229 540l-62 -60l-62 60l62 61zM357 540l-62 -60
l-62 60l62 61z" />
    <glyph glyph-name="tehArabic.fina" unicode="&#x629;" horiz-adv-x="502" arabic-form="final" 
d="M493 99h9v-99h-16q-63 0 -100.5 23t-52.5 71q-24 -15 -53 -23t-60 -8q-75 0 -120.5 41t-45.5 109q0 83 68.5 142.5t201.5 89.5v44h83v-307q0 -45 19.5 -64t66.5 -19zM132 222q0 -34 24.5 -51.5t72.5 -17.5q23 0 47.5 4t47.5 12v180q-94 -13 -143 -46t-49 -81zM304 624
l-62 -60l-62 60l62 61zM432 624l-62 -60l-62 60l62 61z" />
    <glyph glyph-name="hehUrdu.isol" unicode="&#x6c1;" horiz-adv-x="494" arabic-form="isolated" 
d="M230 423q101 -31 155 -95t54 -150q0 -84 -54.5 -136t-142.5 -52q-85 0 -136 47.5t-51 125.5q0 75 44 140t131 120zM235 323q-49 -32 -74 -68.5t-25 -75.5q0 -42 28.5 -66t79.5 -24q54 0 84 26t30 72q0 43 -31 77t-92 59z" />
    <glyph glyph-name="hehUrdu.fina" unicode="&#x6c1;" horiz-adv-x="553" arabic-form="final" 
d="M341 196q64 -60 104.5 -78.5t86.5 -18.5h21v-99h-13q-65 0 -119 22t-129 90q-52 47 -80.5 61t-58.5 14q-28 0 -53.5 -5.5t-49.5 -17.5l13 100q23 10 52 16t56 6q39 0 74.5 -17t95.5 -73z" />
    <glyph glyph-name="hehUrdu.medi" unicode="&#x6c1;" horiz-adv-x="581" arabic-form="medial" 
d="M-21 49q0 21 6 35.5t15 14.5h7q70 0 110.5 47t60.5 149l83 -12q-19 -143 6.5 -225t113.5 -159q-12 90 36 145t139 55h25v-99h-11q-86 0 -113.5 -43.5t2.5 -132.5l-59 -58q-94 63 -148.5 149t-58.5 176q-32 -45 -78 -68t-105 -23h-10q-9 0 -15 14t-6 35z" />
    <glyph glyph-name="hehUrdu.init" unicode="&#x6c1;" horiz-adv-x="347" arabic-form="initial" 
d="M171 285l85 26q17 -60 19 -123t-12 -129q-48 -29 -111.5 -44t-142.5 -15h-9q-9 0 -15 14t-6 35t6 35.5t15 14.5h5q59 0 107.5 8.5t85.5 24.5q-2 42 -8.5 79t-18.5 74zM165 -120q0 -10 4.5 -15.5t15.5 -6.5q17 -2 28.5 -15.5t11.5 -33.5t-14.5 -34.5t-36.5 -14.5
q-30 0 -50.5 24t-20.5 62q0 24 7 50t20 51l49 -16q-6 -13 -10 -27.5t-4 -23.5z" />
    <glyph glyph-name="hehDocheshm.isol" unicode="&#x6be;" horiz-adv-x="673" arabic-form="isolated" 
d="M257 36q-30 -14 -67.5 -28.5t-97.5 -33.5l-61 -19l-30 87l51 16q8 2 16.5 5t25.5 8q29 10 42 14t24 8q-50 39 -75.5 85t-25.5 96q0 78 50 125.5t132 47.5q10 0 21 -1t24 -4l29 56q142 -67 222.5 -163.5t80.5 -195.5q0 -68 -32.5 -113.5t-82.5 -45.5q-58 0 -123 14.5
t-123 41.5zM245 361q-50 0 -78 -23.5t-28 -65.5q0 -38 29.5 -75t83.5 -67q54 26 77 59t23 82q0 41 -29 65.5t-78 24.5zM345 91q34 -11 68.5 -16.5t65.5 -5.5q28 0 42.5 17t14.5 50q0 45 -33 97t-93 101q7 -16 10.5 -34t3.5 -37q0 -53 -19.5 -95.5t-59.5 -76.5z" />
    <glyph glyph-name="hehDocheshm.fina" unicode="&#x6be;" horiz-adv-x="559" arabic-form="final" 
d="M27 -33l-13 96l93 12q2 65 29.5 148t70.5 155q24 39 41.5 55t37.5 16q17 0 31 -9.5t34 -33.5q51 -63 74.5 -115t23.5 -105q0 -23 -6.5 -44t-20.5 -43h137v-99h-83q19 -19 28 -41.5t9 -50.5q0 -73 -44.5 -118.5t-115.5 -45.5q-88 0 -153 64t-85 171zM374 183
q0 41 -21.5 81.5t-69.5 88.5q-40 -62 -65 -135t-27 -132l83 11q49 6 74.5 27.5t25.5 58.5zM438 -86q0 48 -41 72t-113 15l-86 -11q14 -72 54 -109t103 -37q40 0 61.5 18t21.5 52z" />
    <glyph glyph-name="hehDocheshm.medi" unicode="&#x6be;" horiz-adv-x="546" arabic-form="medial" 
d="M500 -94q0 -72 -44 -117t-116 -45q-92 0 -158.5 70t-82.5 186h-99q-9 0 -15 14t-6 35t6 35.5t15 14.5h97q6 63 32 138t65 141q24 39 41.5 55t37.5 16q17 0 31.5 -9.5t33.5 -33.5q51 -62 74.5 -114t23.5 -106q0 -22 -7 -43.5t-21 -43.5h138v-99h-80q17 -20 25.5 -43
t8.5 -51zM361 182q0 41 -22 81.5t-70 89.5q-38 -61 -62 -130t-28 -127h93q40 0 64.5 24t24.5 62zM425 -86q0 42 -33.5 65t-94.5 23h-114q13 -80 53.5 -121.5t105.5 -41.5q39 0 61 20t22 55z" />
    <glyph glyph-name="hehDocheshm.init" unicode="&#x6be;" horiz-adv-x="675" arabic-form="initial" 
d="M-21 49q0 21 6 35.5t15 14.5h38q29 0 53.5 1.5t45.5 5.5q-43 37 -64.5 79.5t-21.5 88.5q0 77 50 125t132 48q10 0 21 -1t24 -4l29 56q142 -67 222.5 -163.5t80.5 -195.5q0 -68 -32 -113.5t-82 -45.5q-59 0 -126 15.5t-126 42.5q-43 -19 -92 -28.5t-100 -9.5h-52
q-9 0 -15 14t-6 35zM237 361q-50 0 -77.5 -23.5t-27.5 -65.5q0 -37 27.5 -72.5t79.5 -66.5q51 23 78 58t27 80q0 41 -29 65.5t-78 24.5zM471 70q28 0 42.5 17t14.5 49q0 45 -32.5 96.5t-93.5 101.5q7 -17 10.5 -35t3.5 -36q0 -48 -21.5 -91.5t-61.5 -78.5q35 -11 70 -17
t68 -6z" />
    <glyph glyph-name="hehHamzehAbove.fina" unicode="&#x6c2;" horiz-adv-x="553" 
d="M341 196q64 -60 104.5 -78.5t86.5 -18.5h21v-99h-13q-65 0 -119 22t-129 90q-52 47 -80.5 61t-58.5 14q-28 0 -53.5 -5.5t-49.5 -17.5l13 100q23 10 52 16t56 6q39 0 74.5 -17t95.5 -73zM268 437v-56l-209 -31v55l51 9q-10 15 -15 31.5t-5 35.5q0 37 24 59.5t62 22.5
q21 0 40 -6.5t33 -19.5l-17 -42q-13 5 -29 8t-30 3q-9 0 -17.5 -1t-14.5 -4q1 -30 16 -52.5t35 -22.5q6 0 38 5t38 6z" />
    <glyph glyph-name="hehTehUrdu.fina" unicode="&#x6c3;" horiz-adv-x="553" 
d="M341 196q64 -60 104.5 -78.5t86.5 -18.5h21v-99h-13q-65 0 -119 22t-129 90q-52 47 -80.5 61t-58.5 14q-28 0 -53.5 -5.5t-49.5 -17.5l13 100q23 10 52 16t56 6q39 0 74.5 -17t95.5 -73zM161 418l-62 -60l-62 60l62 61zM289 418l-62 -60l-62 60l62 61z" />
    <glyph glyph-name="yeh.isol" unicode="&#x6cc;" horiz-adv-x="734" arabic-form="isolated" 
d="M569 -156q-48 -26 -104.5 -40t-115.5 -14q-136 0 -209.5 61.5t-73.5 173.5q0 35 13.5 73.5t37.5 70.5l59 -33q-14 -24 -21 -47.5t-7 -49.5q0 -72 51.5 -110.5t149.5 -38.5q89 0 167.5 32t103.5 74q-3 19 -23.5 35.5t-85.5 45.5q-53 24 -78.5 39t-44.5 30q-30 26 -45 56.5
t-15 67.5q0 75 57 129.5t142 54.5q62 0 115 -36t76 -90l-52 -48q-37 46 -74.5 67t-84.5 21q-44 0 -71 -26t-27 -64q0 -32 26.5 -58t113.5 -65q94 -42 123.5 -72t29.5 -67q0 -46 -36 -92.5t-97 -79.5z" />
    <glyph glyph-name="yeh.fina" unicode="&#x6cc;" horiz-adv-x="781" arabic-form="final" 
d="M143 -10q0 -78 48.5 -119t141.5 -41q96 1 166.5 39t95.5 100q-20 14 -64.5 22.5t-98.5 8.5h-11l24 99h336v-99h-125q5 -9 8 -19t3 -20q0 -44 -34.5 -91.5t-92.5 -82.5q-46 -27 -101 -41.5t-114 -14.5q-124 0 -194.5 63.5t-70.5 174.5q0 61 23.5 129t66.5 134l60 -30
q-33 -61 -50 -115t-17 -97z" />
    <glyph glyph-name="yeh.medi" unicode="&#x6cc;" horiz-adv-x="380" arabic-form="medial" 
d="M380 99v-99h-17q-58 0 -101.5 22t-60.5 60q-27 -36 -81.5 -59t-115.5 -23h-4q-9 0 -15 14t-6 35t6 35.5t15 14.5h9q48 0 84.5 12t59.5 36v146h84v-87q0 -55 33 -81t102 -26h8zM192 -136l-62 -60l-62 60l62 60zM320 -136l-62 -60l-62 60l62 60z" />
    <glyph glyph-name="yeh.init" unicode="&#x6cc;" horiz-adv-x="339" arabic-form="initial" 
d="M0 99h5q56 0 102 8.5t81 24.5q-3 65 -9.5 107t-18.5 89l85 26q20 -77 22 -150t-14 -145q-47 -29 -108.5 -44t-135.5 -15h-9q-9 0 -15 14t-6 35t6 35.5t15 14.5zM191 -136l-62 -60l-62 60l62 60zM319 -136l-62 -60l-62 60l62 60z" />
    <glyph glyph-name="yehArabic.isol" unicode="&#x64a;" horiz-adv-x="734" arabic-form="isolated" 
d="M569 -156q-48 -26 -104.5 -40t-115.5 -14q-136 0 -209.5 61.5t-73.5 173.5q0 35 13.5 73.5t37.5 70.5l59 -33q-14 -24 -21 -47.5t-7 -49.5q0 -72 51.5 -110.5t149.5 -38.5q89 0 167.5 32t103.5 74q-3 19 -23.5 35.5t-85.5 45.5q-53 24 -78.5 39t-44.5 30q-30 26 -45 56.5
t-15 67.5q0 75 57 129.5t142 54.5q62 0 115 -36t76 -90l-52 -48q-37 46 -74.5 67t-84.5 21q-44 0 -71 -26t-27 -64q0 -32 26.5 -58t113.5 -65q94 -42 123.5 -72t29.5 -67q0 -46 -36 -92.5t-97 -79.5zM351 -336l-62 -60l-62 60l62 60zM479 -336l-62 -60l-62 60l62 60z" />
    <glyph glyph-name="yehArabic.fina" unicode="&#x64a;" horiz-adv-x="781" arabic-form="final" 
d="M143 -10q0 -78 48.5 -119t141.5 -41q96 1 166.5 39t95.5 100q-20 14 -64.5 22.5t-98.5 8.5h-11l24 99h336v-99h-125q5 -9 8 -19t3 -20q0 -44 -34.5 -91.5t-92.5 -82.5q-46 -27 -101 -41.5t-114 -14.5q-124 0 -194.5 63.5t-70.5 174.5q0 61 23.5 129t66.5 134l60 -30
q-33 -61 -50 -115t-17 -97zM322 -402l-62 -60l-62 60l62 60zM450 -402l-62 -60l-62 60l62 60z" />
    <glyph glyph-name="yehArabic.medi" unicode="&#x64a;" horiz-adv-x="380" arabic-form="medial" 
d="M380 99v-99h-17q-58 0 -101.5 22t-60.5 60q-27 -36 -81.5 -59t-115.5 -23h-4q-9 0 -15 14t-6 35t6 35.5t15 14.5h9q48 0 84.5 12t59.5 36v146h84v-87q0 -55 33 -81t102 -26h8zM192 -136l-62 -60l-62 60l62 60zM320 -136l-62 -60l-62 60l62 60z" />
    <glyph glyph-name="yehArabic.init" unicode="&#x64a;" horiz-adv-x="339" arabic-form="initial" 
d="M0 99h5q56 0 102 8.5t81 24.5q-3 65 -9.5 107t-18.5 89l85 26q20 -77 22 -150t-14 -145q-47 -29 -108.5 -44t-135.5 -15h-9q-9 0 -15 14t-6 35t6 35.5t15 14.5zM191 -136l-62 -60l-62 60l62 60zM319 -136l-62 -60l-62 60l62 60z" />
    <glyph glyph-name="yehHamze.isol" unicode="&#x626;" horiz-adv-x="734" arabic-form="isolated" 
d="M569 -156q-48 -26 -104.5 -40t-115.5 -14q-136 0 -209.5 61.5t-73.5 173.5q0 35 13.5 73.5t37.5 70.5l59 -33q-14 -24 -21 -47.5t-7 -49.5q0 -72 51.5 -110.5t149.5 -38.5q89 0 167.5 32t103.5 74q-3 19 -23.5 35.5t-85.5 45.5q-53 24 -78.5 39t-44.5 30q-30 26 -45 56.5
t-15 67.5q0 75 57 129.5t142 54.5q62 0 115 -36t76 -90l-52 -48q-37 46 -74.5 67t-84.5 21q-44 0 -71 -26t-27 -64q0 -32 26.5 -58t113.5 -65q94 -42 123.5 -72t29.5 -67q0 -46 -36 -92.5t-97 -79.5zM262 346v-56l-209 -31v55l51 9q-10 15 -15 31.5t-5 35.5q0 37 24 59.5
t62 22.5q21 0 40 -6.5t33 -19.5l-17 -42q-13 5 -29 8t-30 3q-9 0 -17.5 -1t-14.5 -4q1 -30 16 -52.5t35 -22.5q6 0 38 5t38 6z" />
    <glyph glyph-name="yehHamze.fina" unicode="&#x626;" horiz-adv-x="781" arabic-form="final" 
d="M143 -10q0 -78 48.5 -119t141.5 -41q96 1 166.5 39t95.5 100q-20 14 -64.5 22.5t-98.5 8.5h-11l24 99h336v-99h-125q5 -9 8 -19t3 -20q0 -44 -34.5 -91.5t-92.5 -82.5q-46 -27 -101 -41.5t-114 -14.5q-124 0 -194.5 63.5t-70.5 174.5q0 61 23.5 129t66.5 134l60 -30
q-33 -61 -50 -115t-17 -97zM307 387v-56l-209 -31v55l51 9q-10 15 -15 31.5t-5 35.5q0 37 24 59.5t62 22.5q21 0 40 -6.5t33 -19.5l-17 -42q-13 5 -29 8t-30 3q-9 0 -17.5 -1t-14.5 -4q1 -30 16 -52.5t35 -22.5q6 0 38 5t38 6z" />
    <glyph glyph-name="yehHamze.medi" unicode="&#x626;" horiz-adv-x="380" arabic-form="medial" 
d="M380 99v-99h-17q-58 0 -101.5 22t-60.5 60q-27 -36 -81.5 -59t-115.5 -23h-4q-9 0 -15 14t-6 35t6 35.5t15 14.5h9q48 0 84.5 12t59.5 36v146h84v-87q0 -55 33 -81t102 -26h8zM299 489v-56l-209 -31v55l51 9q-10 15 -15 31.5t-5 35.5q0 37 24 59.5t62 22.5q21 0 40 -6.5
t33 -19.5l-17 -42q-13 5 -29 8t-30 3q-9 0 -17.5 -1t-14.5 -4q1 -30 16 -52.5t35 -22.5q6 0 38 5t38 6z" />
    <glyph glyph-name="yehHamze.init" unicode="&#x626;" horiz-adv-x="339" arabic-form="initial" 
d="M0 99h5q56 0 102 8.5t81 24.5q-3 65 -9.5 107t-18.5 89l85 26q20 -77 22 -150t-14 -145q-47 -29 -108.5 -44t-135.5 -15h-9q-9 0 -15 14t-6 35t6 35.5t15 14.5zM263 538v-56l-209 -31v55l51 9q-10 15 -15 31.5t-5 35.5q0 37 24 59.5t62 22.5q21 0 40 -6.5t33 -19.5
l-17 -42q-13 5 -29 8t-30 3q-9 0 -17.5 -1t-14.5 -4q1 -30 16 -52.5t35 -22.5q6 0 38 5t38 6z" />
    <glyph glyph-name="alefMaghsureh.isol" unicode="&#x649;" horiz-adv-x="734" arabic-form="isolated" 
d="M569 -156q-48 -26 -104.5 -40t-115.5 -14q-136 0 -209.5 61.5t-73.5 173.5q0 35 13.5 73.5t37.5 70.5l59 -33q-14 -24 -21 -47.5t-7 -49.5q0 -72 51.5 -110.5t149.5 -38.5q89 0 167.5 32t103.5 74q-3 19 -23.5 35.5t-85.5 45.5q-53 24 -78.5 39t-44.5 30q-30 26 -45 56.5
t-15 67.5q0 75 57 129.5t142 54.5q62 0 115 -36t76 -90l-52 -48q-37 46 -74.5 67t-84.5 21q-44 0 -71 -26t-27 -64q0 -32 26.5 -58t113.5 -65q94 -42 123.5 -72t29.5 -67q0 -46 -36 -92.5t-97 -79.5z" />
    <glyph glyph-name="alefMaghsureh.fina" unicode="&#x649;" horiz-adv-x="781" arabic-form="final" 
d="M143 -10q0 -78 48.5 -119t141.5 -41q96 1 166.5 39t95.5 100q-20 14 -64.5 22.5t-98.5 8.5h-11l24 99h336v-99h-125q5 -9 8 -19t3 -20q0 -44 -34.5 -91.5t-92.5 -82.5q-46 -27 -101 -41.5t-114 -14.5q-124 0 -194.5 63.5t-70.5 174.5q0 61 23.5 129t66.5 134l60 -30
q-33 -61 -50 -115t-17 -97z" />
    <glyph glyph-name="yehBaree.isol" unicode="&#x6d2;" horiz-adv-x="621" arabic-form="isolated" 
d="M532 0h-263q-98 0 -156.5 52t-58.5 139q0 90 61 147.5t148 57.5q26 0 52 -6t41 -15l-27 -90q-17 5 -37.5 8t-40.5 3q-53 0 -84.5 -27t-31.5 -72q0 -47 29 -72.5t83 -25.5h294z" />
    <glyph glyph-name="yehBaree.fina" unicode="&#x6d2;" horiz-adv-x="542" arabic-form="final" 
d="M54 -91q0 86 61.5 138t162.5 52h264v-99h-286q-58 0 -88.5 -22.5t-30.5 -65.5q0 -44 28.5 -66.5t83.5 -22.5h256l-5 -100h-228q-105 0 -161.5 48t-56.5 138z" />
    <glyph glyph-name="yehBareeHamzehAbove.isol" unicode="&#x6d3;" horiz-adv-x="621" arabic-form="isolated" 
d="M532 0h-263q-98 0 -156.5 52t-58.5 139q0 90 61 147.5t148 57.5q26 0 52 -6t41 -15l-27 -90q-17 5 -37.5 8t-40.5 3q-53 0 -84.5 -27t-31.5 -72q0 -47 29 -72.5t83 -25.5h294zM359 537v-56l-209 -31v55l51 9q-10 15 -15 31.5t-5 35.5q0 37 24 59.5t62 22.5q21 0 40 -6.5
t33 -19.5l-17 -42q-13 5 -29 8t-30 3q-9 0 -17.5 -1t-14.5 -4q1 -30 16 -52.5t35 -22.5q6 0 38 5t38 6z" />
    <glyph glyph-name="yehBareeHamzehAbove.fina" unicode="&#x6d3;" horiz-adv-x="542" arabic-form="final" 
d="M54 -91q0 86 61.5 138t162.5 52h264v-99h-286q-58 0 -88.5 -22.5t-30.5 -65.5q0 -44 28.5 -66.5t83.5 -22.5h256l-5 -100h-228q-105 0 -161.5 48t-56.5 138zM388 253v-56l-209 -31v55l51 9q-10 15 -15 31.5t-5 35.5q0 37 24 59.5t62 22.5q21 0 40 -6.5t33 -19.5l-17 -42
q-13 5 -29 8t-30 3q-9 0 -17.5 -1t-14.5 -4q1 -30 16 -52.5t35 -22.5q6 0 38 5t38 6z" />
    <glyph glyph-name="tashdid_zamehTanvin.cmps" unicode="&#xfc5e;" arabic-form="isolated" 
d="M127 771q-16 -10 -33 -15.5t-33 -5.5q-18 0 -32 4.5t-25 13.5q-17 -9 -32.5 -13.5t-30.5 -4.5q-33 0 -50 19t-17 56v74h46v-69q0 -16 6 -22t22 -6q9 0 18 2.5t16 6.5q-1 9 -2 18.5t-1 18.5v43h45v-45q0 -23 8 -32t27 -9q7 0 14.5 2t16.5 5q-2 18 -6 36.5t-11 40.5l46 18
q12 -31 14 -66t-6 -70zM-31 1060q0 36 22.5 58.5t57.5 22.5q37 0 59.5 -23.5t22.5 -61.5q0 -52 -39.5 -81.5t-111.5 -29.5h-107v55h122q-12 12 -19 28t-7 32zM54 1006q16 7 24 19t8 30q0 17 -10 27t-27 10q-16 0 -25.5 -9.5t-9.5 -24.5q0 -17 10 -30t30 -22z" />
    <glyph glyph-name="tashdid_fatheh.cmps" unicode="&#xfc60;" arabic-form="isolated" 
d="M127 771q-16 -10 -33 -15.5t-33 -5.5q-18 0 -32 4.5t-25 13.5q-17 -9 -32.5 -13.5t-30.5 -4.5q-33 0 -50 19t-17 56v74h46v-69q0 -16 6 -22t22 -6q9 0 18 2.5t16 6.5q-1 9 -2 18.5t-1 18.5v43h45v-45q0 -23 8 -32t27 -9q7 0 14.5 2t16.5 5q-2 18 -6 36.5t-11 40.5l46 18
q12 -31 14 -66t-6 -70zM105 1023v-56l-209 -31v56z" />
    <glyph glyph-name="tashdid_zameh.cmps" unicode="&#xfc61;" arabic-form="isolated" 
d="M127 771q-16 -10 -33 -15.5t-33 -5.5q-18 0 -32 4.5t-25 13.5q-17 -9 -32.5 -13.5t-30.5 -4.5q-33 0 -50 19t-17 56v74h46v-69q0 -16 6 -22t22 -6q9 0 18 2.5t16 6.5q-1 9 -2 18.5t-1 18.5v43h45v-45q0 -23 8 -32t27 -9q7 0 14.5 2t16.5 5q-2 18 -6 36.5t-11 40.5l46 18
q12 -31 14 -66t-6 -70zM-14 939h-116v51q16 1 24 6t8 13q0 9 -8 14t-24 5v54q33 2 54 -14t21 -44q0 -9 -2.5 -16t-8.5 -14h68q-12 12 -19 27.5t-7 32.5q0 36 22 58.5t57 22.5q37 0 60 -23.5t23 -61.5q0 -52 -40 -81.5t-112 -29.5zM60 1000q16 7 24 19t8 30q0 17 -10 27
t-27 10q-16 0 -25 -9t-9 -25q0 -17 10 -30t29 -22z" />
    <glyph glyph-name="fatheh_tashdid.cmps" unicode="&#xfc62;" arabic-form="isolated" 
d="M105 805v-56l-209 -31v56zM117 894q-16 -10 -33 -15.5t-33 -5.5q-18 0 -32 4.5t-25 13.5q-17 -9 -32.5 -13.5t-30.5 -4.5q-33 0 -50 19t-17 56v74h46v-69q0 -16 6 -22t22 -6q9 0 18 2.5t16 6.5q-1 9 -2 18.5t-1 18.5v43h45v-45q0 -23 8 -32t27 -9q7 0 14.5 2t16.5 5
q-2 18 -6 36.5t-11 40.5l46 18q12 -31 14 -66t-6 -70z" />
    <glyph glyph-name="tashdid_superScriptAlef.cmps" unicode="&#xfc63;" arabic-form="isolated" 
d="M127 771q-16 -10 -33 -15.5t-33 -5.5q-18 0 -32 4.5t-25 13.5q-17 -9 -32.5 -13.5t-30.5 -4.5q-33 0 -50 19t-17 56v74h46v-69q0 -16 6 -22t22 -6q9 0 18 2.5t16 6.5q-1 9 -2 18.5t-1 18.5v43h45v-45q0 -23 8 -32t27 -9q7 0 14.5 2t16.5 5q-2 18 -6 36.5t-11 40.5l46 18
q12 -31 14 -66t-6 -70zM-26 960v153h54v-153h-54z" />
    <glyph glyph-name="fathehTanvin_tashdid.cmps" unicode="&#xfc5f;" arabic-form="isolated" 
d="M105 901v-55l-209 -32v56zM105 805v-56l-209 -31v56zM117 984q-16 -10 -33 -15.5t-33 -5.5q-18 0 -32 4.5t-25 13.5q-17 -9 -32.5 -13.5t-30.5 -4.5q-33 0 -50 19t-17 56v74h46v-69q0 -16 6 -22t22 -6q9 0 18 2.5t16 6.5q-1 9 -2 18.5t-1 18.5v43h45v-45q0 -23 8 -32
t27 -9q7 0 14.5 2t16.5 5q-2 18 -6 36.5t-11 40.5l46 18q12 -31 14 -66t-6 -70z" />
    <glyph glyph-name="rial" unicode="&#xfdfc;" horiz-adv-x="1149" arabic-form="isolated" 
d="M282 382q0 -38 21.5 -57.5t64.5 -19.5q30 0 60 8t62 24v368h83v-316q13 9 28.5 21l46.5 36q25 19 37 28.5t23 17.5v213h83v-160q42 23 82.5 34t80.5 11q26 0 57.5 -5.5t55.5 -14.5l-8 -89q-40 11 -61 14.5t-41 3.5q-39 0 -79.5 -13t-86.5 -40v-264q0 -46 22.5 -64.5
t76.5 -18.5q33 0 61.5 6.5t69.5 26.5q-1 48 -6.5 86t-18.5 90l85 27q18 -73 19 -141t-14 -135q-55 -33 -101 -46t-101 -13q-91 0 -133.5 42.5t-42.5 134.5v213q-53 -40 -86.5 -64.5t-48.5 -33.5v-207q0 -57 -5.5 -109.5t-15.5 -94.5q-51 -40 -122 -64t-142 -24
q-112 0 -175.5 53.5t-63.5 147.5q0 41 14.5 87.5t40.5 90.5l64 -28q-17 -34 -26 -67t-9 -59q0 -62 41.5 -94t122.5 -32q46 0 94 11t87 30q6 35 9 72t3 80v161q-35 -16 -71 -24t-73 -8q-67 0 -107.5 39t-40.5 105q0 37 14 81t41 89l63 -29q-18 -39 -26 -67t-8 -50zM946 -136
l-62 -60l-62 60l62 60zM1075 -136l-62 -60l-63 60l63 60z" />
    <glyph glyph-name=".notdef" horiz-adv-x="682" 
d="M587 0h-492v685h492v-685zM147 638v-591h388v591h-388z" />
    <glyph glyph-name=".null" 
 />
    <glyph glyph-name="CR" unicode="&#xd;" 
 />
    <glyph glyph-name="space" unicode=" " horiz-adv-x="220" 
 />
    <glyph glyph-name="uni00A0" unicode="&#xa0;" horiz-adv-x="220" 
 />
    <glyph glyph-name="A" unicode="A" horiz-adv-x="687" 
d="M668 0h-98l-70 174h-317l-69 -174h-95l279 685h92zM342 570l-125 -312h250z" />
    <glyph glyph-name="B" unicode="B" horiz-adv-x="613" 
d="M298 0h-202v685h197q109 0 171 -47.5t62 -131.5q0 -48 -26 -86t-75 -62q63 -24 97 -67t34 -99q0 -88 -69.5 -140t-188.5 -52zM432 499q0 48 -36 76t-98 28h-109v-208h109q62 0 98 28t36 76zM462 197q0 55 -41.5 85.5t-117.5 30.5h-114v-231h114q76 0 117.5 30t41.5 85z
" />
    <glyph glyph-name="C" unicode="C" horiz-adv-x="671" 
d="M392 608q-104 0 -173.5 -76t-69.5 -190t69.5 -189.5t173.5 -75.5q55 0 102.5 22.5t88.5 68.5l61 -65q-55 -57 -118 -85t-134 -28q-146 0 -243.5 101t-97.5 251q0 151 97.5 252t243.5 101q69 0 130.5 -26.5t111.5 -77.5l-59 -64q-40 40 -86 60.5t-97 20.5z" />
    <glyph glyph-name="D" unicode="D" horiz-adv-x="703" 
d="M266 0h-170v685h170q179 0 282.5 -92t103.5 -251t-103.5 -250.5t-282.5 -91.5zM554 342q0 121 -75 189t-208 68h-80v-514h80q132 0 207.5 68.5t75.5 188.5z" />
    <glyph glyph-name="E" unicode="E" horiz-adv-x="566" 
d="M511 0h-415v685h415v-84h-320v-206h297v-84h-297v-227h320v-84z" />
    <glyph glyph-name="F" unicode="F" horiz-adv-x="545" 
d="M191 0h-95v685h408v-84h-313v-226h290v-84h-290v-291z" />
    <glyph glyph-name="G" unicode="G" horiz-adv-x="752" 
d="M714 319q0 -139 -92.5 -234t-229.5 -95q-146 0 -243.5 101t-97.5 251q0 151 97.5 252t243.5 101q69 0 129.5 -25.5t114.5 -78.5l-61 -64q-40 40 -86 60.5t-97 20.5q-104 0 -173.5 -76t-69.5 -190q0 -113 69.5 -189t173.5 -76q87 0 150 53.5t77 138.5h-241v84h335
q1 -6 1 -13v-21z" />
    <glyph glyph-name="H" unicode="H" horiz-adv-x="738" 
d="M642 0h-95v312h-356v-312h-95v685h95v-289h356v289h95v-685z" />
    <glyph glyph-name="I" unicode="I" horiz-adv-x="287" 
d="M191 0h-95v685h95v-685z" />
    <glyph glyph-name="J" unicode="J" horiz-adv-x="476" 
d="M393 685v-485q0 -102 -51 -156t-146 -54q-51 0 -96 20.5t-82 60.5l59 63q26 -28 56 -43t63 -15q48 0 75 33t27 92v484h95z" />
    <glyph glyph-name="K" unicode="K" horiz-adv-x="644" 
d="M222 307h-31v-307h-95v685h95v-294h30q61 0 92 19.5t71 83.5l117 191h100l-117 -191q-33 -53 -55 -83.5t-42 -50.5l238 -360h-110l-208 315q-17 -4 -37 -6t-48 -2z" />
    <glyph glyph-name="L" unicode="L" horiz-adv-x="514" 
d="M191 84h296v-84h-391v685h95v-601z" />
    <glyph glyph-name="M" unicode="M" horiz-adv-x="939" 
d="M519 0h-98l-186 527l-81 -527h-90l106 685h95l206 -583l205 583h93l106 -685h-90l-80 525z" />
    <glyph glyph-name="N" unicode="N" horiz-adv-x="728" 
d="M632 0h-92l-356 534v-534h-88v685h92l356 -534v534h88v-685z" />
    <glyph glyph-name="O" unicode="O" horiz-adv-x="784" 
d="M392 -10q-146 0 -243.5 101t-97.5 251q0 151 97.5 252t243.5 101t243.5 -101t97.5 -252q0 -150 -97.5 -251t-243.5 -101zM392 77q104 0 173.5 75.5t69.5 189.5t-69.5 190t-173.5 76t-173.5 -76t-69.5 -190t69.5 -189.5t173.5 -75.5z" />
    <glyph glyph-name="P" unicode="P" horiz-adv-x="585" 
d="M189 0h-93v685h195q119 0 185.5 -56.5t66.5 -156.5q0 -98 -68 -155.5t-184 -57.5h-102v-259zM447 472q0 61 -40 95t-113 34h-105v-258h105q74 0 113.5 33.5t39.5 95.5z" />
    <glyph glyph-name="Q" unicode="Q" horiz-adv-x="784" 
d="M635 90l98 -115l-65 -56l-101 118q-38 -23 -82.5 -35t-92.5 -12q-146 0 -243.5 101t-97.5 251q0 151 97.5 252t243.5 101t243.5 -101t97.5 -252q0 -73 -25.5 -138t-72.5 -114zM392 608q-104 0 -173.5 -76t-69.5 -190t69.5 -189.5t173.5 -75.5q31 0 60 7.5t56 22.5
l-110 129l65 56l111 -130q30 36 45.5 82.5t15.5 97.5q0 114 -69.5 190t-173.5 76z" />
    <glyph glyph-name="R" unicode="R" horiz-adv-x="610" 
d="M189 0h-93v685h211q104 0 167.5 -54t63.5 -143q0 -65 -35 -113.5t-95 -70.5l170 -304h-103l-160 285h-126v-285zM442 485q0 52 -35.5 84t-94.5 32h-123v-232h123q60 0 95 31.5t35 84.5z" />
    <glyph glyph-name="S" unicode="S" horiz-adv-x="566" 
d="M288 611q-56 0 -90 -26.5t-34 -72.5q0 -42 31.5 -69t140.5 -63q99 -32 142.5 -78.5t43.5 -115.5q0 -84 -64 -140t-160 -56q-76 0 -141.5 28.5t-117.5 83.5l54 65q45 -48 95.5 -71t109.5 -23q57 0 93.5 31t36.5 79q0 40 -29.5 66t-116.5 55q-123 41 -167 87t-44 119
q0 82 61 133.5t155 51.5q61 0 114.5 -23t100.5 -69l-55 -65q-41 38 -79.5 55.5t-79.5 17.5z" />
    <glyph glyph-name="T" unicode="T" horiz-adv-x="553" 
d="M229 601h-209v84h513v-84h-209v-601h-95v601z" />
    <glyph glyph-name="U" unicode="U" horiz-adv-x="680" 
d="M598 685v-419q0 -127 -69.5 -201.5t-188.5 -74.5t-188.5 74t-69.5 202v419h95v-417q0 -91 43 -141.5t120 -50.5t120 50.5t43 141.5v417h95z" />
    <glyph glyph-name="V" unicode="V" horiz-adv-x="640" 
d="M526 685h95l-255 -685h-92l-255 685h99l204 -568z" />
    <glyph glyph-name="W" unicode="W" horiz-adv-x="978" 
d="M701 0h-88l-124 339l-128 -339h-92l-250 685h98l201 -564l123 333l-84 231h95l43 -121l46 121h88l-87 -230l117 -329l210 559h90z" />
    <glyph glyph-name="X" unicode="X" horiz-adv-x="645" 
d="M621 0h-110l-192 280l-192 -280h-103l243 355l-226 330h110l175 -256l175 256h103l-226 -331z" />
    <glyph glyph-name="Y" unicode="Y" horiz-adv-x="601" 
d="M487 685h99l-238 -392v-293h-95v295l-238 390h105l184 -303z" />
    <glyph glyph-name="Z" unicode="Z" horiz-adv-x="570" 
d="M155 83h373v-83h-487v70l364 531h-351v84h464v-71z" />
    <glyph glyph-name="AE" unicode="&#xc6;" horiz-adv-x="884" 
d="M634 84h195v-84h-259l-70 174h-317l-69 -174h-95l279 685h531v-84h-405l84 -206h297v-84h-263zM342 570l-125 -312h250z" />
    <glyph glyph-name="OE" unicode="&#x152;" horiz-adv-x="982" 
d="M51 342q0 159 103.5 251t282.5 92h490v-84h-320v-206h297v-84h-297v-227h320v-84h-490q-179 0 -282.5 91.5t-103.5 250.5zM149 342q0 -121 75.5 -190t207.5 -69h80v518h-80q-133 0 -208 -69t-75 -190z" />
    <glyph glyph-name="Lslash" unicode="&#x141;" horiz-adv-x="538" 
d="M215 84h296v-84h-391v281l-80 -33l-32 75l112 46v316h95v-277l143 59l32 -75l-175 -72v-236z" />
    <glyph glyph-name="Oslash" unicode="&#xd8;" horiz-adv-x="784" 
d="M733 342q0 -150 -97.5 -251t-243.5 -101q-56 0 -107.5 16.5t-94.5 48.5l-77 -85l-62 56l78 87q-38 46 -58 105t-20 124q0 151 97.5 252t243.5 101q56 0 107 -16.5t95 -48.5l77 85l62 -57l-78 -87q38 -46 58 -105t20 -124zM392 608q-104 0 -173.5 -76t-69.5 -190
q0 -44 11.5 -84t33.5 -74l339 378q-30 23 -66 34.5t-75 11.5zM392 77q104 0 173.5 75.5t69.5 189.5q0 44 -11.5 84t-33.5 74l-339 -377q30 -23 66 -34.5t75 -11.5z" />
    <glyph glyph-name="Eth" unicode="&#xd0;" horiz-adv-x="726" 
d="M16 301v84h103v300h170q179 0 282.5 -92t103.5 -251t-103.5 -250.5t-282.5 -91.5h-170v301h-103zM386 385v-84h-172v-216h80q132 0 207.5 68.5t75.5 188.5q0 121 -75 189t-208 68h-80v-214h172z" />
    <glyph glyph-name="Thorn" unicode="&#xde;" horiz-adv-x="588" 
d="M543 341q0 -97 -68 -154.5t-184 -57.5h-102v-129h-93v685h93v-131h102q119 0 185.5 -56t66.5 -157zM447 341q0 62 -40 95.5t-113 33.5h-105v-257h105q73 0 113 33.5t40 94.5z" />
    <glyph glyph-name="uni0191" unicode="&#x191;" horiz-adv-x="519" 
d="M26 -127q33 0 52 25.5t19 69.5v717h381v-84h-287v-226h267v-84h-267v-331q0 -78 -43 -124t-116 -46q-32 0 -64.5 12.5t-58.5 35.5l49 64q17 -14 34.5 -21.5t33.5 -7.5z" />
    <glyph glyph-name="uni1E9E" unicode="&#x1e9e;" horiz-adv-x="689" 
d="M647 213q0 -98 -61.5 -160.5t-157.5 -62.5q-53 0 -100.5 16.5t-92.5 50.5l49 70q36 -26 69 -38.5t69 -12.5q58 0 94 38.5t36 100.5q0 73 -45.5 111.5t-133.5 38.5l-32 63l134 159q-30 13 -67 20t-72 7q-80 0 -121.5 -51.5t-41.5 -149.5v-413h-91v415q0 133 67 206.5
t188 73.5q45 0 97.5 -11t99.5 -29l37 -77l-125 -145q96 -12 148.5 -69.5t52.5 -150.5z" />
    <glyph glyph-name="a" unicode="a" horiz-adv-x="584" 
d="M506 0h-78l-11 65q-28 -36 -67 -55.5t-85 -19.5q-94 0 -156.5 67t-62.5 167q0 101 62.5 168t156.5 67q46 0 85 -19.5t67 -55.5l11 65h78v-449zM137 224q0 -65 40.5 -109t101.5 -44t102 44t41 109q0 66 -41 110t-102 44t-101.5 -44t-40.5 -110z" />
    <glyph glyph-name="b" unicode="b" horiz-adv-x="584" 
d="M319 459q94 0 156.5 -67t62.5 -168q0 -100 -62.5 -167t-156.5 -67q-46 0 -85 19.5t-67 55.5l-11 -65h-78v705h91v-318q28 35 66.5 53.5t83.5 18.5zM305 378q-61 0 -102 -44t-41 -110q0 -65 41 -109t102 -44t101.5 44t40.5 109q0 66 -40.5 110t-101.5 44z" />
    <glyph glyph-name="c" unicode="c" horiz-adv-x="481" 
d="M279 378q-61 0 -101.5 -44t-40.5 -110q0 -65 40.5 -109t101.5 -44q33 0 63 13.5t56 39.5l58 -60q-36 -37 -80 -55.5t-97 -18.5q-100 0 -166.5 66.5t-66.5 167.5t66.5 168t166.5 67q47 0 89.5 -17t77.5 -49l-58 -60q-26 23 -53 34t-56 11z" />
    <glyph glyph-name="d" unicode="d" horiz-adv-x="584" 
d="M506 0h-78l-11 65q-28 -36 -67 -55.5t-85 -19.5q-94 0 -156.5 67t-62.5 167q0 101 62.5 168t156.5 67q45 0 83.5 -18.5t66.5 -53.5v318h91v-705zM137 224q0 -65 40.5 -109t101.5 -44t102 44t41 109q0 66 -41 110t-102 44t-101.5 -44t-40.5 -110z" />
    <glyph glyph-name="e" unicode="e" horiz-adv-x="530" 
d="M406 120l54 -60q-38 -35 -83 -52.5t-98 -17.5q-98 0 -166 68t-68 166q0 99 65 167t159 68t159 -68t65 -167q0 -9 -1 -18.5t-2 -18.5h-352q11 -52 50.5 -85t89.5 -33q37 0 68.5 12.5t59.5 38.5zM269 380q-47 0 -83 -32t-47 -83h262q-11 51 -48 83t-84 32z" />
    <glyph glyph-name="f" unicode="f" horiz-adv-x="364" 
d="M349 449v-79h-143v-370h-91v370h-97v74l90 5l-4 10q-13 34 -18.5 57.5t-5.5 43.5q0 70 45 112.5t119 42.5q35 0 71.5 -13.5t67.5 -37.5l-44 -64q-18 15 -40 24t-43 9q-38 0 -61.5 -24.5t-23.5 -63.5q0 -15 5 -35t18 -56l2 -5h153z" />
    <glyph glyph-name="g" unicode="g" horiz-adv-x="587" 
d="M547 6q0 -95 -72.5 -155.5t-187.5 -60.5q-67 0 -129 22.5t-112 65.5l47 67q44 -37 92 -56t99 -19q77 0 125 39t48 102q0 20 -4 38t-14 40q-27 -47 -71 -73t-97 -26q-94 0 -156.5 67t-62.5 167q0 101 62.5 168t156.5 67q46 0 85 -19.5t67 -55.5l11 65h78v-306l8 -17
q13 -27 20 -59t7 -61zM143 224q0 -65 40.5 -109t101.5 -44t102 44t41 109q0 66 -41 110t-102 44t-101.5 -44t-40.5 -110z" />
    <glyph glyph-name="h" unicode="h" horiz-adv-x="558" 
d="M294 376q-35 0 -67.5 -21.5t-57.5 -61.5v-293h-91v705h91v-324q28 37 67 57.5t81 20.5q80 0 125.5 -52t45.5 -144v-263h-90v252q0 58 -27.5 91t-76.5 33z" />
    <glyph glyph-name="i" unicode="i" horiz-adv-x="247" 
d="M123 654q25 0 42.5 -17.5t17.5 -42.5t-17.5 -42.5t-42.5 -17.5q-24 0 -41.5 17.5t-17.5 42.5t17.5 42.5t41.5 17.5zM78 449h91v-449h-91v449z" />
    <glyph glyph-name="j" unicode="j" horiz-adv-x="251" 
d="M127 654q25 0 42.5 -17.5t17.5 -42.5t-17.5 -42.5t-42.5 -17.5t-42.5 17.5t-17.5 42.5t17.5 42.5t42.5 17.5zM11 -127q32 0 51 25.5t19 69.5v481h92v-489q0 -78 -42 -124t-114 -46q-33 0 -65.5 13t-57.5 35l48 64q18 -14 35.5 -21.5t33.5 -7.5z" />
    <glyph glyph-name="k" unicode="k" horiz-adv-x="520" 
d="M199 189h-30v-189h-91v705h91v-433h30q54 0 83.5 18.5t51.5 64.5l44 94h95l-44 -93q-20 -43 -39.5 -72t-40.5 -48l153 -236h-106l-124 196q-15 -4 -33 -5.5t-40 -1.5z" />
    <glyph glyph-name="l" unicode="l" horiz-adv-x="247" 
d="M78 705h91v-705h-91v705z" />
    <glyph glyph-name="m" unicode="m" horiz-adv-x="859" 
d="M289 377q-34 0 -65 -21.5t-55 -62.5v-293h-91v449h78l13 -69q27 37 65 58t78 21q51 0 90 -24t59 -67q30 43 73 67t88 24q79 0 123 -51.5t44 -144.5v-263h-91v252q0 59 -26 92t-73 33q-36 0 -66 -23.5t-54 -69.5v-284h-91v252q0 59 -26 92t-73 33z" />
    <glyph glyph-name="n" unicode="n" horiz-adv-x="559" 
d="M294 376q-35 0 -67.5 -21.5t-57.5 -61.5v-293h-91v449h78l13 -69q28 37 67 58t81 21q81 0 126.5 -52t45.5 -144v-263h-91v252q0 58 -27.5 91t-76.5 33z" />
    <glyph glyph-name="o" unicode="o" horiz-adv-x="558" 
d="M279 459q100 0 166.5 -67t66.5 -168t-66.5 -167.5t-166.5 -66.5t-166.5 66.5t-66.5 167.5t66.5 168t166.5 67zM279 378q-61 0 -101.5 -44t-40.5 -110q0 -65 40.5 -109t101.5 -44t101.5 43.5t40.5 109.5t-40.5 110t-101.5 44z" />
    <glyph glyph-name="p" unicode="p" horiz-adv-x="584" 
d="M538 225q0 -101 -62.5 -168t-156.5 -67q-45 0 -83.5 18.5t-66.5 53.5v-262h-91v649h78l11 -65q28 36 67 55.5t85 19.5q94 0 156.5 -67t62.5 -167zM305 378q-61 0 -102 -44t-41 -109q0 -66 41 -110t102 -44t101.5 44t40.5 110q0 65 -40.5 109t-101.5 44z" />
    <glyph glyph-name="q" unicode="q" horiz-adv-x="584" 
d="M428 449h78v-649h-91v262q-28 -35 -66.5 -53.5t-83.5 -18.5q-94 0 -156.5 67t-62.5 168q0 100 62.5 167t156.5 67q46 0 85 -19.5t67 -55.5zM137 225q0 -66 40.5 -110t101.5 -44t102 44t41 110q0 65 -41 109t-102 44t-101.5 -44t-40.5 -109z" />
    <glyph glyph-name="r" unicode="r" horiz-adv-x="358" 
d="M294 363q-39 0 -70.5 -17.5t-54.5 -51.5v-294h-91v449h78l13 -68q28 37 65 57.5t77 20.5q11 0 20 -1t16 -3l-21 -96q-7 2 -15.5 3t-16.5 1z" />
    <glyph glyph-name="s" unicode="s" horiz-adv-x="423" 
d="M204 190q-79 23 -113 56t-34 87q0 56 43.5 91t113.5 35q43 0 82.5 -13.5t71.5 -39.5l-46 -64q-23 20 -52.5 32t-56.5 12q-32 0 -51 -14t-19 -37q0 -24 21.5 -39t81.5 -32q70 -20 103.5 -53.5t33.5 -84.5q0 -62 -46.5 -99t-123.5 -37q-50 0 -94.5 17t-84.5 51l47 64
q31 -29 63.5 -43.5t68.5 -14.5q38 0 61 16.5t23 43.5q0 23 -19 36.5t-74 29.5z" />
    <glyph glyph-name="t" unicode="t" horiz-adv-x="416" 
d="M116 370h-94v74l94 5h4l12 128h75v-128h155v-79h-155v-215q0 -38 18.5 -60.5t49.5 -22.5q18 0 36.5 8.5t35.5 25.5l46 -62q-26 -26 -59 -40t-69 -14q-70 0 -109.5 43.5t-39.5 120.5v216z" />
    <glyph glyph-name="u" unicode="u" horiz-adv-x="551" 
d="M473 0h-78l-13 64q-27 -35 -65.5 -54.5t-79.5 -19.5q-79 0 -123 49.5t-44 138.5v271h91v-260q0 -55 26 -85.5t73 -30.5q34 0 65.5 20t55.5 58v298h92v-449z" />
    <glyph glyph-name="v" unicode="v" horiz-adv-x="487" 
d="M380 449h91l-182 -449h-91l-182 449h96l134 -346z" />
    <glyph glyph-name="w" unicode="w" horiz-adv-x="761" 
d="M561 0h-93l-87 206l-88 -206h-94l-190 449h93l151 -361l86 204l-66 157h83l30 -70l29 70h79l-64 -152l84 -202l149 354h89z" />
    <glyph glyph-name="x" unicode="x" horiz-adv-x="480" 
d="M462 0h-108l-119 165l-119 -165h-98l168 232l-157 217h108l107 -148l108 148h98l-157 -216z" />
    <glyph glyph-name="y" unicode="y" horiz-adv-x="552" 
d="M503 6q0 -94 -68.5 -155t-171.5 -61q-61 0 -117 18.5t-102 54.5l44 68q40 -31 81.5 -46t86.5 -15q69 0 113 39.5t44 101.5q0 21 -4 40.5t-13 39.5q-27 -47 -70.5 -74t-92.5 -27q-79 0 -123 49.5t-44 138.5v271h91v-260q0 -55 26 -85.5t73 -30.5q34 0 65.5 20t55.5 58v298
h92v-306l8 -17q13 -26 19.5 -57.5t6.5 -62.5z" />
    <glyph glyph-name="z" unicode="z" horiz-adv-x="448" 
d="M150 79h260v-79h-373v66l248 304h-238v79h353v-63z" />
    <glyph glyph-name="ae" unicode="&#xe6;" horiz-adv-x="911" 
d="M787 120l54 -60q-38 -35 -81.5 -52.5t-93.5 -17.5q-51 0 -94 20t-73 58l-9 -68h-63l-9 67q-28 -37 -67.5 -57t-85.5 -20q-94 0 -156.5 67t-62.5 167q0 101 62.5 168t156.5 67q46 0 85.5 -20t67.5 -57l9 67h63l9 -67q29 37 70 57t87 20q92 0 155 -68t63 -167
q0 -9 -0.5 -18t-2.5 -18h-352q12 -52 52.5 -85.5t93.5 -33.5q34 0 63.5 12.5t58.5 38.5zM656 380q-49 0 -86.5 -32t-49.5 -83h262q-11 51 -46 83t-80 32zM137 224q0 -65 40.5 -109t101.5 -44t102 44t41 109q0 66 -41 110t-102 44t-101.5 -44t-40.5 -110z" />
    <glyph glyph-name="oe" unicode="&#x153;" horiz-adv-x="907" 
d="M774 120l54 -60q-38 -35 -83 -52.5t-98 -17.5q-55 0 -103.5 26t-79.5 72q-31 -47 -79.5 -72.5t-105.5 -25.5q-100 0 -166.5 66.5t-66.5 167.5t66.5 168t166.5 67q57 0 105 -25.5t79 -71.5q30 46 75.5 71.5t98.5 25.5q94 0 159 -68t65 -167q0 -9 -0.5 -18t-2.5 -18h-352
q11 -52 50.5 -85.5t89.5 -33.5q37 0 68.5 12.5t59.5 38.5zM637 380q-47 0 -83 -32t-47 -83h262q-11 51 -48 83t-84 32zM279 378q-61 0 -101.5 -44t-40.5 -110q0 -65 40.5 -109t101.5 -44t101.5 43.5t40.5 109.5t-40.5 110t-101.5 44z" />
    <glyph glyph-name="lslash" unicode="&#x142;" horiz-adv-x="308" 
d="M275 465l36 -71l-113 -55v-339h-91v295l-75 -36l-35 71l110 53v322h91v-277z" />
    <glyph glyph-name="oslash" unicode="&#xf8;" horiz-adv-x="558" 
d="M512 224q0 -101 -66.5 -167.5t-166.5 -66.5q-35 0 -67 8.5t-59 25.5l-60 -67l-58 51l60 68q-24 31 -36.5 68.5t-12.5 79.5q0 101 66.5 168t166.5 67q35 0 67 -9t59 -26l60 68l58 -52l-60 -67q24 -31 36.5 -69t12.5 -80zM279 378q-61 0 -101.5 -44t-40.5 -110q0 -21 5 -41
t14 -38l192 215q-15 9 -32 13.5t-37 4.5zM279 71q61 0 101.5 43.5t40.5 109.5q0 22 -5 42t-14 38l-192 -215q15 -9 32.5 -13.5t36.5 -4.5z" />
    <glyph glyph-name="eth" unicode="&#xf0;" horiz-adv-x="559" 
d="M513 263q0 -126 -63 -199.5t-171 -73.5q-100 0 -166.5 67t-66.5 167q0 102 63.5 168.5t159.5 66.5q45 0 85 -19.5t68 -54.5q-14 53 -37.5 94.5t-58.5 73.5l-53 -60l-49 43l50 56q-23 15 -51.5 26.5t-63.5 21.5l20 65q39 -9 75 -24t68 -35l61 69l49 -43l-58 -65
q68 -61 103.5 -149t35.5 -195zM279 378q-61 0 -101.5 -44t-40.5 -110q0 -65 40.5 -109t101.5 -44t102 43.5t41 108.5q0 67 -40.5 111t-102.5 44z" />
    <glyph glyph-name="thorn" unicode="&#xfe;" horiz-adv-x="584" 
d="M538 224q0 -100 -62.5 -167t-156.5 -67q-45 0 -84 19t-66 54v-263h-91v905h91v-319q27 35 66 54t84 19q94 0 156.5 -67t62.5 -168zM304 377q-61 0 -101.5 -44t-40.5 -109t41 -109t101 -44q61 0 102 44t41 109q0 66 -40.5 109.5t-102.5 43.5z" />
    <glyph glyph-name="uni0192" unicode="&#x192;" horiz-adv-x="364" 
d="M349 449v-79h-143v-407q0 -80 -43.5 -126.5t-117.5 -46.5q-33 0 -65.5 13t-59.5 37l49 63q19 -16 37.5 -24t35.5 -8q34 0 53.5 26.5t19.5 72.5v400h-97v74l90 5l-4 10q-13 34 -18.5 57.5t-5.5 43.5q0 70 45 112.5t119 42.5q35 0 71.5 -13.5t67.5 -37.5l-44 -64
q-18 15 -40 24t-43 9q-38 0 -61.5 -24.5t-23.5 -63.5q0 -15 5 -35t18 -56l2 -5h153z" />
    <glyph glyph-name="germandbls" unicode="&#xdf;" horiz-adv-x="640" 
d="M418 407q83 -14 130.5 -68t47.5 -138q0 -91 -57.5 -151t-145.5 -60q-41 0 -75 11.5t-69 37.5l39 67q24 -18 48.5 -27.5t47.5 -9.5q53 0 86 37t33 96q0 65 -44 104t-120 42l-18 59q34 26 50 55.5t16 66.5q0 47 -30 76.5t-78 29.5q-47 0 -76.5 -26.5t-29.5 -67.5
q0 -18 5.5 -39.5t17.5 -49.5l10 -23v-429h-91v370h-95v74l89 5l-4 10q-12 32 -18 56t-6 42q0 70 54 114t141 44q90 0 144 -47.5t54 -126.5q0 -42 -14.5 -76t-41.5 -58z" />
    <glyph glyph-name="dotlessi" unicode="&#x131;" horiz-adv-x="247" 
d="M78 449h91v-449h-91v449z" />
    <glyph glyph-name="dotlessj" unicode="&#x237;" horiz-adv-x="248" 
d="M8 -127q32 0 51 25.5t19 69.5v481h92v-489q0 -78 -42 -124t-114 -46q-33 0 -65.5 13t-57.5 35l48 64q18 -14 35.5 -21.5t33.5 -7.5z" />
    <glyph glyph-name="Aacute" unicode="&#xc1;" horiz-adv-x="687" 
d="M668 0h-98l-70 174h-317l-69 -174h-95l279 685h92zM342 570l-125 -312h250zM275 749l-34 51l169 130l46 -73z" />
    <glyph glyph-name="Acircumflex" unicode="&#xc2;" horiz-adv-x="687" 
d="M668 0h-98l-70 174h-317l-69 -174h-95l279 685h92zM342 570l-125 -312h250zM345 927l156 -132l-39 -48l-118 88l-117 -88l-39 48z" />
    <glyph glyph-name="Adieresis" unicode="&#xc4;" horiz-adv-x="687" 
d="M668 0h-98l-70 174h-317l-69 -174h-95l279 685h92zM342 570l-125 -312h250zM254 887q22 0 38 -16t16 -38t-16 -38t-38 -16t-38.5 16t-16.5 38t16.5 38t38.5 16zM435 887q22 0 38.5 -16t16.5 -38t-16.5 -38t-38.5 -16t-38 16t-16 38t16 38t38 16z" />
    <glyph glyph-name="Agrave" unicode="&#xc0;" horiz-adv-x="687" 
d="M668 0h-98l-70 174h-317l-69 -174h-95l279 685h92zM342 570l-125 -312h250zM281 930l169 -130l-33 -51l-182 108z" />
    <glyph glyph-name="Aring" unicode="&#xc5;" horiz-adv-x="687" 
d="M668 0h-98l-70 174h-317l-69 -174h-95l279 685h92zM342 570l-125 -312h250zM345 736q-45 0 -76.5 30.5t-31.5 73.5t31.5 73.5t76.5 30.5q44 0 75.5 -30.5t31.5 -73.5t-31.5 -73.5t-75.5 -30.5zM345 789q21 0 35 15t14 36t-14 36t-35 15t-35.5 -14.5t-14.5 -36.5
t14.5 -36.5t35.5 -14.5z" />
    <glyph glyph-name="Atilde" unicode="&#xc3;" horiz-adv-x="687" 
d="M668 0h-98l-70 174h-317l-69 -174h-95l279 685h92zM342 570l-125 -312h250zM439 895l58 -26q-19 -48 -42 -70.5t-53 -22.5q-14 0 -28.5 4.5t-39.5 19.5q-18 11 -26.5 14t-15.5 3q-15 0 -24.5 -9.5t-19.5 -32.5l-58 27q18 45 41.5 66t54.5 21q14 0 28 -4.5t38 -19.5
q19 -11 28 -14t16 -3q14 0 23.5 10.5t19.5 36.5z" />
    <glyph glyph-name="Abreve" unicode="&#x102;" horiz-adv-x="687" 
d="M668 0h-98l-70 174h-317l-69 -174h-95l279 685h92zM342 570l-125 -312h250zM286 898v-10q0 -34 15.5 -53t43.5 -19t43 18.5t15 52.5v11h72v-21q0 -56 -36.5 -91.5t-93.5 -35.5q-58 0 -94.5 36t-36.5 92v20h72z" />
    <glyph glyph-name="Amacron" unicode="&#x100;" horiz-adv-x="687" 
d="M668 0h-98l-70 174h-317l-69 -174h-95l279 685h92zM342 570l-125 -312h250zM218 861h253v-71h-253v71z" />
    <glyph glyph-name="Aogonek" unicode="&#x104;" horiz-adv-x="687" 
d="M657 -134l20 -56q-15 -7 -31 -10.5t-33 -3.5q-44 0 -70 23t-26 63q0 32 18.5 63t52.5 55h-18l-70 174h-317l-69 -174h-95l279 685h92l278 -685q-36 -21 -56 -47.5t-20 -53.5q0 -18 9.5 -28.5t26.5 -10.5q8 0 15 1.5t14 4.5zM342 570l-125 -312h250z" />
    <glyph glyph-name="Ccedilla" unicode="&#xc7;" horiz-adv-x="671" 
d="M477 -129q0 -38 -28.5 -61.5t-73.5 -23.5q-24 0 -44.5 4.5t-42.5 15.5l18 53q17 -8 31.5 -12t27.5 -4q17 0 27 8.5t10 21.5q0 15 -10.5 22.5t-32.5 7.5l-34 33l18 57q-128 17 -210 115t-82 234q0 151 97.5 252t243.5 101q69 0 130.5 -26.5t111.5 -77.5l-59 -64
q-40 40 -86 60.5t-97 20.5q-104 0 -173.5 -76t-69.5 -190t69.5 -189.5t173.5 -75.5q55 0 102.5 22.5t88.5 68.5l61 -65q-53 -54 -113.5 -82.5t-128.5 -30.5l-12 -36q41 -4 64 -25.5t23 -57.5z" />
    <glyph glyph-name="Cacute" unicode="&#x106;" horiz-adv-x="671" 
d="M392 608q-104 0 -173.5 -76t-69.5 -190t69.5 -189.5t173.5 -75.5q55 0 102.5 22.5t88.5 68.5l61 -65q-55 -57 -118 -85t-134 -28q-146 0 -243.5 101t-97.5 251q0 151 97.5 252t243.5 101q69 0 130.5 -26.5t111.5 -77.5l-59 -64q-40 40 -86 60.5t-97 20.5zM308 749l-34 51
l169 130l46 -73z" />
    <glyph glyph-name="Ccaron" unicode="&#x10c;" horiz-adv-x="671" 
d="M392 608q-104 0 -173.5 -76t-69.5 -190t69.5 -189.5t173.5 -75.5q55 0 102.5 22.5t88.5 68.5l61 -65q-55 -57 -118 -85t-134 -28q-146 0 -243.5 101t-97.5 251q0 151 97.5 252t243.5 101q69 0 130.5 -26.5t111.5 -77.5l-59 -64q-40 40 -86 60.5t-97 20.5zM497 927l39 -48
l-156 -132l-157 132l39 48l118 -88z" />
    <glyph glyph-name="Ccircumflex" unicode="&#x108;" horiz-adv-x="671" 
d="M392 608q-104 0 -173.5 -76t-69.5 -190t69.5 -189.5t173.5 -75.5q55 0 102.5 22.5t88.5 68.5l61 -65q-55 -57 -118 -85t-134 -28q-146 0 -243.5 101t-97.5 251q0 151 97.5 252t243.5 101q69 0 130.5 -26.5t111.5 -77.5l-59 -64q-40 40 -86 60.5t-97 20.5zM380 927
l156 -132l-39 -48l-118 88l-117 -88l-39 48z" />
    <glyph glyph-name="Cdotaccent" unicode="&#x10a;" horiz-adv-x="671" 
d="M392 608q-104 0 -173.5 -76t-69.5 -190t69.5 -189.5t173.5 -75.5q55 0 102.5 22.5t88.5 68.5l61 -65q-55 -57 -118 -85t-134 -28q-146 0 -243.5 101t-97.5 251q0 151 97.5 252t243.5 101q69 0 130.5 -26.5t111.5 -77.5l-59 -64q-40 40 -86 60.5t-97 20.5zM381 896
q24 0 42 -18.5t18 -42.5q0 -25 -17.5 -43t-42.5 -18t-43 18t-18 43q0 24 18.5 42.5t42.5 18.5z" />
    <glyph glyph-name="Dcaron" unicode="&#x10e;" horiz-adv-x="703" 
d="M266 0h-170v685h170q179 0 282.5 -92t103.5 -251t-103.5 -250.5t-282.5 -91.5zM554 342q0 121 -75 189t-208 68h-80v-514h80q132 0 207.5 68.5t75.5 188.5zM437 927l39 -48l-156 -132l-157 132l39 48l118 -88z" />
    <glyph glyph-name="Dcroat" unicode="&#x110;" horiz-adv-x="726" 
d="M16 301v84h103v300h170q179 0 282.5 -92t103.5 -251t-103.5 -250.5t-282.5 -91.5h-170v301h-103zM386 385v-84h-172v-216h80q132 0 207.5 68.5t75.5 188.5q0 121 -75 189t-208 68h-80v-214h172z" />
    <glyph glyph-name="Eacute" unicode="&#xc9;" horiz-adv-x="566" 
d="M511 0h-415v685h415v-84h-320v-206h297v-84h-297v-227h320v-84zM216 749l-34 51l169 130l46 -73z" />
    <glyph glyph-name="Ecircumflex" unicode="&#xca;" horiz-adv-x="566" 
d="M511 0h-415v685h415v-84h-320v-206h297v-84h-297v-227h320v-84zM285 927l156 -132l-39 -48l-118 88l-117 -88l-39 48z" />
    <glyph glyph-name="Edieresis" unicode="&#xcb;" horiz-adv-x="566" 
d="M511 0h-415v685h415v-84h-320v-206h297v-84h-297v-227h320v-84zM194 887q22 0 38 -16t16 -38t-16 -38t-38 -16t-38.5 16t-16.5 38t16.5 38t38.5 16zM375 887q22 0 38.5 -16t16.5 -38t-16.5 -38t-38.5 -16t-38 16t-16 38t16 38t38 16z" />
    <glyph glyph-name="Egrave" unicode="&#xc8;" horiz-adv-x="566" 
d="M511 0h-415v685h415v-84h-320v-206h297v-84h-297v-227h320v-84zM223 930l169 -130l-33 -51l-182 108z" />
    <glyph glyph-name="Ebreve" unicode="&#x114;" horiz-adv-x="566" 
d="M511 0h-415v685h415v-84h-320v-206h297v-84h-297v-227h320v-84zM226 898v-10q0 -34 15.5 -53t43.5 -19t43 18.5t15 52.5v11h72v-21q0 -56 -36.5 -91.5t-93.5 -35.5q-58 0 -94.5 36t-36.5 92v20h72z" />
    <glyph glyph-name="Ecaron" unicode="&#x11a;" horiz-adv-x="566" 
d="M511 0h-415v685h415v-84h-320v-206h297v-84h-297v-227h320v-84zM402 927l39 -48l-156 -132l-157 132l39 48l118 -88z" />
    <glyph glyph-name="Edotaccent" unicode="&#x116;" horiz-adv-x="566" 
d="M511 0h-415v685h415v-84h-320v-206h297v-84h-297v-227h320v-84zM285 896q24 0 42 -18.5t18 -42.5q0 -25 -17.5 -43t-42.5 -18t-43 18t-18 43q0 24 18.5 42.5t42.5 18.5z" />
    <glyph glyph-name="Emacron" unicode="&#x112;" horiz-adv-x="566" 
d="M511 0h-415v685h415v-84h-320v-206h297v-84h-297v-227h320v-84zM158 861h253v-71h-253v71z" />
    <glyph glyph-name="Eogonek" unicode="&#x118;" horiz-adv-x="566" 
d="M471 -134l20 -56q-15 -7 -31 -10.5t-33 -3.5q-44 0 -70 23t-26 63q0 32 18.5 63t52.5 55h-306v685h415v-84h-320v-206h297v-84h-297v-227h320v-84h-29q-36 -21 -56 -47.5t-20 -53.5q0 -18 9.5 -28.5t26.5 -10.5q8 0 15 1.5t14 4.5z" />
    <glyph glyph-name="Gbreve" unicode="&#x11e;" horiz-adv-x="752" 
d="M714 319q0 -139 -92.5 -234t-229.5 -95q-146 0 -243.5 101t-97.5 251q0 151 97.5 252t243.5 101q69 0 129.5 -25.5t114.5 -78.5l-61 -64q-40 40 -86 60.5t-97 20.5q-104 0 -173.5 -76t-69.5 -190q0 -113 69.5 -189t173.5 -76q87 0 150 53.5t77 138.5h-241v84h335
q1 -6 1 -13v-21zM323 898v-10q0 -34 15.5 -53t43.5 -19t43 18.5t15 52.5v11h72v-21q0 -56 -36.5 -91.5t-93.5 -35.5q-58 0 -94.5 36t-36.5 92v20h72z" />
    <glyph glyph-name="Gcircumflex" unicode="&#x11c;" horiz-adv-x="752" 
d="M714 319q0 -139 -92.5 -234t-229.5 -95q-146 0 -243.5 101t-97.5 251q0 151 97.5 252t243.5 101q69 0 129.5 -25.5t114.5 -78.5l-61 -64q-40 40 -86 60.5t-97 20.5q-104 0 -173.5 -76t-69.5 -190q0 -113 69.5 -189t173.5 -76q87 0 150 53.5t77 138.5h-241v84h335
q1 -6 1 -13v-21zM382 927l156 -132l-39 -48l-118 88l-117 -88l-39 48z" />
    <glyph glyph-name="Gcommaaccent" unicode="&#x122;" horiz-adv-x="752" 
d="M714 319q0 -139 -92.5 -234t-229.5 -95q-146 0 -243.5 101t-97.5 251q0 151 97.5 252t243.5 101q69 0 129.5 -25.5t114.5 -78.5l-61 -64q-40 40 -86 60.5t-97 20.5q-104 0 -173.5 -76t-69.5 -190q0 -113 69.5 -189t173.5 -76q87 0 150 53.5t77 138.5h-241v84h335
q1 -6 1 -13v-21zM331 -108q0 22 16.5 38t39.5 16q24 0 40.5 -17.5t16.5 -41.5q0 -13 -4 -26t-13 -26l-53 -97l-51 15l38 91q-14 8 -22 20.5t-8 27.5z" />
    <glyph glyph-name="Gdotaccent" unicode="&#x120;" horiz-adv-x="752" 
d="M714 319q0 -139 -92.5 -234t-229.5 -95q-146 0 -243.5 101t-97.5 251q0 151 97.5 252t243.5 101q69 0 129.5 -25.5t114.5 -78.5l-61 -64q-40 40 -86 60.5t-97 20.5q-104 0 -173.5 -76t-69.5 -190q0 -113 69.5 -189t173.5 -76q87 0 150 53.5t77 138.5h-241v84h335
q1 -6 1 -13v-21zM382 896q24 0 42 -18.5t18 -42.5q0 -25 -17.5 -43t-42.5 -18t-43 18t-18 43q0 24 18.5 42.5t42.5 18.5z" />
    <glyph glyph-name="Hbar" unicode="&#x126;" horiz-adv-x="738" 
d="M547 312h-356v-312h-95v493h-100v84h100v108h95v-108h356v108h95v-108h101v-84h-101v-493h-95v312zM191 493v-97h356v97h-356z" />
    <glyph glyph-name="Hcircumflex" unicode="&#x124;" horiz-adv-x="738" 
d="M642 0h-95v312h-356v-312h-95v685h95v-289h356v289h95v-685zM369 927l156 -132l-39 -48l-118 88l-117 -88l-39 48z" />
    <glyph glyph-name="Iacute" unicode="&#xcd;" horiz-adv-x="287" 
d="M191 0h-95v685h95v-685zM75 749l-34 51l169 130l46 -73z" />
    <glyph glyph-name="Icircumflex" unicode="&#xce;" horiz-adv-x="287" 
d="M191 0h-95v685h95v-685zM144 927l156 -132l-39 -48l-118 88l-117 -88l-39 48z" />
    <glyph glyph-name="Idieresis" unicode="&#xcf;" horiz-adv-x="287" 
d="M191 0h-95v685h95v-685zM53 887q22 0 38 -16t16 -38t-16 -38t-38 -16t-38.5 16t-16.5 38t16.5 38t38.5 16zM234 887q22 0 38.5 -16t16.5 -38t-16.5 -38t-38.5 -16t-38 16t-16 38t16 38t38 16z" />
    <glyph glyph-name="Igrave" unicode="&#xcc;" horiz-adv-x="287" 
d="M191 0h-95v685h95v-685zM83 930l169 -130l-33 -51l-182 108z" />
    <glyph glyph-name="Ibreve" unicode="&#x12c;" horiz-adv-x="287" 
d="M191 0h-95v685h95v-685zM85 898v-10q0 -34 15.5 -53t43.5 -19t43 18.5t15 52.5v11h72v-21q0 -56 -36.5 -91.5t-93.5 -35.5q-58 0 -94.5 36t-36.5 92v20h72z" />
    <glyph glyph-name="Idotaccent" unicode="&#x130;" horiz-adv-x="287" 
d="M191 0h-95v685h95v-685zM144 896q24 0 42 -18.5t18 -42.5q0 -25 -17.5 -43t-42.5 -18t-43 18t-18 43q0 24 18.5 42.5t42.5 18.5z" />
    <glyph glyph-name="Imacron" unicode="&#x12a;" horiz-adv-x="287" 
d="M191 0h-95v685h95v-685zM17 861h253v-71h-253v71z" />
    <glyph glyph-name="Iogonek" unicode="&#x12e;" horiz-adv-x="287" 
d="M180 -134l20 -56q-15 -7 -31 -10.5t-33 -3.5q-44 0 -70 23t-26 63q0 32 18.5 63t52.5 55h-15v685h95v-685q-36 -21 -56 -47.5t-20 -53.5q0 -18 9.5 -28.5t26.5 -10.5q8 0 15 1.5t14 4.5z" />
    <glyph glyph-name="Itilde" unicode="&#x128;" horiz-adv-x="287" 
d="M191 0h-95v685h95v-685zM238 895l58 -26q-19 -48 -42 -70.5t-53 -22.5q-14 0 -28.5 4.5t-39.5 19.5q-18 11 -26.5 14t-15.5 3q-15 0 -24.5 -9.5t-19.5 -32.5l-58 27q18 45 41.5 66t54.5 21q14 0 28 -4.5t38 -19.5q19 -11 28 -14t16 -3q14 0 23.5 10.5t19.5 36.5z" />
    <glyph glyph-name="Jcircumflex" unicode="&#x134;" horiz-adv-x="476" 
d="M393 685v-485q0 -102 -51 -156t-146 -54q-51 0 -96 20.5t-82 60.5l59 63q26 -28 56 -43t63 -15q48 0 75 33t27 92v484h95zM343 927l156 -132l-39 -48l-118 88l-117 -88l-39 48z" />
    <glyph glyph-name="IJ" unicode="&#x132;" horiz-adv-x="594" 
d="M191 312h-95v373h95v-373zM511 685v-485q0 -102 -51 -156t-146 -54q-51 0 -96 20.5t-82 60.5l59 63q26 -28 56 -43t63 -15q48 0 75 33t27 92v484h95z" />
    <glyph glyph-name="Kcommaaccent" unicode="&#x136;" horiz-adv-x="644" 
d="M222 307h-31v-307h-95v685h95v-294h30q61 0 92 19.5t71 83.5l117 191h100l-117 -191q-33 -53 -55 -83.5t-42 -50.5l238 -360h-110l-208 315q-17 -4 -37 -6t-48 -2zM282 -108q0 22 16.5 38t39.5 16q24 0 40.5 -17.5t16.5 -41.5q0 -13 -4 -26t-13 -26l-53 -97l-51 15l38 91
q-14 8 -22 20.5t-8 27.5z" />
    <glyph glyph-name="kgreenlandic.case" horiz-adv-x="733" 
d="M222 307h-31v-307h-95v685h95v-294h30q61 0 92 19.5t71 83.5l117 191h100l-117 -191q-33 -53 -55 -83.5t-42 -50.5l238 -360h-110l-208 315q-17 -4 -37 -6t-48 -2zM594 455l79 230h65l-45 -230h-99z" />
    <glyph glyph-name="Lacute" unicode="&#x139;" horiz-adv-x="514" 
d="M191 84h296v-84h-391v685h95v-601zM110 749l-34 51l169 130l46 -73z" />
    <glyph glyph-name="Lcaron" unicode="&#x13d;" horiz-adv-x="514" 
d="M191 84h296v-84h-391v685h95v-601zM363 685l-14 -184h-66v184h80z" />
    <glyph glyph-name="Lcommaaccent" unicode="&#x13b;" horiz-adv-x="514" 
d="M191 84h296v-84h-391v685h95v-601zM226 -108q0 22 16.5 38t39.5 16q24 0 40.5 -17.5t16.5 -41.5q0 -13 -4 -26t-13 -26l-53 -97l-51 15l38 91q-14 8 -22 20.5t-8 27.5z" />
    <glyph glyph-name="Ldot" unicode="&#x13f;" horiz-adv-x="514" 
d="M191 84h296v-84h-391v685h95v-601zM395 415q25 0 43 -17.5t18 -42.5t-18 -43t-43 -18t-43 18t-18 43t18 42.5t43 17.5z" />
    <glyph glyph-name="Ntilde" unicode="&#xd1;" horiz-adv-x="728" 
d="M632 0h-92l-356 534v-534h-88v685h92l356 -534v534h88v-685zM458 895l58 -26q-19 -48 -42 -70.5t-53 -22.5q-14 0 -28.5 4.5t-39.5 19.5q-18 11 -26.5 14t-15.5 3q-15 0 -24.5 -9.5t-19.5 -32.5l-58 27q18 45 41.5 66t54.5 21q14 0 28 -4.5t38 -19.5q19 -11 28 -14t16 -3
q14 0 23.5 10.5t19.5 36.5z" />
    <glyph glyph-name="Nacute" unicode="&#x143;" horiz-adv-x="728" 
d="M632 0h-92l-356 534v-534h-88v685h92l356 -534v534h88v-685zM303 749l-34 51l169 130l46 -73z" />
    <glyph glyph-name="Ncaron" unicode="&#x147;" horiz-adv-x="728" 
d="M632 0h-92l-356 534v-534h-88v685h92l356 -534v534h88v-685zM481 927l39 -48l-156 -132l-157 132l39 48l118 -88z" />
    <glyph glyph-name="Ncommaaccent" unicode="&#x145;" horiz-adv-x="728" 
d="M632 0h-92l-356 534v-534h-88v685h92l356 -534v534h88v-685zM306 -108q0 22 16.5 38t39.5 16q24 0 40.5 -17.5t16.5 -41.5q0 -13 -4 -26t-13 -26l-53 -97l-51 15l38 91q-14 8 -22 20.5t-8 27.5z" />
    <glyph glyph-name="Eng" unicode="&#x14a;" horiz-adv-x="728" 
d="M544 151v534h88v-725q0 -78 -42 -124t-113 -46q-33 0 -66 12.5t-59 35.5l49 66q17 -15 34.5 -22.5t34.5 -7.5q33 0 52 25t19 69v32h-1l-356 534v-534h-88v685h92z" />
    <glyph glyph-name="napostrophe.case" horiz-adv-x="796" 
d="M700 0h-92l-356 534v-534h-88v685h92l356 -534v534h88v-685zM111 685l-79 -230h-65l44 230h100z" />
    <glyph glyph-name="Oacute" unicode="&#xd3;" horiz-adv-x="784" 
d="M392 -10q-146 0 -243.5 101t-97.5 251q0 151 97.5 252t243.5 101t243.5 -101t97.5 -252q0 -150 -97.5 -251t-243.5 -101zM392 77q104 0 173.5 75.5t69.5 189.5t-69.5 190t-173.5 76t-173.5 -76t-69.5 -190t69.5 -189.5t173.5 -75.5zM319 749l-34 51l169 130l46 -73z" />
    <glyph glyph-name="Ocircumflex" unicode="&#xd4;" horiz-adv-x="784" 
d="M392 -10q-146 0 -243.5 101t-97.5 251q0 151 97.5 252t243.5 101t243.5 -101t97.5 -252q0 -150 -97.5 -251t-243.5 -101zM392 77q104 0 173.5 75.5t69.5 189.5t-69.5 190t-173.5 76t-173.5 -76t-69.5 -190t69.5 -189.5t173.5 -75.5zM392 927l156 -132l-39 -48l-118 88
l-117 -88l-39 48z" />
    <glyph glyph-name="Odieresis" unicode="&#xd6;" horiz-adv-x="784" 
d="M392 -10q-146 0 -243.5 101t-97.5 251q0 151 97.5 252t243.5 101t243.5 -101t97.5 -252q0 -150 -97.5 -251t-243.5 -101zM392 77q104 0 173.5 75.5t69.5 189.5t-69.5 190t-173.5 76t-173.5 -76t-69.5 -190t69.5 -189.5t173.5 -75.5zM301 887q22 0 38 -16t16 -38t-16 -38
t-38 -16t-38.5 16t-16.5 38t16.5 38t38.5 16zM482 887q22 0 38.5 -16t16.5 -38t-16.5 -38t-38.5 -16t-38 16t-16 38t16 38t38 16z" />
    <glyph glyph-name="Ograve" unicode="&#xd2;" horiz-adv-x="784" 
d="M392 -10q-146 0 -243.5 101t-97.5 251q0 151 97.5 252t243.5 101t243.5 -101t97.5 -252q0 -150 -97.5 -251t-243.5 -101zM392 77q104 0 173.5 75.5t69.5 189.5t-69.5 190t-173.5 76t-173.5 -76t-69.5 -190t69.5 -189.5t173.5 -75.5zM324 930l169 -130l-33 -51l-182 108z
" />
    <glyph glyph-name="Otilde" unicode="&#xd5;" horiz-adv-x="784" 
d="M392 -10q-146 0 -243.5 101t-97.5 251q0 151 97.5 252t243.5 101t243.5 -101t97.5 -252q0 -150 -97.5 -251t-243.5 -101zM392 77q104 0 173.5 75.5t69.5 189.5t-69.5 190t-173.5 76t-173.5 -76t-69.5 -190t69.5 -189.5t173.5 -75.5zM486 895l58 -26q-19 -48 -42 -70.5
t-53 -22.5q-14 0 -28.5 4.5t-39.5 19.5q-18 11 -26.5 14t-15.5 3q-15 0 -24.5 -9.5t-19.5 -32.5l-58 27q18 45 41.5 66t54.5 21q14 0 28 -4.5t38 -19.5q19 -11 28 -14t16 -3q14 0 23.5 10.5t19.5 36.5z" />
    <glyph glyph-name="Obreve" unicode="&#x14e;" horiz-adv-x="784" 
d="M392 -10q-146 0 -243.5 101t-97.5 251q0 151 97.5 252t243.5 101t243.5 -101t97.5 -252q0 -150 -97.5 -251t-243.5 -101zM392 77q104 0 173.5 75.5t69.5 189.5t-69.5 190t-173.5 76t-173.5 -76t-69.5 -190t69.5 -189.5t173.5 -75.5zM333 898v-10q0 -34 15.5 -53t43.5 -19
t43 18.5t15 52.5v11h72v-21q0 -56 -36.5 -91.5t-93.5 -35.5q-58 0 -94.5 36t-36.5 92v20h72z" />
    <glyph glyph-name="Ohungarumlaut" unicode="&#x150;" horiz-adv-x="784" 
d="M392 -10q-146 0 -243.5 101t-97.5 251q0 151 97.5 252t243.5 101t243.5 -101t97.5 -252q0 -150 -97.5 -251t-243.5 -101zM392 77q104 0 173.5 75.5t69.5 189.5t-69.5 190t-173.5 76t-173.5 -76t-69.5 -190t69.5 -189.5t173.5 -75.5zM305 748l-48 33l105 169l67 -45z
M475 748l-48 33l105 169l68 -45z" />
    <glyph glyph-name="Omacron" unicode="&#x14c;" horiz-adv-x="784" 
d="M392 -10q-146 0 -243.5 101t-97.5 251q0 151 97.5 252t243.5 101t243.5 -101t97.5 -252q0 -150 -97.5 -251t-243.5 -101zM392 77q104 0 173.5 75.5t69.5 189.5t-69.5 190t-173.5 76t-173.5 -76t-69.5 -190t69.5 -189.5t173.5 -75.5zM265 861h253v-71h-253v71z" />
    <glyph glyph-name="Racute" unicode="&#x154;" horiz-adv-x="610" 
d="M189 0h-93v685h211q104 0 167.5 -54t63.5 -143q0 -65 -35 -113.5t-95 -70.5l170 -304h-103l-160 285h-126v-285zM442 485q0 52 -35.5 84t-94.5 32h-123v-232h123q60 0 95 31.5t35 84.5zM242 749l-34 51l169 130l46 -73z" />
    <glyph glyph-name="Rcaron" unicode="&#x158;" horiz-adv-x="610" 
d="M189 0h-93v685h211q104 0 167.5 -54t63.5 -143q0 -65 -35 -113.5t-95 -70.5l170 -304h-103l-160 285h-126v-285zM442 485q0 52 -35.5 84t-94.5 32h-123v-232h123q60 0 95 31.5t35 84.5zM408 927l39 -48l-156 -132l-157 132l39 48l118 -88z" />
    <glyph glyph-name="Rcommaaccent" unicode="&#x156;" horiz-adv-x="610" 
d="M189 0h-93v685h211q104 0 167.5 -54t63.5 -143q0 -65 -35 -113.5t-95 -70.5l170 -304h-103l-160 285h-126v-285zM442 485q0 52 -35.5 84t-94.5 32h-123v-232h123q60 0 95 31.5t35 84.5zM259 -108q0 22 16.5 38t39.5 16q24 0 40.5 -17.5t16.5 -41.5q0 -13 -4 -26t-13 -26
l-53 -97l-51 15l38 91q-14 8 -22 20.5t-8 27.5z" />
    <glyph glyph-name="Scaron" unicode="&#x160;" horiz-adv-x="566" 
d="M288 611q-56 0 -90 -26.5t-34 -72.5q0 -42 31.5 -69t140.5 -63q99 -32 142.5 -78.5t43.5 -115.5q0 -84 -64 -140t-160 -56q-76 0 -141.5 28.5t-117.5 83.5l54 65q45 -48 95.5 -71t109.5 -23q57 0 93.5 31t36.5 79q0 40 -29.5 66t-116.5 55q-123 41 -167 87t-44 119
q0 82 61 133.5t155 51.5q61 0 114.5 -23t100.5 -69l-55 -65q-41 38 -79.5 55.5t-79.5 17.5zM398 927l39 -48l-156 -132l-157 132l39 48l118 -88z" />
    <glyph glyph-name="Sacute" unicode="&#x15a;" horiz-adv-x="566" 
d="M288 611q-56 0 -90 -26.5t-34 -72.5q0 -42 31.5 -69t140.5 -63q99 -32 142.5 -78.5t43.5 -115.5q0 -84 -64 -140t-160 -56q-76 0 -141.5 28.5t-117.5 83.5l54 65q45 -48 95.5 -71t109.5 -23q57 0 93.5 31t36.5 79q0 40 -29.5 66t-116.5 55q-123 41 -167 87t-44 119
q0 82 61 133.5t155 51.5q61 0 114.5 -23t100.5 -69l-55 -65q-41 38 -79.5 55.5t-79.5 17.5zM216 749l-34 51l169 130l46 -73z" />
    <glyph glyph-name="Scedilla" unicode="&#x15e;" horiz-adv-x="566" 
d="M387 -129q0 -38 -28.5 -61.5t-73.5 -23.5q-24 0 -44.5 4.5t-42.5 15.5l18 53q17 -8 31.5 -12t27.5 -4q17 0 27 8.5t10 21.5q0 15 -10.5 22.5t-32.5 7.5l-34 33l18 57q-62 7 -116 34.5t-98 74.5l54 65q45 -48 95.5 -71t109.5 -23q57 0 93.5 31t36.5 79q0 40 -29.5 66
t-116.5 55q-123 41 -167 87t-44 119q0 82 61 133.5t155 51.5q61 0 114.5 -23t100.5 -69l-55 -65q-41 38 -79.5 55.5t-79.5 17.5q-56 0 -90 -26.5t-34 -72.5q0 -42 31.5 -69t140.5 -63q99 -32 142.5 -78.5t43.5 -115.5q0 -81 -59.5 -136t-150.5 -60l-12 -36q41 -4 64 -25.5
t23 -57.5z" />
    <glyph glyph-name="Scircumflex" unicode="&#x15c;" horiz-adv-x="566" 
d="M288 611q-56 0 -90 -26.5t-34 -72.5q0 -42 31.5 -69t140.5 -63q99 -32 142.5 -78.5t43.5 -115.5q0 -84 -64 -140t-160 -56q-76 0 -141.5 28.5t-117.5 83.5l54 65q45 -48 95.5 -71t109.5 -23q57 0 93.5 31t36.5 79q0 40 -29.5 66t-116.5 55q-123 41 -167 87t-44 119
q0 82 61 133.5t155 51.5q61 0 114.5 -23t100.5 -69l-55 -65q-41 38 -79.5 55.5t-79.5 17.5zM278 927l156 -132l-39 -48l-118 88l-117 -88l-39 48z" />
    <glyph glyph-name="uni0218" unicode="&#x218;" horiz-adv-x="566" 
d="M288 611q-56 0 -90 -26.5t-34 -72.5q0 -42 31.5 -69t140.5 -63q99 -32 142.5 -78.5t43.5 -115.5q0 -84 -64 -140t-160 -56q-76 0 -141.5 28.5t-117.5 83.5l54 65q45 -48 95.5 -71t109.5 -23q57 0 93.5 31t36.5 79q0 40 -29.5 66t-116.5 55q-123 41 -167 87t-44 119
q0 82 61 133.5t155 51.5q61 0 114.5 -23t100.5 -69l-55 -65q-41 38 -79.5 55.5t-79.5 17.5zM229 -108q0 22 16.5 38t39.5 16q24 0 40.5 -17.5t16.5 -41.5q0 -13 -4 -26t-13 -26l-53 -97l-51 15l38 91q-14 8 -22 20.5t-8 27.5z" />
    <glyph glyph-name="Tbar" unicode="&#x166;" horiz-adv-x="553" 
d="M229 601h-209v84h513v-84h-209v-204h124v-84h-124v-313h-95v313h-124v84h124v204z" />
    <glyph glyph-name="Tcaron" unicode="&#x164;" horiz-adv-x="553" 
d="M229 601h-209v84h513v-84h-209v-601h-95v601zM391 927l39 -48l-156 -132l-157 132l39 48l118 -88z" />
    <glyph glyph-name="uni0162" unicode="&#x162;" horiz-adv-x="553" 
d="M229 601h-209v84h513v-84h-209v-601h-95v601zM219 -108q0 22 16.5 38t39.5 16q24 0 40.5 -17.5t16.5 -41.5q0 -13 -4 -26t-13 -26l-53 -97l-51 15l38 91q-14 8 -22 20.5t-8 27.5z" />
    <glyph glyph-name="uni021A" unicode="&#x21a;" horiz-adv-x="553" 
d="M229 601h-209v84h513v-84h-209v-601h-95v601zM219 -108q0 22 16.5 38t39.5 16q24 0 40.5 -17.5t16.5 -41.5q0 -13 -4 -26t-13 -26l-53 -97l-51 15l38 91q-14 8 -22 20.5t-8 27.5z" />
    <glyph glyph-name="Uacute" unicode="&#xda;" horiz-adv-x="680" 
d="M598 685v-419q0 -127 -69.5 -201.5t-188.5 -74.5t-188.5 74t-69.5 202v419h95v-417q0 -91 43 -141.5t120 -50.5t120 50.5t43 141.5v417h95zM287 749l-34 51l169 130l46 -73z" />
    <glyph glyph-name="Ucircumflex" unicode="&#xdb;" horiz-adv-x="680" 
d="M598 685v-419q0 -127 -69.5 -201.5t-188.5 -74.5t-188.5 74t-69.5 202v419h95v-417q0 -91 43 -141.5t120 -50.5t120 50.5t43 141.5v417h95zM339 927l156 -132l-39 -48l-118 88l-117 -88l-39 48z" />
    <glyph glyph-name="Udieresis" unicode="&#xdc;" horiz-adv-x="680" 
d="M598 685v-419q0 -127 -69.5 -201.5t-188.5 -74.5t-188.5 74t-69.5 202v419h95v-417q0 -91 43 -141.5t120 -50.5t120 50.5t43 141.5v417h95zM249 887q22 0 38 -16t16 -38t-16 -38t-38 -16t-38.5 16t-16.5 38t16.5 38t38.5 16zM430 887q22 0 38.5 -16t16.5 -38t-16.5 -38
t-38.5 -16t-38 16t-16 38t16 38t38 16z" />
    <glyph glyph-name="Ugrave" unicode="&#xd9;" horiz-adv-x="680" 
d="M598 685v-419q0 -127 -69.5 -201.5t-188.5 -74.5t-188.5 74t-69.5 202v419h95v-417q0 -91 43 -141.5t120 -50.5t120 50.5t43 141.5v417h95zM266 930l169 -130l-33 -51l-182 108z" />
    <glyph glyph-name="Ubreve" unicode="&#x16c;" horiz-adv-x="680" 
d="M598 685v-419q0 -127 -69.5 -201.5t-188.5 -74.5t-188.5 74t-69.5 202v419h95v-417q0 -91 43 -141.5t120 -50.5t120 50.5t43 141.5v417h95zM280 898v-10q0 -34 15.5 -53t43.5 -19t43 18.5t15 52.5v11h72v-21q0 -56 -36.5 -91.5t-93.5 -35.5q-58 0 -94.5 36t-36.5 92v20
h72z" />
    <glyph glyph-name="Uhungarumlaut" unicode="&#x170;" horiz-adv-x="680" 
d="M598 685v-419q0 -127 -69.5 -201.5t-188.5 -74.5t-188.5 74t-69.5 202v419h95v-417q0 -91 43 -141.5t120 -50.5t120 50.5t43 141.5v417h95zM252 748l-48 33l105 169l67 -45zM422 748l-48 33l105 169l68 -45z" />
    <glyph glyph-name="Umacron" unicode="&#x16a;" horiz-adv-x="680" 
d="M598 685v-419q0 -127 -69.5 -201.5t-188.5 -74.5t-188.5 74t-69.5 202v419h95v-417q0 -91 43 -141.5t120 -50.5t120 50.5t43 141.5v417h95zM212 861h253v-71h-253v71z" />
    <glyph glyph-name="Uogonek" unicode="&#x172;" horiz-adv-x="680" 
d="M598 685v-419q0 -74 -23.5 -129.5t-69.5 -93.5q-56 -45 -82.5 -80t-26.5 -64q0 -18 9.5 -28.5t26.5 -10.5q8 0 15 1.5t14 4.5l20 -56q-15 -7 -31 -10.5t-33 -3.5q-44 0 -70 23t-26 63q0 29 15.5 57.5t45.5 53.5q-9 -1 -20.5 -2t-21.5 -1q-119 0 -188.5 74t-69.5 202v419
h95v-417q0 -91 43 -141.5t120 -50.5t120 50.5t43 141.5v417h95z" />
    <glyph glyph-name="Uring" unicode="&#x16e;" horiz-adv-x="680" 
d="M598 685v-419q0 -127 -69.5 -201.5t-188.5 -74.5t-188.5 74t-69.5 202v419h95v-417q0 -91 43 -141.5t120 -50.5t120 50.5t43 141.5v417h95zM339 736q-45 0 -76.5 30.5t-31.5 73.5t31.5 73.5t76.5 30.5q44 0 75.5 -30.5t31.5 -73.5t-31.5 -73.5t-75.5 -30.5zM339 789
q21 0 35 15t14 36t-14 36t-35 15t-35.5 -14.5t-14.5 -36.5t14.5 -36.5t35.5 -14.5z" />
    <glyph glyph-name="Utilde" unicode="&#x168;" horiz-adv-x="680" 
d="M598 685v-419q0 -127 -69.5 -201.5t-188.5 -74.5t-188.5 74t-69.5 202v419h95v-417q0 -91 43 -141.5t120 -50.5t120 50.5t43 141.5v417h95zM434 895l58 -26q-19 -48 -42 -70.5t-53 -22.5q-14 0 -28.5 4.5t-39.5 19.5q-18 11 -26.5 14t-15.5 3q-15 0 -24.5 -9.5
t-19.5 -32.5l-58 27q18 45 41.5 66t54.5 21q14 0 28 -4.5t38 -19.5q19 -11 28 -14t16 -3q14 0 23.5 10.5t19.5 36.5z" />
    <glyph glyph-name="Wacute" unicode="&#x1e82;" horiz-adv-x="978" 
d="M701 0h-88l-124 339l-128 -339h-92l-250 685h98l201 -564l123 333l-84 231h95l43 -121l46 121h88l-87 -230l117 -329l210 559h90zM429 749l-34 51l169 130l46 -73z" />
    <glyph glyph-name="Wcircumflex" unicode="&#x174;" horiz-adv-x="978" 
d="M701 0h-88l-124 339l-128 -339h-92l-250 685h98l201 -564l123 333l-84 231h95l43 -121l46 121h88l-87 -230l117 -329l210 559h90zM488 927l156 -132l-39 -48l-118 88l-117 -88l-39 48z" />
    <glyph glyph-name="Wdieresis" unicode="&#x1e84;" horiz-adv-x="978" 
d="M701 0h-88l-124 339l-128 -339h-92l-250 685h98l201 -564l123 333l-84 231h95l43 -121l46 121h88l-87 -230l117 -329l210 559h90zM397 887q22 0 38 -16t16 -38t-16 -38t-38 -16t-38.5 16t-16.5 38t16.5 38t38.5 16zM578 887q22 0 38.5 -16t16.5 -38t-16.5 -38t-38.5 -16
t-38 16t-16 38t16 38t38 16z" />
    <glyph glyph-name="Wgrave" unicode="&#x1e80;" horiz-adv-x="978" 
d="M701 0h-88l-124 339l-128 -339h-92l-250 685h98l201 -564l123 333l-84 231h95l43 -121l46 121h88l-87 -230l117 -329l210 559h90zM414 930l169 -130l-33 -51l-182 108z" />
    <glyph glyph-name="Yacute" unicode="&#xdd;" horiz-adv-x="601" 
d="M487 685h99l-238 -392v-293h-95v295l-238 390h105l184 -303zM255 749l-34 51l169 130l46 -73z" />
    <glyph glyph-name="Ydieresis" unicode="&#x178;" horiz-adv-x="601" 
d="M487 685h99l-238 -392v-293h-95v295l-238 390h105l184 -303zM209 887q22 0 38 -16t16 -38t-16 -38t-38 -16t-38.5 16t-16.5 38t16.5 38t38.5 16zM390 887q22 0 38.5 -16t16.5 -38t-16.5 -38t-38.5 -16t-38 16t-16 38t16 38t38 16z" />
    <glyph glyph-name="Ycircumflex" unicode="&#x176;" horiz-adv-x="601" 
d="M487 685h99l-238 -392v-293h-95v295l-238 390h105l184 -303zM298 927l156 -132l-39 -48l-118 88l-117 -88l-39 48z" />
    <glyph glyph-name="Ygrave" unicode="&#x1ef2;" horiz-adv-x="601" 
d="M487 685h99l-238 -392v-293h-95v295l-238 390h105l184 -303zM217 930l169 -130l-33 -51l-182 108z" />
    <glyph glyph-name="Zcaron" unicode="&#x17d;" horiz-adv-x="570" 
d="M155 83h373v-83h-487v70l364 531h-351v84h464v-71zM402 927l39 -48l-156 -132l-157 132l39 48l118 -88z" />
    <glyph glyph-name="Zacute" unicode="&#x179;" horiz-adv-x="570" 
d="M155 83h373v-83h-487v70l364 531h-351v84h464v-71zM232 749l-34 51l169 130l46 -73z" />
    <glyph glyph-name="Zdotaccent" unicode="&#x17b;" horiz-adv-x="570" 
d="M155 83h373v-83h-487v70l364 531h-351v84h464v-71zM285 896q24 0 42 -18.5t18 -42.5q0 -25 -17.5 -43t-42.5 -18t-43 18t-18 43q0 24 18.5 42.5t42.5 18.5z" />
    <glyph glyph-name="aacute" unicode="&#xe1;" horiz-adv-x="584" 
d="M506 0h-78l-11 65q-28 -36 -67 -55.5t-85 -19.5q-94 0 -156.5 67t-62.5 167q0 101 62.5 168t156.5 67q46 0 85 -19.5t67 -55.5l11 65h78v-449zM137 224q0 -65 40.5 -109t101.5 -44t102 44t41 109q0 66 -41 110t-102 44t-101.5 -44t-40.5 -110zM222 514l-34 51l169 130
l46 -73z" />
    <glyph glyph-name="acircumflex" unicode="&#xe2;" horiz-adv-x="584" 
d="M506 0h-78l-11 65q-28 -36 -67 -55.5t-85 -19.5q-94 0 -156.5 67t-62.5 167q0 101 62.5 168t156.5 67q46 0 85 -19.5t67 -55.5l11 65h78v-449zM137 224q0 -65 40.5 -109t101.5 -44t102 44t41 109q0 66 -41 110t-102 44t-101.5 -44t-40.5 -110zM285 692l156 -132l-39 -48
l-118 88l-117 -88l-39 48z" />
    <glyph glyph-name="adieresis" unicode="&#xe4;" horiz-adv-x="584" 
d="M506 0h-78l-11 65q-28 -36 -67 -55.5t-85 -19.5q-94 0 -156.5 67t-62.5 167q0 101 62.5 168t156.5 67q46 0 85 -19.5t67 -55.5l11 65h78v-449zM137 224q0 -65 40.5 -109t101.5 -44t102 44t41 109q0 66 -41 110t-102 44t-101.5 -44t-40.5 -110zM194 652q22 0 38 -16
t16 -38t-16 -38t-38 -16t-38.5 16t-16.5 38t16.5 38t38.5 16zM375 652q22 0 38.5 -16t16.5 -38t-16.5 -38t-38.5 -16t-38 16t-16 38t16 38t38 16z" />
    <glyph glyph-name="agrave" unicode="&#xe0;" horiz-adv-x="584" 
d="M506 0h-78l-11 65q-28 -36 -67 -55.5t-85 -19.5q-94 0 -156.5 67t-62.5 167q0 101 62.5 168t156.5 67q46 0 85 -19.5t67 -55.5l11 65h78v-449zM137 224q0 -65 40.5 -109t101.5 -44t102 44t41 109q0 66 -41 110t-102 44t-101.5 -44t-40.5 -110zM220 695l169 -130l-33 -51
l-182 108z" />
    <glyph glyph-name="aring" unicode="&#xe5;" horiz-adv-x="584" 
d="M506 0h-78l-11 65q-28 -36 -67 -55.5t-85 -19.5q-94 0 -156.5 67t-62.5 167q0 101 62.5 168t156.5 67q46 0 85 -19.5t67 -55.5l11 65h78v-449zM137 224q0 -65 40.5 -109t101.5 -44t102 44t41 109q0 66 -41 110t-102 44t-101.5 -44t-40.5 -110zM280 501q-45 0 -76.5 30.5
t-31.5 73.5t31.5 73.5t76.5 30.5q44 0 75.5 -30.5t31.5 -73.5t-31.5 -73.5t-75.5 -30.5zM280 554q21 0 35 15t14 36t-14 36t-35 15t-35.5 -14.5t-14.5 -36.5t14.5 -36.5t35.5 -14.5z" />
    <glyph glyph-name="atilde" unicode="&#xe3;" horiz-adv-x="584" 
d="M506 0h-78l-11 65q-28 -36 -67 -55.5t-85 -19.5q-94 0 -156.5 67t-62.5 167q0 101 62.5 168t156.5 67q46 0 85 -19.5t67 -55.5l11 65h78v-449zM137 224q0 -65 40.5 -109t101.5 -44t102 44t41 109q0 66 -41 110t-102 44t-101.5 -44t-40.5 -110zM381 660l58 -26
q-19 -48 -42 -70.5t-53 -22.5q-14 0 -28.5 4.5t-39.5 19.5q-18 11 -26.5 14t-15.5 3q-15 0 -24.5 -9.5t-19.5 -32.5l-58 27q18 45 41.5 66t54.5 21q14 0 28 -4.5t38 -19.5q19 -11 28 -14t16 -3q14 0 23.5 10.5t19.5 36.5z" />
    <glyph glyph-name="abreve" unicode="&#x103;" horiz-adv-x="584" 
d="M506 0h-78l-11 65q-28 -36 -67 -55.5t-85 -19.5q-94 0 -156.5 67t-62.5 167q0 101 62.5 168t156.5 67q46 0 85 -19.5t67 -55.5l11 65h78v-449zM137 224q0 -65 40.5 -109t101.5 -44t102 44t41 109q0 66 -41 110t-102 44t-101.5 -44t-40.5 -110zM228 663v-10
q0 -34 15.5 -53t43.5 -19t43 18.5t15 52.5v11h72v-21q0 -56 -36.5 -91.5t-93.5 -35.5q-58 0 -94.5 36t-36.5 92v20h72z" />
    <glyph glyph-name="amacron" unicode="&#x101;" horiz-adv-x="584" 
d="M506 0h-78l-11 65q-28 -36 -67 -55.5t-85 -19.5q-94 0 -156.5 67t-62.5 167q0 101 62.5 168t156.5 67q46 0 85 -19.5t67 -55.5l11 65h78v-449zM137 224q0 -65 40.5 -109t101.5 -44t102 44t41 109q0 66 -41 110t-102 44t-101.5 -44t-40.5 -110zM160 626h253v-71h-253v71z
" />
    <glyph glyph-name="aogonek" unicode="&#x105;" horiz-adv-x="584" 
d="M495 -134l20 -56q-15 -7 -31 -10.5t-33 -3.5q-44 0 -70 23t-26 63q0 32 19 63.5t54 55.5l-11 64q-28 -36 -67 -55.5t-85 -19.5q-94 0 -156.5 67t-62.5 167q0 101 62.5 168t156.5 67q46 0 85 -19.5t67 -55.5l11 65h78v-449q-36 -21 -56 -47.5t-20 -53.5q0 -18 9.5 -28.5
t26.5 -10.5q8 0 15 1.5t14 4.5zM137 224q0 -65 40.5 -109t101.5 -44t102 44t41 109q0 66 -41 110t-102 44t-101.5 -44t-40.5 -110z" />
    <glyph glyph-name="ccedilla" unicode="&#xe7;" horiz-adv-x="481" 
d="M366 -129q0 -38 -28.5 -61.5t-73.5 -23.5q-24 0 -44.5 4.5t-42.5 15.5l18 53q17 -8 31.5 -12t27.5 -4q17 0 27 8.5t10 21.5q0 15 -10.5 22.5t-32.5 7.5l-34 33l18 58q-83 15 -134.5 79t-51.5 151q0 101 66.5 168t166.5 67q47 0 89.5 -17t77.5 -49l-58 -60q-26 23 -53 34
t-56 11q-61 0 -101.5 -44t-40.5 -110q0 -65 40.5 -109t101.5 -44q33 0 63 13.5t56 39.5l58 -60q-34 -35 -74.5 -53.5t-90.5 -20.5l-12 -36q41 -4 64 -25.5t23 -57.5z" />
    <glyph glyph-name="cacute" unicode="&#x107;" horiz-adv-x="481" 
d="M279 378q-61 0 -101.5 -44t-40.5 -110q0 -65 40.5 -109t101.5 -44q33 0 63 13.5t56 39.5l58 -60q-36 -37 -80 -55.5t-97 -18.5q-100 0 -166.5 66.5t-66.5 167.5t66.5 168t166.5 67q47 0 89.5 -17t77.5 -49l-58 -60q-26 23 -53 34t-56 11zM184 514l-34 51l169 130l46 -73z
" />
    <glyph glyph-name="ccaron" unicode="&#x10d;" horiz-adv-x="481" 
d="M279 378q-61 0 -101.5 -44t-40.5 -110q0 -65 40.5 -109t101.5 -44q33 0 63 13.5t56 39.5l58 -60q-36 -37 -80 -55.5t-97 -18.5q-100 0 -166.5 66.5t-66.5 167.5t66.5 168t166.5 67q47 0 89.5 -17t77.5 -49l-58 -60q-26 23 -53 34t-56 11zM387 692l39 -48l-156 -132
l-157 132l39 48l118 -88z" />
    <glyph glyph-name="ccircumflex" unicode="&#x109;" horiz-adv-x="481" 
d="M279 378q-61 0 -101.5 -44t-40.5 -110q0 -65 40.5 -109t101.5 -44q33 0 63 13.5t56 39.5l58 -60q-36 -37 -80 -55.5t-97 -18.5q-100 0 -166.5 66.5t-66.5 167.5t66.5 168t166.5 67q47 0 89.5 -17t77.5 -49l-58 -60q-26 23 -53 34t-56 11zM269 692l156 -132l-39 -48
l-118 88l-117 -88l-39 48z" />
    <glyph glyph-name="cdotaccent" unicode="&#x10b;" horiz-adv-x="481" 
d="M279 378q-61 0 -101.5 -44t-40.5 -110q0 -65 40.5 -109t101.5 -44q33 0 63 13.5t56 39.5l58 -60q-36 -37 -80 -55.5t-97 -18.5q-100 0 -166.5 66.5t-66.5 167.5t66.5 168t166.5 67q47 0 89.5 -17t77.5 -49l-58 -60q-26 23 -53 34t-56 11zM269 661q24 0 42 -18.5t18 -42.5
q0 -25 -17.5 -43t-42.5 -18t-43 18t-18 43q0 24 18.5 42.5t42.5 18.5z" />
    <glyph glyph-name="dcaron" unicode="&#x10f;" horiz-adv-x="639" 
d="M506 0h-78l-11 65q-28 -36 -67 -55.5t-85 -19.5q-94 0 -156.5 67t-62.5 167q0 101 62.5 168t156.5 67q45 0 83.5 -18.5t66.5 -53.5v318h91v-705zM137 224q0 -65 40.5 -109t101.5 -44t102 44t41 109q0 66 -41 110t-102 44t-101.5 -44t-40.5 -110zM651 705l-14 -184h-66
v184h80z" />
    <glyph glyph-name="dcroat" unicode="&#x111;" horiz-adv-x="591" 
d="M506 0h-78l-11 65q-28 -36 -67 -55.5t-85 -19.5q-94 0 -156.5 67t-62.5 167q0 101 62.5 168t156.5 67q45 0 83.5 -18.5t66.5 -53.5v151h-158v80h158v87h91v-87h75v-80h-75v-538zM137 224q0 -65 40.5 -109t101.5 -44t102 44t41 109q0 66 -41 110t-102 44t-101.5 -44
t-40.5 -110z" />
    <glyph glyph-name="eacute" unicode="&#xe9;" horiz-adv-x="530" 
d="M406 120l54 -60q-38 -35 -83 -52.5t-98 -17.5q-98 0 -166 68t-68 166q0 99 65 167t159 68t159 -68t65 -167q0 -9 -1 -18.5t-2 -18.5h-352q11 -52 50.5 -85t89.5 -33q37 0 68.5 12.5t59.5 38.5zM269 380q-47 0 -83 -32t-47 -83h262q-11 51 -48 83t-84 32zM196 514l-34 51
l169 130l46 -73z" />
    <glyph glyph-name="ecircumflex" unicode="&#xea;" horiz-adv-x="530" 
d="M406 120l54 -60q-38 -35 -83 -52.5t-98 -17.5q-98 0 -166 68t-68 166q0 99 65 167t159 68t159 -68t65 -167q0 -9 -1 -18.5t-2 -18.5h-352q11 -52 50.5 -85t89.5 -33q37 0 68.5 12.5t59.5 38.5zM269 380q-47 0 -83 -32t-47 -83h262q-11 51 -48 83t-84 32zM270 692
l156 -132l-39 -48l-118 88l-117 -88l-39 48z" />
    <glyph glyph-name="edieresis" unicode="&#xeb;" horiz-adv-x="530" 
d="M406 120l54 -60q-38 -35 -83 -52.5t-98 -17.5q-98 0 -166 68t-68 166q0 99 65 167t159 68t159 -68t65 -167q0 -9 -1 -18.5t-2 -18.5h-352q11 -52 50.5 -85t89.5 -33q37 0 68.5 12.5t59.5 38.5zM269 380q-47 0 -83 -32t-47 -83h262q-11 51 -48 83t-84 32zM179 652
q22 0 38 -16t16 -38t-16 -38t-38 -16t-38.5 16t-16.5 38t16.5 38t38.5 16zM360 652q22 0 38.5 -16t16.5 -38t-16.5 -38t-38.5 -16t-38 16t-16 38t16 38t38 16z" />
    <glyph glyph-name="egrave" unicode="&#xe8;" horiz-adv-x="530" 
d="M406 120l54 -60q-38 -35 -83 -52.5t-98 -17.5q-98 0 -166 68t-68 166q0 99 65 167t159 68t159 -68t65 -167q0 -9 -1 -18.5t-2 -18.5h-352q11 -52 50.5 -85t89.5 -33q37 0 68.5 12.5t59.5 38.5zM269 380q-47 0 -83 -32t-47 -83h262q-11 51 -48 83t-84 32zM197 695
l169 -130l-33 -51l-182 108z" />
    <glyph glyph-name="ebreve" unicode="&#x115;" horiz-adv-x="530" 
d="M406 120l54 -60q-38 -35 -83 -52.5t-98 -17.5q-98 0 -166 68t-68 166q0 99 65 167t159 68t159 -68t65 -167q0 -9 -1 -18.5t-2 -18.5h-352q11 -52 50.5 -85t89.5 -33q37 0 68.5 12.5t59.5 38.5zM269 380q-47 0 -83 -32t-47 -83h262q-11 51 -48 83t-84 32zM211 663v-10
q0 -34 15.5 -53t43.5 -19t43 18.5t15 52.5v11h72v-21q0 -56 -36.5 -91.5t-93.5 -35.5q-58 0 -94.5 36t-36.5 92v20h72z" />
    <glyph glyph-name="ecaron" unicode="&#x11b;" horiz-adv-x="530" 
d="M406 120l54 -60q-38 -35 -83 -52.5t-98 -17.5q-98 0 -166 68t-68 166q0 99 65 167t159 68t159 -68t65 -167q0 -9 -1 -18.5t-2 -18.5h-352q11 -52 50.5 -85t89.5 -33q37 0 68.5 12.5t59.5 38.5zM269 380q-47 0 -83 -32t-47 -83h262q-11 51 -48 83t-84 32zM387 692l39 -48
l-156 -132l-157 132l39 48l118 -88z" />
    <glyph glyph-name="edotaccent" unicode="&#x117;" horiz-adv-x="530" 
d="M406 120l54 -60q-38 -35 -83 -52.5t-98 -17.5q-98 0 -166 68t-68 166q0 99 65 167t159 68t159 -68t65 -167q0 -9 -1 -18.5t-2 -18.5h-352q11 -52 50.5 -85t89.5 -33q37 0 68.5 12.5t59.5 38.5zM269 380q-47 0 -83 -32t-47 -83h262q-11 51 -48 83t-84 32zM263 661
q24 0 42 -18.5t18 -42.5q0 -25 -17.5 -43t-42.5 -18t-43 18t-18 43q0 24 18.5 42.5t42.5 18.5z" />
    <glyph glyph-name="emacron" unicode="&#x113;" horiz-adv-x="530" 
d="M406 120l54 -60q-38 -35 -83 -52.5t-98 -17.5q-98 0 -166 68t-68 166q0 99 65 167t159 68t159 -68t65 -167q0 -9 -1 -18.5t-2 -18.5h-352q11 -52 50.5 -85t89.5 -33q37 0 68.5 12.5t59.5 38.5zM269 380q-47 0 -83 -32t-47 -83h262q-11 51 -48 83t-84 32zM143 626h253v-71
h-253v71z" />
    <glyph glyph-name="eogonek" unicode="&#x119;" horiz-adv-x="530" 
d="M328 -6q-13 -2 -25.5 -3t-23.5 -1q-98 0 -166 68t-68 166q0 99 65 167t159 68t159 -68t65 -167q0 -9 -1 -18.5t-2 -18.5h-352q12 -51 51 -84.5t89 -33.5q37 0 68.5 12.5t59.5 38.5l54 -60l-29 -27q-41 -38 -62 -72.5t-21 -61.5q0 -18 10 -28.5t26 -10.5q10 0 20.5 3
t20.5 9l21 -55q-17 -11 -36 -16t-41 -5q-44 0 -70 23t-26 63q0 29 13.5 56.5t41.5 55.5zM269 380q-47 0 -83 -32t-47 -83h262q-11 51 -48 83t-84 32z" />
    <glyph glyph-name="gbreve" unicode="&#x11f;" horiz-adv-x="587" 
d="M547 6q0 -95 -72.5 -155.5t-187.5 -60.5q-67 0 -129 22.5t-112 65.5l47 67q44 -37 92 -56t99 -19q77 0 125 39t48 102q0 20 -4 38t-14 40q-27 -47 -71 -73t-97 -26q-94 0 -156.5 67t-62.5 167q0 101 62.5 168t156.5 67q46 0 85 -19.5t67 -55.5l11 65h78v-306l8 -17
q13 -27 20 -59t7 -61zM143 224q0 -65 40.5 -109t101.5 -44t102 44t41 109q0 66 -41 110t-102 44t-101.5 -44t-40.5 -110zM219 663v-10q0 -34 15.5 -53t43.5 -19t43 18.5t15 52.5v11h72v-21q0 -56 -36.5 -91.5t-93.5 -35.5q-58 0 -94.5 36t-36.5 92v20h72z" />
    <glyph glyph-name="gcircumflex" unicode="&#x11d;" horiz-adv-x="587" 
d="M547 6q0 -95 -72.5 -155.5t-187.5 -60.5q-67 0 -129 22.5t-112 65.5l47 67q44 -37 92 -56t99 -19q77 0 125 39t48 102q0 20 -4 38t-14 40q-27 -47 -71 -73t-97 -26q-94 0 -156.5 67t-62.5 167q0 101 62.5 168t156.5 67q46 0 85 -19.5t67 -55.5l11 65h78v-306l8 -17
q13 -27 20 -59t7 -61zM143 224q0 -65 40.5 -109t101.5 -44t102 44t41 109q0 66 -41 110t-102 44t-101.5 -44t-40.5 -110zM277 692l156 -132l-39 -48l-118 88l-117 -88l-39 48z" />
    <glyph glyph-name="gcommaaccent" unicode="&#x123;" horiz-adv-x="587" 
d="M547 6q0 -95 -72.5 -155.5t-187.5 -60.5q-67 0 -129 22.5t-112 65.5l47 67q44 -37 92 -56t99 -19q77 0 125 39t48 102q0 20 -4 38t-14 40q-27 -47 -71 -73t-97 -26q-94 0 -156.5 67t-62.5 167q0 101 62.5 168t156.5 67q46 0 85 -19.5t67 -55.5l11 65h78v-306l8 -17
q13 -27 20 -59t7 -61zM143 224q0 -65 40.5 -109t101.5 -44t102 44t41 109q0 66 -41 110t-102 44t-101.5 -44t-40.5 -110zM337 572q0 -22 -17 -38.5t-40 -16.5t-39.5 17.5t-16.5 42.5q0 13 4 26t12 26l47 83l51 -15l-31 -77q15 -9 22.5 -21.5t7.5 -26.5z" />
    <glyph glyph-name="gdotaccent" unicode="&#x121;" horiz-adv-x="587" 
d="M547 6q0 -95 -72.5 -155.5t-187.5 -60.5q-67 0 -129 22.5t-112 65.5l47 67q44 -37 92 -56t99 -19q77 0 125 39t48 102q0 20 -4 38t-14 40q-27 -47 -71 -73t-97 -26q-94 0 -156.5 67t-62.5 167q0 101 62.5 168t156.5 67q46 0 85 -19.5t67 -55.5l11 65h78v-306l8 -17
q13 -27 20 -59t7 -61zM143 224q0 -65 40.5 -109t101.5 -44t102 44t41 109q0 66 -41 110t-102 44t-101.5 -44t-40.5 -110zM278 661q24 0 42 -18.5t18 -42.5q0 -25 -17.5 -43t-42.5 -18t-43 18t-18 43q0 24 18.5 42.5t42.5 18.5z" />
    <glyph glyph-name="hbar" unicode="&#x127;" horiz-adv-x="564" 
d="M300 376q-35 0 -67.5 -21.5t-57.5 -61.5v-293h-91v538h-74v80h74v87h91v-87h158v-80h-158v-157q28 37 67 57.5t81 20.5q80 0 125.5 -52t45.5 -144v-263h-90v252q0 58 -27.5 91t-76.5 33z" />
    <glyph glyph-name="hcircumflex" unicode="&#x125;" horiz-adv-x="558" 
d="M294 376q-35 0 -67.5 -21.5t-57.5 -61.5v-293h-91v705h91v-324q28 37 67 57.5t81 20.5q80 0 125.5 -52t45.5 -144v-263h-90v252q0 58 -27.5 91t-76.5 33zM275 933l156 -132l-39 -48l-118 88l-117 -88l-39 48z" />
    <glyph glyph-name="iacute" unicode="&#xed;" horiz-adv-x="247" 
d="M78 449h91v-449h-91v449zM52 514l-34 51l169 130l46 -73z" />
    <glyph glyph-name="icircumflex" unicode="&#xee;" horiz-adv-x="247" 
d="M78 449h91v-449h-91v449zM125 692l156 -132l-39 -48l-118 88l-117 -88l-39 48z" />
    <glyph glyph-name="idieresis" unicode="&#xef;" horiz-adv-x="247" 
d="M78 449h91v-449h-91v449zM34 652q22 0 38 -16t16 -38t-16 -38t-38 -16t-38.5 16t-16.5 38t16.5 38t38.5 16zM215 652q22 0 38.5 -16t16.5 -38t-16.5 -38t-38.5 -16t-38 16t-16 38t16 38t38 16z" />
    <glyph glyph-name="igrave" unicode="&#xec;" horiz-adv-x="247" 
d="M78 449h91v-449h-91v449zM63 695l169 -130l-33 -51l-182 108z" />
    <glyph glyph-name="ibreve" unicode="&#x12d;" horiz-adv-x="247" 
d="M78 449h91v-449h-91v449zM66 663v-10q0 -34 15.5 -53t43.5 -19t43 18.5t15 52.5v11h72v-21q0 -56 -36.5 -91.5t-93.5 -35.5q-58 0 -94.5 36t-36.5 92v20h72z" />
    <glyph glyph-name="i.dot" horiz-adv-x="247" 
d="M123 654q25 0 42.5 -17.5t17.5 -42.5t-17.5 -42.5t-42.5 -17.5q-24 0 -41.5 17.5t-17.5 42.5t17.5 42.5t41.5 17.5zM78 449h91v-449h-91v449z" />
    <glyph glyph-name="imacron" unicode="&#x12b;" horiz-adv-x="247" 
d="M78 449h91v-449h-91v449zM-2 626h253v-71h-253v71z" />
    <glyph glyph-name="iogonek" unicode="&#x12f;" horiz-adv-x="247" 
d="M123 654q25 0 42.5 -17.5t17.5 -42.5t-17.5 -42.5t-42.5 -17.5q-24 0 -41.5 17.5t-17.5 42.5t17.5 42.5t41.5 17.5zM158 -134l20 -56q-15 -7 -31 -10.5t-33 -3.5q-44 0 -70 23t-26 63q0 32 18.5 63t52.5 55h-11v449h91v-449q-36 -21 -56 -47.5t-20 -53.5q0 -18 9.5 -28.5
t26.5 -10.5q8 0 15 1.5t14 4.5z" />
    <glyph glyph-name="itilde" unicode="&#x129;" horiz-adv-x="247" 
d="M78 449h91v-449h-91v449zM219 660l58 -26q-19 -48 -42 -70.5t-53 -22.5q-14 0 -28.5 4.5t-39.5 19.5q-18 11 -26.5 14t-15.5 3q-15 0 -24.5 -9.5t-19.5 -32.5l-58 27q18 45 41.5 66t54.5 21q14 0 28 -4.5t38 -19.5q19 -11 28 -14t16 -3q14 0 23.5 10.5t19.5 36.5z" />
    <glyph glyph-name="jcircumflex" unicode="&#x135;" horiz-adv-x="248" 
d="M8 -127q32 0 51 25.5t19 69.5v481h92v-489q0 -78 -42 -124t-114 -46q-33 0 -65.5 13t-57.5 35l48 64q18 -14 35.5 -21.5t33.5 -7.5zM118 692l156 -132l-39 -48l-118 88l-117 -88l-39 48z" />
    <glyph glyph-name="ij" unicode="&#x133;" horiz-adv-x="485" 
d="M123 654q25 0 42.5 -17.5t17.5 -42.5t-17.5 -42.5t-42.5 -17.5q-24 0 -41.5 17.5t-17.5 42.5t17.5 42.5t41.5 17.5zM78 449h91v-449h-91v449zM361 654q25 0 42.5 -17.5t17.5 -42.5t-17.5 -42.5t-42.5 -17.5t-42.5 17.5t-17.5 42.5t17.5 42.5t42.5 17.5zM245 -127
q32 0 51 25.5t19 69.5v481h92v-489q0 -78 -42 -124t-114 -46q-33 0 -65.5 13t-57.5 35l48 64q18 -14 35.5 -21.5t33.5 -7.5z" />
    <glyph glyph-name="kcommaaccent" unicode="&#x137;" horiz-adv-x="520" 
d="M199 189h-30v-189h-91v705h91v-433h30q54 0 83.5 18.5t51.5 64.5l44 94h95l-44 -93q-20 -43 -39.5 -72t-40.5 -48l153 -236h-106l-124 196q-15 -4 -33 -5.5t-40 -1.5zM211 -108q0 22 16.5 38t39.5 16q24 0 40.5 -17.5t16.5 -41.5q0 -13 -4 -26t-13 -26l-53 -97l-51 15
l38 91q-14 8 -22 20.5t-8 27.5z" />
    <glyph glyph-name="kgreenlandic" unicode="&#x138;" horiz-adv-x="520" 
d="M199 189h-30v-189h-91v449h91v-177h30q53 0 82.5 18t52.5 65l44 94h95l-44 -93q-20 -43 -39.5 -72t-40.5 -48l153 -236h-106l-124 196q-15 -4 -33 -5.5t-40 -1.5z" />
    <glyph glyph-name="lacute" unicode="&#x13a;" horiz-adv-x="247" 
d="M78 705h91v-705h-91v705zM62 752l-34 51l169 130l46 -73z" />
    <glyph glyph-name="lcaron" unicode="&#x13e;" horiz-adv-x="295" 
d="M78 705h91v-705h-91v705zM315 705l-14 -184h-66v184h80z" />
    <glyph glyph-name="lcommaaccent" unicode="&#x13c;" horiz-adv-x="247" 
d="M78 705h91v-705h-91v705zM67 -108q0 22 16.5 38t39.5 16q24 0 40.5 -17.5t16.5 -41.5q0 -13 -4 -26t-13 -26l-53 -97l-51 15l38 91q-14 8 -22 20.5t-8 27.5z" />
    <glyph glyph-name="ldot" unicode="&#x140;" horiz-adv-x="311" 
d="M78 705h91v-705h-91v705zM280 388q25 0 43 -17.5t18 -42.5t-18 -43t-43 -18t-43 18t-18 43t18 42.5t43 17.5z" />
    <glyph glyph-name="ntilde" unicode="&#xf1;" horiz-adv-x="559" 
d="M294 376q-35 0 -67.5 -21.5t-57.5 -61.5v-293h-91v449h78l13 -69q28 37 67 58t81 21q81 0 126.5 -52t45.5 -144v-263h-91v252q0 58 -27.5 91t-76.5 33zM380 660l58 -26q-19 -48 -42 -70.5t-53 -22.5q-14 0 -28.5 4.5t-39.5 19.5q-18 11 -26.5 14t-15.5 3
q-15 0 -24.5 -9.5t-19.5 -32.5l-58 27q18 45 41.5 66t54.5 21q14 0 28 -4.5t38 -19.5q19 -11 28 -14t16 -3q14 0 23.5 10.5t19.5 36.5z" />
    <glyph glyph-name="nacute" unicode="&#x144;" horiz-adv-x="559" 
d="M294 376q-35 0 -67.5 -21.5t-57.5 -61.5v-293h-91v449h78l13 -69q28 37 67 58t81 21q81 0 126.5 -52t45.5 -144v-263h-91v252q0 58 -27.5 91t-76.5 33zM219 514l-34 51l169 130l46 -73z" />
    <glyph glyph-name="ncaron" unicode="&#x148;" horiz-adv-x="559" 
d="M294 376q-35 0 -67.5 -21.5t-57.5 -61.5v-293h-91v449h78l13 -69q28 37 67 58t81 21q81 0 126.5 -52t45.5 -144v-263h-91v252q0 58 -27.5 91t-76.5 33zM401 692l39 -48l-156 -132l-157 132l39 48l118 -88z" />
    <glyph glyph-name="ncommaaccent" unicode="&#x146;" horiz-adv-x="559" 
d="M294 376q-35 0 -67.5 -21.5t-57.5 -61.5v-293h-91v449h78l13 -69q28 37 67 58t81 21q81 0 126.5 -52t45.5 -144v-263h-91v252q0 58 -27.5 91t-76.5 33zM222 -108q0 22 16.5 38t39.5 16q24 0 40.5 -17.5t16.5 -41.5q0 -13 -4 -26t-13 -26l-53 -97l-51 15l38 91
q-14 8 -22 20.5t-8 27.5z" />
    <glyph glyph-name="eng" unicode="&#x14b;" horiz-adv-x="559" 
d="M317 459q81 0 126.5 -52t45.5 -144v-303q0 -78 -42 -124t-113 -46q-33 0 -66.5 13t-58.5 35l49 64q18 -14 35.5 -21.5t33.5 -7.5q33 0 52 25.5t19 69.5v284q0 58 -27.5 91t-76.5 33q-35 0 -67.5 -21.5t-57.5 -61.5v-293h-91v449h78l13 -69q28 37 67 58t81 21z" />
    <glyph glyph-name="napostrophe" unicode="&#x149;" horiz-adv-x="593" 
d="M328 376q-35 0 -67.5 -21.5t-57.5 -61.5v-293h-91v449h78l13 -69q28 37 67 58t81 21q81 0 126.5 -52t45.5 -144v-263h-91v252q0 58 -27.5 91t-76.5 33zM122 685l-79 -230h-65l44 230h100z" />
    <glyph glyph-name="oacute" unicode="&#xf3;" horiz-adv-x="558" 
d="M279 459q100 0 166.5 -67t66.5 -168t-66.5 -167.5t-166.5 -66.5t-166.5 66.5t-66.5 167.5t66.5 168t166.5 67zM279 378q-61 0 -101.5 -44t-40.5 -110q0 -65 40.5 -109t101.5 -44t101.5 43.5t40.5 109.5t-40.5 110t-101.5 44zM205 514l-34 51l169 130l46 -73z" />
    <glyph glyph-name="ocircumflex" unicode="&#xf4;" horiz-adv-x="558" 
d="M279 459q100 0 166.5 -67t66.5 -168t-66.5 -167.5t-166.5 -66.5t-166.5 66.5t-66.5 167.5t66.5 168t166.5 67zM279 378q-61 0 -101.5 -44t-40.5 -110q0 -65 40.5 -109t101.5 -44t101.5 43.5t40.5 109.5t-40.5 110t-101.5 44zM278 692l156 -132l-39 -48l-118 88l-117 -88
l-39 48z" />
    <glyph glyph-name="odieresis" unicode="&#xf6;" horiz-adv-x="558" 
d="M279 459q100 0 166.5 -67t66.5 -168t-66.5 -167.5t-166.5 -66.5t-166.5 66.5t-66.5 167.5t66.5 168t166.5 67zM279 378q-61 0 -101.5 -44t-40.5 -110q0 -65 40.5 -109t101.5 -44t101.5 43.5t40.5 109.5t-40.5 110t-101.5 44zM187 652q22 0 38 -16t16 -38t-16 -38t-38 -16
t-38.5 16t-16.5 38t16.5 38t38.5 16zM368 652q22 0 38.5 -16t16.5 -38t-16.5 -38t-38.5 -16t-38 16t-16 38t16 38t38 16z" />
    <glyph glyph-name="ograve" unicode="&#xf2;" horiz-adv-x="558" 
d="M279 459q100 0 166.5 -67t66.5 -168t-66.5 -167.5t-166.5 -66.5t-166.5 66.5t-66.5 167.5t66.5 168t166.5 67zM279 378q-61 0 -101.5 -44t-40.5 -110q0 -65 40.5 -109t101.5 -44t101.5 43.5t40.5 109.5t-40.5 110t-101.5 44zM214 695l169 -130l-33 -51l-182 108z" />
    <glyph glyph-name="otilde" unicode="&#xf5;" horiz-adv-x="558" 
d="M279 459q100 0 166.5 -67t66.5 -168t-66.5 -167.5t-166.5 -66.5t-166.5 66.5t-66.5 167.5t66.5 168t166.5 67zM279 378q-61 0 -101.5 -44t-40.5 -110q0 -65 40.5 -109t101.5 -44t101.5 43.5t40.5 109.5t-40.5 110t-101.5 44zM372 660l58 -26q-19 -48 -42 -70.5t-53 -22.5
q-14 0 -28.5 4.5t-39.5 19.5q-18 11 -26.5 14t-15.5 3q-15 0 -24.5 -9.5t-19.5 -32.5l-58 27q18 45 41.5 66t54.5 21q14 0 28 -4.5t38 -19.5q19 -11 28 -14t16 -3q14 0 23.5 10.5t19.5 36.5z" />
    <glyph glyph-name="obreve" unicode="&#x14f;" horiz-adv-x="558" 
d="M279 459q100 0 166.5 -67t66.5 -168t-66.5 -167.5t-166.5 -66.5t-166.5 66.5t-66.5 167.5t66.5 168t166.5 67zM279 378q-61 0 -101.5 -44t-40.5 -110q0 -65 40.5 -109t101.5 -44t101.5 43.5t40.5 109.5t-40.5 110t-101.5 44zM219 663v-10q0 -34 15.5 -53t43.5 -19
t43 18.5t15 52.5v11h72v-21q0 -56 -36.5 -91.5t-93.5 -35.5q-58 0 -94.5 36t-36.5 92v20h72z" />
    <glyph glyph-name="ohungarumlaut" unicode="&#x151;" horiz-adv-x="558" 
d="M279 459q100 0 166.5 -67t66.5 -168t-66.5 -167.5t-166.5 -66.5t-166.5 66.5t-66.5 167.5t66.5 168t166.5 67zM279 378q-61 0 -101.5 -44t-40.5 -110q0 -65 40.5 -109t101.5 -44t101.5 43.5t40.5 109.5t-40.5 110t-101.5 44zM195 513l-48 33l105 169l67 -45zM365 513
l-48 33l105 169l68 -45z" />
    <glyph glyph-name="omacron" unicode="&#x14d;" horiz-adv-x="558" 
d="M279 459q100 0 166.5 -67t66.5 -168t-66.5 -167.5t-166.5 -66.5t-166.5 66.5t-66.5 167.5t66.5 168t166.5 67zM279 378q-61 0 -101.5 -44t-40.5 -110q0 -65 40.5 -109t101.5 -44t101.5 43.5t40.5 109.5t-40.5 110t-101.5 44zM151 626h253v-71h-253v71z" />
    <glyph glyph-name="racute" unicode="&#x155;" horiz-adv-x="358" 
d="M294 363q-39 0 -70.5 -17.5t-54.5 -51.5v-294h-91v449h78l13 -68q28 37 65 57.5t77 20.5q11 0 20 -1t16 -3l-21 -96q-7 2 -15.5 3t-16.5 1zM150 514l-34 51l169 130l46 -73z" />
    <glyph glyph-name="rcaron" unicode="&#x159;" horiz-adv-x="358" 
d="M294 363q-39 0 -70.5 -17.5t-54.5 -51.5v-294h-91v449h78l13 -68q28 37 65 57.5t77 20.5q11 0 20 -1t16 -3l-21 -96q-7 2 -15.5 3t-16.5 1zM310 692l39 -48l-156 -132l-157 132l39 48l118 -88z" />
    <glyph glyph-name="rcommaaccent" unicode="&#x157;" horiz-adv-x="358" 
d="M294 363q-39 0 -70.5 -17.5t-54.5 -51.5v-294h-91v449h78l13 -68q28 37 65 57.5t77 20.5q11 0 20 -1t16 -3l-21 -96q-7 2 -15.5 3t-16.5 1zM65 -108q0 22 16.5 38t39.5 16q24 0 40.5 -17.5t16.5 -41.5q0 -13 -4 -26t-13 -26l-53 -97l-51 15l38 91q-14 8 -22 20.5t-8 27.5
z" />
    <glyph glyph-name="scaron" unicode="&#x161;" horiz-adv-x="423" 
d="M204 190q-79 23 -113 56t-34 87q0 56 43.5 91t113.5 35q43 0 82.5 -13.5t71.5 -39.5l-46 -64q-23 20 -52.5 32t-56.5 12q-32 0 -51 -14t-19 -37q0 -24 21.5 -39t81.5 -32q70 -20 103.5 -53.5t33.5 -84.5q0 -62 -46.5 -99t-123.5 -37q-50 0 -94.5 17t-84.5 51l47 64
q31 -29 63.5 -43.5t68.5 -14.5q38 0 61 16.5t23 43.5q0 23 -19 36.5t-74 29.5zM337 692l39 -48l-156 -132l-157 132l39 48l118 -88z" />
    <glyph glyph-name="sacute" unicode="&#x15b;" horiz-adv-x="423" 
d="M204 190q-79 23 -113 56t-34 87q0 56 43.5 91t113.5 35q43 0 82.5 -13.5t71.5 -39.5l-46 -64q-23 20 -52.5 32t-56.5 12q-32 0 -51 -14t-19 -37q0 -24 21.5 -39t81.5 -32q70 -20 103.5 -53.5t33.5 -84.5q0 -62 -46.5 -99t-123.5 -37q-50 0 -94.5 17t-84.5 51l47 64
q31 -29 63.5 -43.5t68.5 -14.5q38 0 61 16.5t23 43.5q0 23 -19 36.5t-74 29.5zM144 514l-34 51l169 130l46 -73z" />
    <glyph glyph-name="scedilla" unicode="&#x15f;" horiz-adv-x="423" 
d="M307 -129q0 -38 -28.5 -61.5t-73.5 -23.5q-24 0 -44.5 4.5t-42.5 15.5l18 53q17 -8 31.5 -12t27.5 -4q17 0 27 8.5t10 21.5q0 15 -10.5 22.5t-32.5 7.5l-34 33l18 57q-38 5 -72.5 21t-66.5 44l47 64q31 -29 63.5 -43.5t68.5 -14.5q38 0 61 16.5t23 43.5q0 23 -19 36.5
t-74 29.5q-79 23 -113 56t-34 87q0 56 43.5 91t113.5 35q43 0 82.5 -13.5t71.5 -39.5l-46 -64q-23 20 -52.5 32t-56.5 12q-32 0 -51 -14t-19 -37q0 -24 21.5 -39t81.5 -32q70 -20 103.5 -53.5t33.5 -84.5q0 -58 -40.5 -94t-110.5 -41l-12 -37q41 -4 64 -25.5t23 -57.5z" />
    <glyph glyph-name="scircumflex" unicode="&#x15d;" horiz-adv-x="423" 
d="M204 190q-79 23 -113 56t-34 87q0 56 43.5 91t113.5 35q43 0 82.5 -13.5t71.5 -39.5l-46 -64q-23 20 -52.5 32t-56.5 12q-32 0 -51 -14t-19 -37q0 -24 21.5 -39t81.5 -32q70 -20 103.5 -53.5t33.5 -84.5q0 -62 -46.5 -99t-123.5 -37q-50 0 -94.5 17t-84.5 51l47 64
q31 -29 63.5 -43.5t68.5 -14.5q38 0 61 16.5t23 43.5q0 23 -19 36.5t-74 29.5zM217 692l156 -132l-39 -48l-118 88l-117 -88l-39 48z" />
    <glyph glyph-name="uni0219" unicode="&#x219;" horiz-adv-x="423" 
d="M204 190q-79 23 -113 56t-34 87q0 56 43.5 91t113.5 35q43 0 82.5 -13.5t71.5 -39.5l-46 -64q-23 20 -52.5 32t-56.5 12q-32 0 -51 -14t-19 -37q0 -24 21.5 -39t81.5 -32q70 -20 103.5 -53.5t33.5 -84.5q0 -62 -46.5 -99t-123.5 -37q-50 0 -94.5 17t-84.5 51l47 64
q31 -29 63.5 -43.5t68.5 -14.5q38 0 61 16.5t23 43.5q0 23 -19 36.5t-74 29.5zM153 -108q0 22 16.5 38t39.5 16q24 0 40.5 -17.5t16.5 -41.5q0 -13 -4 -26t-13 -26l-53 -97l-51 15l38 91q-14 8 -22 20.5t-8 27.5z" />
    <glyph glyph-name="tbar" unicode="&#x167;" horiz-adv-x="416" 
d="M116 373h-94v71l94 5h4l12 128h75v-128h155v-76h-155v-94h155v-76h-155v-48q0 -38 18.5 -60.5t49.5 -22.5q18 0 36.5 8.5t35.5 25.5l46 -62q-26 -26 -59 -40t-69 -14q-70 0 -109.5 43.5t-39.5 120.5v49h-94v76h94v94z" />
    <glyph glyph-name="tcaron" unicode="&#x165;" horiz-adv-x="416" 
d="M116 370h-94v74l94 5h4l12 128h75v-128h155v-79h-155v-215q0 -38 18.5 -60.5t49.5 -22.5q18 0 36.5 8.5t35.5 25.5l46 -62q-26 -26 -59 -40t-69 -14q-70 0 -109.5 43.5t-39.5 120.5v216zM344 691l-14 -184h-66v184h80z" />
    <glyph glyph-name="uni0163" unicode="&#x163;" horiz-adv-x="416" 
d="M116 370h-94v74l94 5h4l12 128h75v-128h155v-79h-155v-215q0 -38 18.5 -60.5t49.5 -22.5q18 0 36.5 8.5t35.5 25.5l46 -62q-26 -26 -59 -40t-69 -14q-70 0 -109.5 43.5t-39.5 120.5v216zM159 -108q0 22 16.5 38t39.5 16q24 0 40.5 -17.5t16.5 -41.5q0 -13 -4 -26t-13 -26
l-53 -97l-51 15l38 91q-14 8 -22 20.5t-8 27.5z" />
    <glyph glyph-name="uni021B" unicode="&#x21b;" horiz-adv-x="416" 
d="M116 370h-94v74l94 5h4l12 128h75v-128h155v-79h-155v-215q0 -38 18.5 -60.5t49.5 -22.5q18 0 36.5 8.5t35.5 25.5l46 -62q-26 -26 -59 -40t-69 -14q-70 0 -109.5 43.5t-39.5 120.5v216zM159 -108q0 22 16.5 38t39.5 16q24 0 40.5 -17.5t16.5 -41.5q0 -13 -4 -26t-13 -26
l-53 -97l-51 15l38 91q-14 8 -22 20.5t-8 27.5z" />
    <glyph glyph-name="uacute" unicode="&#xfa;" horiz-adv-x="551" 
d="M473 0h-78l-13 64q-27 -35 -65.5 -54.5t-79.5 -19.5q-79 0 -123 49.5t-44 138.5v271h91v-260q0 -55 26 -85.5t73 -30.5q34 0 65.5 20t55.5 58v298h92v-449zM208 514l-34 51l169 130l46 -73z" />
    <glyph glyph-name="ucircumflex" unicode="&#xfb;" horiz-adv-x="551" 
d="M473 0h-78l-13 64q-27 -35 -65.5 -54.5t-79.5 -19.5q-79 0 -123 49.5t-44 138.5v271h91v-260q0 -55 26 -85.5t73 -30.5q34 0 65.5 20t55.5 58v298h92v-449zM275 692l156 -132l-39 -48l-118 88l-117 -88l-39 48z" />
    <glyph glyph-name="udieresis" unicode="&#xfc;" horiz-adv-x="551" 
d="M473 0h-78l-13 64q-27 -35 -65.5 -54.5t-79.5 -19.5q-79 0 -123 49.5t-44 138.5v271h91v-260q0 -55 26 -85.5t73 -30.5q34 0 65.5 20t55.5 58v298h92v-449zM184 652q22 0 38 -16t16 -38t-16 -38t-38 -16t-38.5 16t-16.5 38t16.5 38t38.5 16zM365 652q22 0 38.5 -16
t16.5 -38t-16.5 -38t-38.5 -16t-38 16t-16 38t16 38t38 16z" />
    <glyph glyph-name="ugrave" unicode="&#xf9;" horiz-adv-x="551" 
d="M473 0h-78l-13 64q-27 -35 -65.5 -54.5t-79.5 -19.5q-79 0 -123 49.5t-44 138.5v271h91v-260q0 -55 26 -85.5t73 -30.5q34 0 65.5 20t55.5 58v298h92v-449zM210 695l169 -130l-33 -51l-182 108z" />
    <glyph glyph-name="ubreve" unicode="&#x16d;" horiz-adv-x="551" 
d="M473 0h-78l-13 64q-27 -35 -65.5 -54.5t-79.5 -19.5q-79 0 -123 49.5t-44 138.5v271h91v-260q0 -55 26 -85.5t73 -30.5q34 0 65.5 20t55.5 58v298h92v-449zM216 663v-10q0 -34 15.5 -53t43.5 -19t43 18.5t15 52.5v11h72v-21q0 -56 -36.5 -91.5t-93.5 -35.5
q-58 0 -94.5 36t-36.5 92v20h72z" />
    <glyph glyph-name="uhungarumlaut" unicode="&#x171;" horiz-adv-x="551" 
d="M473 0h-78l-13 64q-27 -35 -65.5 -54.5t-79.5 -19.5q-79 0 -123 49.5t-44 138.5v271h91v-260q0 -55 26 -85.5t73 -30.5q34 0 65.5 20t55.5 58v298h92v-449zM193 513l-48 33l105 169l67 -45zM363 513l-48 33l105 169l68 -45z" />
    <glyph glyph-name="umacron" unicode="&#x16b;" horiz-adv-x="551" 
d="M473 0h-78l-13 64q-27 -35 -65.5 -54.5t-79.5 -19.5q-79 0 -123 49.5t-44 138.5v271h91v-260q0 -55 26 -85.5t73 -30.5q34 0 65.5 20t55.5 58v298h92v-449zM148 626h253v-71h-253v71z" />
    <glyph glyph-name="uogonek" unicode="&#x173;" horiz-adv-x="551" 
d="M462 -134l20 -56q-15 -7 -31 -10.5t-33 -3.5q-44 0 -70 23t-26 63q0 32 19 63.5t54 55.5l-13 63q-27 -35 -65.5 -54.5t-79.5 -19.5q-79 0 -123 49.5t-44 138.5v271h91v-260q0 -55 26 -85.5t73 -30.5q34 0 65.5 20t55.5 58v298h92v-449q-36 -21 -56 -47.5t-20 -53.5
q0 -18 9.5 -28.5t26.5 -10.5q8 0 15 1.5t14 4.5z" />
    <glyph glyph-name="uring" unicode="&#x16f;" horiz-adv-x="551" 
d="M473 0h-78l-13 64q-27 -35 -65.5 -54.5t-79.5 -19.5q-79 0 -123 49.5t-44 138.5v271h91v-260q0 -55 26 -85.5t73 -30.5q34 0 65.5 20t55.5 58v298h92v-449zM275 501q-45 0 -76.5 30.5t-31.5 73.5t31.5 73.5t76.5 30.5q44 0 75.5 -30.5t31.5 -73.5t-31.5 -73.5
t-75.5 -30.5zM275 554q21 0 35 15t14 36t-14 36t-35 15t-35.5 -14.5t-14.5 -36.5t14.5 -36.5t35.5 -14.5z" />
    <glyph glyph-name="utilde" unicode="&#x169;" horiz-adv-x="551" 
d="M473 0h-78l-13 64q-27 -35 -65.5 -54.5t-79.5 -19.5q-79 0 -123 49.5t-44 138.5v271h91v-260q0 -55 26 -85.5t73 -30.5q34 0 65.5 20t55.5 58v298h92v-449zM369 660l58 -26q-19 -48 -42 -70.5t-53 -22.5q-14 0 -28.5 4.5t-39.5 19.5q-18 11 -26.5 14t-15.5 3
q-15 0 -24.5 -9.5t-19.5 -32.5l-58 27q18 45 41.5 66t54.5 21q14 0 28 -4.5t38 -19.5q19 -11 28 -14t16 -3q14 0 23.5 10.5t19.5 36.5z" />
    <glyph glyph-name="wacute" unicode="&#x1e83;" horiz-adv-x="761" 
d="M561 0h-93l-87 206l-88 -206h-94l-190 449h93l151 -361l86 204l-66 157h83l30 -70l29 70h79l-64 -152l84 -202l149 354h89zM318 514l-34 51l169 130l46 -73z" />
    <glyph glyph-name="wcircumflex" unicode="&#x175;" horiz-adv-x="761" 
d="M561 0h-93l-87 206l-88 -206h-94l-190 449h93l151 -361l86 204l-66 157h83l30 -70l29 70h79l-64 -152l84 -202l149 354h89zM378 692l156 -132l-39 -48l-118 88l-117 -88l-39 48z" />
    <glyph glyph-name="wdieresis" unicode="&#x1e85;" horiz-adv-x="761" 
d="M561 0h-93l-87 206l-88 -206h-94l-190 449h93l151 -361l86 204l-66 157h83l30 -70l29 70h79l-64 -152l84 -202l149 354h89zM287 652q22 0 38 -16t16 -38t-16 -38t-38 -16t-38.5 16t-16.5 38t16.5 38t38.5 16zM468 652q22 0 38.5 -16t16.5 -38t-16.5 -38t-38.5 -16t-38 16
t-16 38t16 38t38 16z" />
    <glyph glyph-name="wgrave" unicode="&#x1e81;" horiz-adv-x="761" 
d="M561 0h-93l-87 206l-88 -206h-94l-190 449h93l151 -361l86 204l-66 157h83l30 -70l29 70h79l-64 -152l84 -202l149 354h89zM307 695l169 -130l-33 -51l-182 108z" />
    <glyph glyph-name="yacute" unicode="&#xfd;" horiz-adv-x="552" 
d="M503 6q0 -94 -68.5 -155t-171.5 -61q-61 0 -117 18.5t-102 54.5l44 68q40 -31 81.5 -46t86.5 -15q69 0 113 39.5t44 101.5q0 21 -4 40.5t-13 39.5q-27 -47 -70.5 -74t-92.5 -27q-79 0 -123 49.5t-44 138.5v271h91v-260q0 -55 26 -85.5t73 -30.5q34 0 65.5 20t55.5 58v298
h92v-306l8 -17q13 -26 19.5 -57.5t6.5 -62.5zM215 514l-34 51l169 130l46 -73z" />
    <glyph glyph-name="ydieresis" unicode="&#xff;" horiz-adv-x="552" 
d="M503 6q0 -94 -68.5 -155t-171.5 -61q-61 0 -117 18.5t-102 54.5l44 68q40 -31 81.5 -46t86.5 -15q69 0 113 39.5t44 101.5q0 21 -4 40.5t-13 39.5q-27 -47 -70.5 -74t-92.5 -27q-79 0 -123 49.5t-44 138.5v271h91v-260q0 -55 26 -85.5t73 -30.5q34 0 65.5 20t55.5 58v298
h92v-306l8 -17q13 -26 19.5 -57.5t6.5 -62.5zM180 652q22 0 38 -16t16 -38t-16 -38t-38 -16t-38.5 16t-16.5 38t16.5 38t38.5 16zM361 652q22 0 38.5 -16t16.5 -38t-16.5 -38t-38.5 -16t-38 16t-16 38t16 38t38 16z" />
    <glyph glyph-name="ycircumflex" unicode="&#x177;" horiz-adv-x="552" 
d="M503 6q0 -94 -68.5 -155t-171.5 -61q-61 0 -117 18.5t-102 54.5l44 68q40 -31 81.5 -46t86.5 -15q69 0 113 39.5t44 101.5q0 21 -4 40.5t-13 39.5q-27 -47 -70.5 -74t-92.5 -27q-79 0 -123 49.5t-44 138.5v271h91v-260q0 -55 26 -85.5t73 -30.5q34 0 65.5 20t55.5 58v298
h92v-306l8 -17q13 -26 19.5 -57.5t6.5 -62.5zM271 692l156 -132l-39 -48l-118 88l-117 -88l-39 48z" />
    <glyph glyph-name="ygrave" unicode="&#x1ef3;" horiz-adv-x="552" 
d="M503 6q0 -94 -68.5 -155t-171.5 -61q-61 0 -117 18.5t-102 54.5l44 68q40 -31 81.5 -46t86.5 -15q69 0 113 39.5t44 101.5q0 21 -4 40.5t-13 39.5q-27 -47 -70.5 -74t-92.5 -27q-79 0 -123 49.5t-44 138.5v271h91v-260q0 -55 26 -85.5t73 -30.5q34 0 65.5 20t55.5 58v298
h92v-306l8 -17q13 -26 19.5 -57.5t6.5 -62.5zM194 695l169 -130l-33 -51l-182 108z" />
    <glyph glyph-name="zcaron" unicode="&#x17e;" horiz-adv-x="448" 
d="M150 79h260v-79h-373v66l248 304h-238v79h353v-63zM341 692l39 -48l-156 -132l-157 132l39 48l118 -88z" />
    <glyph glyph-name="zacute" unicode="&#x17a;" horiz-adv-x="448" 
d="M150 79h260v-79h-373v66l248 304h-238v79h353v-63zM171 514l-34 51l169 130l46 -73z" />
    <glyph glyph-name="zdotaccent" unicode="&#x17c;" horiz-adv-x="448" 
d="M150 79h260v-79h-373v66l248 304h-238v79h353v-63zM222 661q24 0 42 -18.5t18 -42.5q0 -25 -17.5 -43t-42.5 -18t-43 18t-18 43q0 24 18.5 42.5t42.5 18.5z" />
    <glyph glyph-name="acute" unicode="&#xb4;" horiz-adv-x="500" 
d="M177 514l-34 51l169 130l46 -73z" />
    <glyph glyph-name="grave" unicode="`" horiz-adv-x="500" 
d="M189 695l169 -130l-33 -51l-182 108z" />
    <glyph glyph-name="circumflex" unicode="&#x2c6;" horiz-adv-x="500" 
d="M250 692l156 -132l-39 -48l-118 88l-117 -88l-39 48z" />
    <glyph glyph-name="caron" unicode="&#x2c7;" horiz-adv-x="500" 
d="M367 692l39 -48l-156 -132l-157 132l39 48l118 -88z" />
    <glyph glyph-name="tilde" unicode="&#x2dc;" horiz-adv-x="500" 
d="M344 660l58 -26q-19 -48 -42 -70.5t-53 -22.5q-14 0 -28.5 4.5t-39.5 19.5q-18 11 -26.5 14t-15.5 3q-15 0 -24.5 -9.5t-19.5 -32.5l-58 27q18 45 41.5 66t54.5 21q14 0 28 -4.5t38 -19.5q19 -11 28 -14t16 -3q14 0 23.5 10.5t19.5 36.5z" />
    <glyph glyph-name="dieresis" unicode="&#xa8;" horiz-adv-x="500" 
d="M159 652q22 0 38 -16t16 -38t-16 -38t-38 -16t-38.5 16t-16.5 38t16.5 38t38.5 16zM340 652q22 0 38.5 -16t16.5 -38t-16.5 -38t-38.5 -16t-38 16t-16 38t16 38t38 16z" />
    <glyph glyph-name="ring" unicode="&#x2da;" horiz-adv-x="500" 
d="M250 501q-45 0 -76.5 30.5t-31.5 73.5t31.5 73.5t76.5 30.5q44 0 75.5 -30.5t31.5 -73.5t-31.5 -73.5t-75.5 -30.5zM250 554q21 0 35 15t14 36t-14 36t-35 15t-35.5 -14.5t-14.5 -36.5t14.5 -36.5t35.5 -14.5z" />
    <glyph glyph-name="cedilla" unicode="&#xb8;" horiz-adv-x="500" 
d="M340 -129q0 -38 -28.5 -61.5t-73.5 -23.5q-24 0 -44.5 4.5t-42.5 15.5l18 53q17 -8 31.5 -12t27.5 -4q17 0 27 8.5t10 21.5q0 15 -10.5 22.5t-32.5 7.5l-34 33l26 82h60l-21 -64q41 -4 64 -25.5t23 -57.5z" />
    <glyph glyph-name="hungarumlaut" unicode="&#x2dd;" horiz-adv-x="500" 
d="M130 513l-48 33l105 169l67 -45zM300 513l-48 33l105 169l68 -45z" />
    <glyph glyph-name="breve" unicode="&#x2d8;" horiz-adv-x="500" 
d="M191 663v-10q0 -34 15.5 -53t43.5 -19t43 18.5t15 52.5v11h72v-21q0 -56 -36.5 -91.5t-93.5 -35.5q-58 0 -94.5 36t-36.5 92v20h72z" />
    <glyph glyph-name="macron" unicode="&#xaf;" horiz-adv-x="500" 
d="M123 626h253v-71h-253v71z" />
    <glyph glyph-name="dotaccent" unicode="&#x2d9;" horiz-adv-x="500" 
d="M250 661q24 0 42 -18.5t18 -42.5q0 -25 -17.5 -43t-42.5 -18t-43 18t-18 43q0 24 18.5 42.5t42.5 18.5z" />
    <glyph glyph-name="periodcentered" unicode="&#xb7;" horiz-adv-x="310" 
d="M155 378q25 0 43 -17.5t18 -42.5t-18 -43t-43 -18t-43 18t-18 43t18 42.5t43 17.5z" />
    <glyph glyph-name="ogonek" unicode="&#x2db;" horiz-adv-x="500" 
d="M160 -118q0 36 23.5 70.5t65.5 59.5l62 -12q-36 -21 -56 -47.5t-20 -53.5q0 -18 9.5 -28.5t26.5 -10.5q8 0 15 1.5t14 4.5l20 -56q-15 -7 -31 -10.5t-33 -3.5q-44 0 -70 23t-26 63z" />
    <glyph glyph-name="commaaccent" unicode="&#xf6c3;" horiz-adv-x="500" 
d="M192 -108q0 22 16.5 38t39.5 16q24 0 40.5 -17.5t16.5 -41.5q0 -13 -4 -26t-13 -26l-53 -97l-51 15l38 91q-14 8 -22 20.5t-8 27.5z" />
    <glyph glyph-name="caron.alt" horiz-adv-x="500" 
d="M363 685l-14 -184h-66v184h80z" />
    <glyph glyph-name="revcommaaccent" horiz-adv-x="500" 
d="M309 572q0 -22 -17 -38.5t-40 -16.5t-39.5 17.5t-16.5 42.5q0 13 4 26t12 26l47 83l51 -15l-31 -77q15 -9 22.5 -21.5t7.5 -26.5z" />
    <glyph glyph-name="afii10017" unicode="&#x410;" horiz-adv-x="687" 
d="M668 0h-98l-70 174h-317l-69 -174h-95l279 685h92zM342 570l-125 -312h250z" />
    <glyph glyph-name="afii10018" unicode="&#x411;" horiz-adv-x="601" 
d="M298 0h-202v685h398v-84h-305v-200h109q114 0 182 -54t68 -147t-68 -146.5t-182 -53.5zM452 200q0 56 -40 86.5t-110 30.5h-113v-234h113q70 0 110 31t40 86z" />
    <glyph glyph-name="afii10019" unicode="&#x412;" horiz-adv-x="613" 
d="M298 0h-202v685h197q109 0 171 -47.5t62 -131.5q0 -48 -26 -86t-75 -62q63 -24 97 -67t34 -99q0 -88 -69.5 -140t-188.5 -52zM432 499q0 48 -36 76t-98 28h-109v-208h109q62 0 98 28t36 76zM462 197q0 55 -41.5 85.5t-117.5 30.5h-114v-231h114q76 0 117.5 30t41.5 85z
" />
    <glyph glyph-name="afii10020" unicode="&#x413;" horiz-adv-x="506" 
d="M189 0h-93v685h390v-84h-297v-601z" />
    <glyph glyph-name="afii10021" unicode="&#x414;" horiz-adv-x="726" 
d="M317 685h92l235 -602h59v-253h-91v170h-498v-170h-91v253h59zM361 570l-185 -487h369z" />
    <glyph glyph-name="afii10022" unicode="&#x415;" horiz-adv-x="566" 
d="M511 0h-415v685h415v-84h-320v-206h297v-84h-297v-227h320v-84z" />
    <glyph glyph-name="afii10023" unicode="&#x401;" horiz-adv-x="566" 
d="M511 0h-415v685h415v-84h-320v-206h297v-84h-297v-227h320v-84zM194 887q22 0 38 -16t16 -38t-16 -38t-38 -16t-38.5 16t-16.5 38t16.5 38t38.5 16zM375 887q22 0 38.5 -16t16.5 -38t-16.5 -38t-38.5 -16t-38 16t-16 38t16 38t38 16z" />
    <glyph glyph-name="afii10024" unicode="&#x416;" horiz-adv-x="971" 
d="M439 308h-11q-24 0 -42 2t-32 6l-223 -316h-112l254 358q-22 19 -46.5 50.5t-59.5 86.5l-122 190h102l121 -191q44 -68 73.5 -85t86.5 -17h11v293h94v-293h11q57 0 86.5 17t72.5 85l121 191h102l-122 -190q-35 -54 -59.5 -86t-46.5 -52l254 -357h-112l-222 316
q-15 -4 -33 -6t-42 -2h-10v-308h-94v308z" />
    <glyph glyph-name="afii10025" unicode="&#x417;" horiz-adv-x="611" 
d="M460 194q0 56 -45.5 89.5t-118.5 33.5h-109v80h99q66 0 107 29t41 78t-37 78t-97 29q-50 0 -99.5 -23t-89.5 -64l-50 62q49 52 112 80.5t130 28.5q100 0 162.5 -49.5t62.5 -131.5q0 -53 -30 -92.5t-85 -61.5q68 -22 105 -66.5t37 -105.5q0 -89 -70.5 -143.5t-181.5 -54.5
q-76 0 -140 28t-115 83l54 62q39 -43 91 -66.5t107 -23.5q71 0 115.5 33t44.5 88z" />
    <glyph glyph-name="afii10026" unicode="&#x418;" horiz-adv-x="723" 
d="M627 0h-89v547l-350 -547h-92v685h89v-548l351 548h91v-685z" />
    <glyph glyph-name="afii10027" unicode="&#x419;" horiz-adv-x="724" 
d="M627 0h-89v547l-350 -547h-92v685h89v-548l351 548h91v-685zM371 742q-68 0 -112 37t-44 95v22h75v-19q0 -35 21 -54t60 -19q40 0 60.5 18.5t20.5 52.5v21h75v-24q0 -58 -43.5 -94t-112.5 -36z" />
    <glyph glyph-name="afii10028" unicode="&#x41a;" horiz-adv-x="644" 
d="M222 307h-31v-307h-95v685h95v-294h30q61 0 92 19.5t71 83.5l117 191h100l-117 -191q-33 -53 -55 -83.5t-42 -50.5l238 -360h-110l-208 315q-17 -4 -37 -6t-48 -2z" />
    <glyph glyph-name="afii10029" unicode="&#x41b;" horiz-adv-x="655" 
d="M636 0h-99l-212 570l-212 -570h-94l262 685h93z" />
    <glyph glyph-name="afii10030" unicode="&#x41c;" horiz-adv-x="939" 
d="M519 0h-98l-186 527l-81 -527h-90l106 685h95l206 -583l205 583h93l106 -685h-90l-80 525z" />
    <glyph glyph-name="afii10031" unicode="&#x41d;" horiz-adv-x="738" 
d="M642 0h-95v312h-356v-312h-95v685h95v-289h356v289h95v-685z" />
    <glyph glyph-name="afii10032" unicode="&#x41e;" horiz-adv-x="784" 
d="M392 -10q-146 0 -243.5 101t-97.5 251q0 151 97.5 252t243.5 101t243.5 -101t97.5 -252q0 -150 -97.5 -251t-243.5 -101zM392 77q104 0 173.5 75.5t69.5 189.5t-69.5 190t-173.5 76t-173.5 -76t-69.5 -190t69.5 -189.5t173.5 -75.5z" />
    <glyph glyph-name="afii10033" unicode="&#x41f;" horiz-adv-x="731" 
d="M191 0h-95v685h539v-685h-95v601h-349v-601z" />
    <glyph glyph-name="afii10034" unicode="&#x420;" horiz-adv-x="585" 
d="M189 0h-93v685h195q119 0 185.5 -56.5t66.5 -156.5q0 -98 -68 -155.5t-184 -57.5h-102v-259zM447 472q0 61 -40 95t-113 34h-105v-258h105q74 0 113.5 33.5t39.5 95.5z" />
    <glyph glyph-name="afii10035" unicode="&#x421;" horiz-adv-x="671" 
d="M392 608q-104 0 -173.5 -76t-69.5 -190t69.5 -189.5t173.5 -75.5q55 0 102.5 22.5t88.5 68.5l61 -65q-55 -57 -118 -85t-134 -28q-146 0 -243.5 101t-97.5 251q0 151 97.5 252t243.5 101q69 0 130.5 -26.5t111.5 -77.5l-59 -64q-40 40 -86 60.5t-97 20.5z" />
    <glyph glyph-name="afii10036" unicode="&#x422;" horiz-adv-x="553" 
d="M229 601h-209v84h513v-84h-209v-601h-95v601z" />
    <glyph glyph-name="afii10037" unicode="&#x423;" horiz-adv-x="627" 
d="M506 685h95l-302 -685h-94l73 165l-253 520h105l195 -413z" />
    <glyph glyph-name="afii10038" unicode="&#x424;" horiz-adv-x="840" 
d="M794 352q0 -123 -92 -199t-236 -76v-77h-92v77q-144 0 -236 76t-92 199t92 199.5t236 76.5v77h92v-77q144 0 236 -76.5t92 -199.5zM141 352q0 -86 65 -140t168 -54v389q-103 0 -168 -54t-65 -141zM699 352q0 87 -65 141t-168 54v-389q103 0 168 54t65 140z" />
    <glyph glyph-name="afii10039" unicode="&#x425;" horiz-adv-x="645" 
d="M621 0h-110l-192 280l-192 -280h-103l243 355l-226 330h110l175 -256l175 256h103l-226 -331z" />
    <glyph glyph-name="afii10040" unicode="&#x426;" horiz-adv-x="734" 
d="M533 685h94v-602h97v-253h-91v170h-537v685h95v-602h342v602z" />
    <glyph glyph-name="afii10041" unicode="&#x427;" horiz-adv-x="693" 
d="M503 685h94v-685h-94v307q-39 -28 -87.5 -43.5t-96.5 -15.5q-108 0 -172 65t-64 175v197h94v-191q0 -77 41.5 -120t113.5 -43q49 0 93 17.5t78 49.5v287z" />
    <glyph glyph-name="afii10042" unicode="&#x428;" horiz-adv-x="925" 
d="M734 685h95v-685h-733v685h95v-602h224v602h95v-602h224v602z" />
    <glyph glyph-name="afii10043" unicode="&#x429;" horiz-adv-x="934" 
d="M734 685h95v-602h95v-253h-91v170h-737v685h95v-602h224v602h95v-602h224v602z" />
    <glyph glyph-name="afii10044" unicode="&#x42a;" horiz-adv-x="686" 
d="M179 601h-163v84h256v-284h136q114 0 181.5 -54t67.5 -147t-67.5 -146.5t-181.5 -53.5h-229v601zM562 200q0 56 -40 86.5t-111 30.5h-139v-234h139q71 0 111 31t40 86z" />
    <glyph glyph-name="afii10045" unicode="&#x42b;" horiz-adv-x="870" 
d="M774 2h-95v685h95v-685zM574 200q0 -93 -67.5 -146.5t-181.5 -53.5h-229v685h93v-284h136q114 0 181.5 -54t67.5 -147zM479 200q0 56 -40 86.5t-111 30.5h-139v-234h139q71 0 111 31t40 86z" />
    <glyph glyph-name="afii10046" unicode="&#x42c;" horiz-adv-x="603" 
d="M574 200q0 -93 -67.5 -146.5t-181.5 -53.5h-229v685h93v-284h136q114 0 181.5 -54t67.5 -147zM479 200q0 56 -40 86.5t-111 30.5h-139v-234h139q71 0 111 31t40 86z" />
    <glyph glyph-name="afii10047" unicode="&#x42d;" horiz-adv-x="681" 
d="M302 695q146 0 243.5 -101t97.5 -252q0 -150 -97.5 -251t-243.5 -101q-71 0 -134 28t-118 85l61 65q41 -46 88.5 -68.5t102.5 -22.5q94 0 161 63t80 163h-355v84h354q-14 98 -80.5 159.5t-159.5 61.5q-51 0 -97 -20.5t-86 -60.5l-59 64q50 51 111.5 77.5t130.5 26.5z" />
    <glyph glyph-name="afii10048" unicode="&#x42e;" horiz-adv-x="1061" 
d="M669 695q146 0 243.5 -101t97.5 -252q0 -150 -97.5 -251t-243.5 -101q-136 0 -231 88.5t-108 225.5h-139v-304h-95v685h95v-297h140q15 134 110 220.5t228 86.5zM669 77q104 0 173.5 75.5t69.5 189.5t-69.5 190t-173.5 76t-173.5 -76t-69.5 -190t69.5 -189.5t173.5 -75.5
z" />
    <glyph glyph-name="afii10049" unicode="&#x42f;" horiz-adv-x="640" 
d="M77 488q0 89 63 143t168 54h236v-685h-92v285h-122l-188 -285h-105l199 296q-73 17 -116 68.5t-43 123.5zM172 485q0 -53 35.5 -84.5t95.5 -31.5h149v232h-149q-59 0 -95 -32t-36 -84z" />
    <glyph glyph-name="afii10052" unicode="&#x403;" horiz-adv-x="506" 
d="M189 0h-93v685h390v-84h-297v-601zM233 749l-34 51l169 130l46 -73z" />
    <glyph glyph-name="afii10050" unicode="&#x490;" horiz-adv-x="506" 
d="M396 685v148h90v-232h-297v-601h-93v685h300z" />
    <glyph glyph-name="afii10051" unicode="&#x402;" horiz-adv-x="747" 
d="M502 443q86 0 135 -54.5t49 -148.5v-165q0 -80 -47 -127t-129 -47q-33 0 -60.5 10.5t-55.5 33.5l48 61q13 -12 27.5 -18t31.5 -6q43 0 66.5 24.5t23.5 69.5v150q0 63 -30.5 98.5t-84.5 35.5q-44 0 -84.5 -23t-67.5 -64v-273h-95v601h-209v84h513v-84h-209v-240
q31 39 78.5 60.5t99.5 21.5z" />
    <glyph glyph-name="afii10053" unicode="&#x404;" horiz-adv-x="671" 
d="M583 168l61 -65q-55 -57 -118 -85t-134 -28q-146 0 -243.5 101t-97.5 251q0 151 97.5 252t243.5 101q69 0 130.5 -26.5t111.5 -77.5l-59 -64q-40 40 -86 60.5t-97 20.5q-93 0 -159.5 -61.5t-80.5 -159.5h376v-84h-377q13 -100 80 -163t161 -63q55 0 102.5 22.5t88.5 68.5
z" />
    <glyph glyph-name="afii10054" unicode="&#x405;" horiz-adv-x="566" 
d="M288 611q-56 0 -90 -26.5t-34 -72.5q0 -42 31.5 -69t140.5 -63q99 -32 142.5 -78.5t43.5 -115.5q0 -84 -64 -140t-160 -56q-76 0 -141.5 28.5t-117.5 83.5l54 65q45 -48 95.5 -71t109.5 -23q57 0 93.5 31t36.5 79q0 40 -29.5 66t-116.5 55q-123 41 -167 87t-44 119
q0 82 61 133.5t155 51.5q61 0 114.5 -23t100.5 -69l-55 -65q-41 38 -79.5 55.5t-79.5 17.5z" />
    <glyph glyph-name="uni0400" unicode="&#x400;" horiz-adv-x="566" 
d="M511 0h-415v685h415v-84h-320v-206h297v-84h-297v-227h320v-84zM223 930l169 -130l-33 -51l-182 108z" />
    <glyph glyph-name="afii10055" unicode="&#x406;" horiz-adv-x="287" 
d="M191 0h-95v685h95v-685z" />
    <glyph glyph-name="afii10056" unicode="&#x407;" horiz-adv-x="287" 
d="M191 0h-95v685h95v-685zM53 887q22 0 38 -16t16 -38t-16 -38t-38 -16t-38.5 16t-16.5 38t16.5 38t38.5 16zM234 887q22 0 38.5 -16t16.5 -38t-16.5 -38t-38.5 -16t-38 16t-16 38t16 38t38 16z" />
    <glyph glyph-name="afii10057" unicode="&#x408;" horiz-adv-x="476" 
d="M393 685v-485q0 -102 -51 -156t-146 -54q-51 0 -96 20.5t-82 60.5l59 63q26 -28 56 -43t63 -15q48 0 75 33t27 92v484h95z" />
    <glyph glyph-name="uni040D" unicode="&#x40d;" horiz-adv-x="723" 
d="M627 0h-89v547l-350 -547h-92v685h89v-548l351 548h91v-685zM293 930l169 -130l-33 -51l-182 108z" />
    <glyph glyph-name="afii10061" unicode="&#x40c;" horiz-adv-x="644" 
d="M222 307h-31v-307h-95v685h95v-294h30q61 0 92 19.5t71 83.5l117 191h100l-117 -191q-33 -53 -55 -83.5t-42 -50.5l238 -360h-110l-208 315q-17 -4 -37 -6t-48 -2zM280 749l-34 51l169 130l46 -73z" />
    <glyph glyph-name="afii10058" unicode="&#x409;" horiz-adv-x="953" 
d="M924 200q0 -93 -67.5 -146.5t-181.5 -53.5h-138l-212 570l-212 -570h-94l262 685h93l109 -284h192q114 0 181.5 -54t67.5 -147zM829 200q0 56 -40 86.5t-110 30.5h-164l89 -234h75q70 0 110 31t40 86z" />
    <glyph glyph-name="afii10059" unicode="&#x40a;" horiz-adv-x="1055" 
d="M1026 200q0 -93 -67.5 -146.5t-181.5 -53.5h-230v312h-356v-312h-95v685h95v-289h356v289h95v-284h135q114 0 181.5 -54t67.5 -147zM931 200q0 56 -40 86.5t-111 30.5h-138v-234h138q71 0 111 31t40 86z" />
    <glyph glyph-name="afii10060" unicode="&#x40b;" horiz-adv-x="733" 
d="M462 360q-39 0 -76 -23t-62 -63v-274h-95v601h-209v84h513v-84h-209v-240q30 39 74 60.5t91 21.5q85 0 134 -52t49 -144v-247h-94v232q0 59 -31 93.5t-85 34.5z" />
    <glyph glyph-name="afii10062" unicode="&#x40e;" horiz-adv-x="627" 
d="M506 685h95l-302 -685h-94l73 165l-253 520h105l195 -413zM324 747q-68 0 -112 37t-44 95v22h75v-19q0 -35 21 -54t60 -19q40 0 60.5 18.5t20.5 52.5v21h75v-24q0 -58 -43.5 -94t-112.5 -36z" />
    <glyph glyph-name="afii10145" unicode="&#x40f;" horiz-adv-x="728" 
d="M632 685v-685h-223v-170h-91v170h-222v685h95v-602h346v602h95z" />
    <glyph glyph-name="afii10146" unicode="&#x462;" horiz-adv-x="647" 
d="M618 200q0 -93 -67.5 -146.5t-181.5 -53.5h-229v503h-132v84h132v98h93v-98h192v-84h-192v-102h136q114 0 181.5 -54t67.5 -147zM523 200q0 56 -40 86.5t-111 30.5h-139v-234h139q71 0 111 31t40 86z" />
    <glyph glyph-name="afii10147" unicode="&#x472;" horiz-adv-x="784" 
d="M392 -10q-146 0 -243.5 101t-97.5 251q0 151 97.5 252t243.5 101t243.5 -101t97.5 -252q0 -150 -97.5 -251t-243.5 -101zM392 608q-94 0 -160.5 -62.5t-79.5 -161.5h480q-13 99 -79.5 161.5t-160.5 62.5zM392 77q94 0 160.5 62t79.5 161h-480q13 -99 79.5 -161t160.5 -62
z" />
    <glyph glyph-name="afii10148" unicode="&#x474;" horiz-adv-x="674" 
d="M582 533l-202 -533h-93l-260 685h99l209 -568l166 450q25 65 61 96t89 32q3 0 7 -0.5t11 -1.5v-86q-31 0 -51.5 -17.5t-35.5 -56.5z" />
    <glyph glyph-name="afii10065" unicode="&#x430;" horiz-adv-x="584" 
d="M506 0h-78l-11 65q-28 -36 -67 -55.5t-85 -19.5q-94 0 -156.5 67t-62.5 167q0 101 62.5 168t156.5 67q46 0 85 -19.5t67 -55.5l11 65h78v-449zM137 224q0 -65 40.5 -109t101.5 -44t102 44t41 109q0 66 -41 110t-102 44t-101.5 -44t-40.5 -110z" />
    <glyph glyph-name="afii10066" unicode="&#x431;" horiz-adv-x="558" 
d="M279 459q100 0 166.5 -67t66.5 -168t-66.5 -167.5t-166.5 -66.5t-166.5 66.5t-66.5 167.5q0 33 7.5 62.5t21.5 55.5q-15 34 -22 63.5t-7 60.5q0 77 49.5 126.5t143.5 68.5l219 44l14 -78l-209 -42q-64 -13 -94 -41.5t-30 -77.5q0 -13 1.5 -24.5t5.5 -21.5q29 19 62.5 29
t70.5 10zM279 378q-61 0 -101.5 -44t-40.5 -110q0 -65 40.5 -109t101.5 -44t101.5 43.5t40.5 109.5q0 67 -40 110.5t-102 43.5z" />
    <glyph glyph-name="afii10067" unicode="&#x432;" horiz-adv-x="540" 
d="M293 0h-215v449h223q79 0 124 -30.5t45 -86.5q0 -35 -17 -60t-50 -39q44 -13 65.5 -40t21.5 -68q0 -62 -50.5 -93.5t-146.5 -31.5zM379 322q0 29 -21 44t-61 15h-131v-118h131q40 0 61 15t21 44zM397 131q0 32 -24 48t-74 16h-133v-127h133q49 0 73.5 15.5t24.5 47.5z
" />
    <glyph glyph-name="afii10068" unicode="&#x433;" horiz-adv-x="419" 
d="M169 0h-91v449h318v-78h-227v-371z" />
    <glyph glyph-name="afii10069" unicode="&#x434;" horiz-adv-x="557" 
d="M541 -146h-84v146h-357v-146h-84v220h52l162 375h96l164 -375h51v-220zM276 356l-117 -282h236z" />
    <glyph glyph-name="afii10070" unicode="&#x435;" horiz-adv-x="530" 
d="M406 120l54 -60q-38 -35 -83 -52.5t-98 -17.5q-98 0 -166 68t-68 166q0 99 65 167t159 68t159 -68t65 -167q0 -9 -1 -18.5t-2 -18.5h-352q11 -52 50.5 -85t89.5 -33q37 0 68.5 12.5t59.5 38.5zM269 380q-47 0 -83 -32t-47 -83h262q-11 51 -48 83t-84 32z" />
    <glyph glyph-name="afii10071" unicode="&#x451;" horiz-adv-x="530" 
d="M406 120l54 -60q-38 -35 -83 -52.5t-98 -17.5q-98 0 -166 68t-68 166q0 99 65 167t159 68t159 -68t65 -167q0 -9 -1 -18.5t-2 -18.5h-352q11 -52 50.5 -85t89.5 -33q37 0 68.5 12.5t59.5 38.5zM269 380q-47 0 -83 -32t-47 -83h262q-11 51 -48 83t-84 32zM177 652
q22 0 38 -16t16 -38t-16 -38t-38 -16t-38.5 16t-16.5 38t16.5 38t38.5 16zM358 652q22 0 38.5 -16t16.5 -38t-16.5 -38t-38.5 -16t-38 16t-16 38t16 38t38 16z" />
    <glyph glyph-name="afii10072" unicode="&#x436;" horiz-adv-x="770" 
d="M340 197h-29q-7 0 -15 0.5t-19 1.5l-143 -199h-107l172 236q-19 16 -40 42.5t-57 79.5l-62 91h97l62 -91q37 -55 57.5 -69t50.5 -14h33v174h90v-174h33q29 0 49 13t59 70l62 91h97l-62 -91q-36 -53 -57 -79.5t-40 -42.5l172 -236h-108l-142 199q-11 -1 -19 -1.5t-15 -0.5
h-29v-197h-90v197z" />
    <glyph glyph-name="afii10073" unicode="&#x437;" horiz-adv-x="506" 
d="M361 130q0 32 -32 48.5t-93 16.5h-79v68h77q53 0 83.5 16t30.5 46q0 28 -28 44.5t-72 16.5q-40 0 -77 -13.5t-66 -38.5l-49 54q41 35 90 53t104 18q83 0 135 -33.5t52 -90.5q0 -33 -21.5 -59.5t-61.5 -42.5q50 -14 75.5 -41.5t25.5 -67.5q0 -61 -56.5 -97.5t-147.5 -36.5
q-65 0 -118 19t-92 57l54 54q29 -28 68.5 -42.5t86.5 -14.5q51 0 81 17.5t30 49.5z" />
    <glyph glyph-name="afii10074" unicode="&#x438;" horiz-adv-x="560" 
d="M482 0h-85v324l-234 -324h-85v449h85v-324l234 324h85v-449z" />
    <glyph glyph-name="afii10075" unicode="&#x439;" horiz-adv-x="560" 
d="M482 0h-85v324l-234 -324h-85v449h85v-324l234 324h85v-449zM282 512q-68 0 -112 37t-44 95v22h75v-19q0 -35 21 -54t60 -19q40 0 60.5 18.5t20.5 52.5v21h75v-24q0 -58 -43.5 -94t-112.5 -36z" />
    <glyph glyph-name="afii10076" unicode="&#x43a;" horiz-adv-x="532" 
d="M205 195h-36v-195h-91v449h91v-174h36q40 0 69.5 19t59.5 64l61 91h98l-61 -91q-27 -43 -49 -71t-43 -46l174 -241h-109l-141 201q-14 -3 -28.5 -4.5t-30.5 -1.5z" />
    <glyph glyph-name="afii10077" unicode="&#x43b;" horiz-adv-x="495" 
d="M479 0h-94l-141 354l-140 -354h-89l183 449h96z" />
    <glyph glyph-name="afii10078" unicode="&#x43c;" horiz-adv-x="724" 
d="M404 0h-86l-128 342l-74 -342h-89l109 449h91l135 -346l132 346h91l112 -449h-91l-78 344z" />
    <glyph glyph-name="afii10079" unicode="&#x43d;" horiz-adv-x="560" 
d="M482 0h-91v192h-222v-192h-91v449h91v-179h222v179h91v-449z" />
    <glyph glyph-name="afii10080" unicode="&#x43e;" horiz-adv-x="558" 
d="M279 459q100 0 166.5 -67t66.5 -168t-66.5 -167.5t-166.5 -66.5t-166.5 66.5t-66.5 167.5t66.5 168t166.5 67zM279 378q-61 0 -101.5 -44t-40.5 -110q0 -65 40.5 -109t101.5 -44t101.5 43.5t40.5 109.5t-40.5 110t-101.5 44z" />
    <glyph glyph-name="afii10081" unicode="&#x43f;" horiz-adv-x="564" 
d="M169 0h-91v449h408v-449h-91v370h-226v-370z" />
    <glyph glyph-name="afii10082" unicode="&#x440;" horiz-adv-x="584" 
d="M538 225q0 -101 -62.5 -168t-156.5 -67q-45 0 -83.5 18.5t-66.5 53.5v-262h-91v649h78l11 -65q28 36 67 55.5t85 19.5q94 0 156.5 -67t62.5 -167zM305 378q-61 0 -102 -44t-41 -109q0 -66 41 -110t102 -44t101.5 44t40.5 110q0 65 -40.5 109t-101.5 44z" />
    <glyph glyph-name="afii10083" unicode="&#x441;" horiz-adv-x="481" 
d="M279 378q-61 0 -101.5 -44t-40.5 -110q0 -65 40.5 -109t101.5 -44q33 0 63 13.5t56 39.5l58 -60q-36 -37 -80 -55.5t-97 -18.5q-100 0 -166.5 66.5t-66.5 167.5t66.5 168t166.5 67q47 0 89.5 -17t77.5 -49l-58 -60q-26 23 -53 34t-56 11z" />
    <glyph glyph-name="afii10084" unicode="&#x442;" horiz-adv-x="475" 
d="M192 371h-166v78h423v-78h-166v-371h-91v371z" />
    <glyph glyph-name="afii10085" unicode="&#x443;" horiz-adv-x="552" 
d="M503 6q0 -94 -68.5 -155t-171.5 -61q-61 0 -117 18.5t-102 54.5l44 68q40 -31 81.5 -46t86.5 -15q69 0 113 39.5t44 101.5q0 21 -4 40.5t-13 39.5q-27 -47 -70.5 -74t-92.5 -27q-79 0 -123 49.5t-44 138.5v271h91v-260q0 -55 26 -85.5t73 -30.5q34 0 65.5 20t55.5 58v298
h92v-306l8 -17q13 -26 19.5 -57.5t6.5 -62.5z" />
    <glyph glyph-name="afii10086" unicode="&#x444;" horiz-adv-x="683" 
d="M638 224q0 -103 -72 -168.5t-183 -65.5v-190h-84v190q-111 0 -183 65.5t-72 168.5t72 169t183 66v197h84v-197q112 0 183.5 -65.5t71.5 -169.5zM551 224q0 70 -47 113.5t-121 43.5v-313q74 0 121 43.5t47 112.5zM131 224q0 -69 47.5 -112.5t120.5 -43.5v313
q-73 0 -120.5 -44t-47.5 -113z" />
    <glyph glyph-name="afii10087" unicode="&#x445;" horiz-adv-x="480" 
d="M462 0h-108l-119 165l-119 -165h-98l168 232l-157 217h108l107 -148l108 148h98l-157 -216z" />
    <glyph glyph-name="afii10088" unicode="&#x446;" horiz-adv-x="573" 
d="M559 -146h-87v146h-394v449h91v-371h219v371h91v-371h80v-224z" />
    <glyph glyph-name="afii10088.alt" horiz-adv-x="556" 
d="M540 -42q0 -13 -0.5 -28t-1.5 -42h-89v89q0 28 -7.5 52.5t-23.5 44.5q-32 -41 -74 -62.5t-91 -21.5q-82 0 -134 53t-52 136v270h91v-260q0 -52 29 -84t77 -32q36 0 67 18.5t53 54.5v303h91v-314l17 -24q24 -31 36 -69.5t12 -83.5z" />
    <glyph glyph-name="afii10089" unicode="&#x447;" horiz-adv-x="523" 
d="M354 449h91v-449h-91v203q-31 -28 -64.5 -42t-71.5 -14q-75 0 -121 47t-46 123v132h91v-122q0 -44 26.5 -70t69.5 -26q35 0 64 13t52 39v166z" />
    <glyph glyph-name="afii10090" unicode="&#x448;" horiz-adv-x="773" 
d="M604 449h91v-449h-617v449h91v-371h172v371h91v-371h172v371z" />
    <glyph glyph-name="afii10091" unicode="&#x449;" horiz-adv-x="791" 
d="M604 78v371h91v-371h86v-224h-86v146h-617v449h91v-371h172v371h91v-371h172z" />
    <glyph glyph-name="afii10091.alt" horiz-adv-x="782" 
d="M764 -42q0 -17 -1 -35t-2 -35h-87v89q0 27 -7 50t-20 42q-26 -38 -63 -58.5t-81 -20.5q-43 0 -78 17t-57 49q-25 -32 -59.5 -49t-75.5 -17q-71 0 -117.5 45.5t-46.5 116.5v297h89v-287q0 -40 23 -64.5t61 -24.5q31 0 55.5 17.5t41.5 50.5v308h89v-287q0 -40 23 -64.5
t61 -24.5q30 0 54.5 17t41.5 49v310h90v-314l18 -24q24 -31 36 -69.5t12 -83.5z" />
    <glyph glyph-name="afii10092" unicode="&#x44a;" horiz-adv-x="570" 
d="M154 371h-144v78h235v-169h121q83 0 132 -37t49 -103t-49 -103t-132 -37h-212v371zM456 140q0 29 -25.5 45.5t-68.5 16.5h-117v-124h117q43 0 68.5 16.5t25.5 45.5z" />
    <glyph glyph-name="afii10093" unicode="&#x44b;" horiz-adv-x="711" 
d="M471 140q0 -66 -49 -103t-132 -37h-212v449h91v-169h121q83 0 132 -37t49 -103zM380 140q0 29 -25.5 45.5t-68.5 16.5h-117v-124h117q43 0 68.5 16.5t25.5 45.5zM542 449h91v-449h-91v449z" />
    <glyph glyph-name="afii10094" unicode="&#x44c;" horiz-adv-x="494" 
d="M471 140q0 -66 -49 -103t-132 -37h-212v449h91v-169h121q83 0 132 -37t49 -103zM380 140q0 29 -25.5 45.5t-68.5 16.5h-117v-124h117q43 0 68.5 16.5t25.5 45.5z" />
    <glyph glyph-name="afii10095" unicode="&#x44d;" horiz-adv-x="487" 
d="M205 459q102 0 169 -67t67 -168t-67 -167.5t-169 -66.5q-55 0 -99.5 18.5t-80.5 55.5l56 58q26 -26 57.5 -39.5t66.5 -13.5q53 0 92.5 32.5t50.5 85.5h-222v78h221q-12 52 -51 83.5t-91 31.5q-31 0 -59 -11t-55 -34l-56 58q34 32 78 49t92 17z" />
    <glyph glyph-name="afii10096" unicode="&#x44e;" horiz-adv-x="775" 
d="M496 459q100 0 166.5 -67t66.5 -168t-66.5 -167.5t-166.5 -66.5q-92 0 -156 56.5t-75 145.5h-96v-192h-91v449h91v-179h98q15 84 78.5 136.5t150.5 52.5zM496 378q-61 0 -101.5 -44t-40.5 -110q0 -65 40.5 -109t101.5 -44t101.5 43.5t40.5 109.5t-40.5 110t-101.5 44z
" />
    <glyph glyph-name="afii10097" unicode="&#x44f;" horiz-adv-x="532" 
d="M60 310q0 65 50 102t132 37h213v-449h-90v171h-96l-125 -171h-103l139 182q-57 12 -88.5 45t-31.5 83zM153 310q0 -32 24.5 -50t65.5 -18h122v137h-122q-41 0 -65.5 -18.5t-24.5 -50.5z" />
    <glyph glyph-name="afii10100" unicode="&#x453;" horiz-adv-x="416" 
d="M169 0h-91v449h318v-78h-227v-371zM182 514l-34 51l169 130l46 -73z" />
    <glyph glyph-name="afii10098" unicode="&#x491;" horiz-adv-x="416" 
d="M310 449v144h86v-222h-227v-371h-91v449h232z" />
    <glyph glyph-name="afii10099" unicode="&#x452;" horiz-adv-x="565" 
d="M338 339q74 0 115.5 -47t41.5 -129v-218q0 -72 -39.5 -113.5t-107.5 -41.5q-31 0 -58.5 10.5t-55.5 32.5l48 63q13 -13 28 -19t32 -6q30 0 46.5 19.5t16.5 55.5v206q0 49 -26 76.5t-71 27.5q-33 0 -63.5 -21t-54.5 -61v-174h-92v419h-85v71h85v215h92v-215h168v-71h-168
v-158q29 37 67.5 57.5t80.5 20.5z" />
    <glyph glyph-name="afii10101" unicode="&#x454;" horiz-adv-x="487" 
d="M406 122l56 -58q-36 -37 -80.5 -55.5t-99.5 -18.5q-102 0 -169 66.5t-67 167.5t67 168t169 67q48 0 92 -17t78 -49l-56 -58q-27 23 -55 34t-59 11q-52 0 -91 -31.5t-51 -83.5h221v-78h-222q11 -53 50.5 -85.5t92.5 -32.5q35 0 66.5 13.5t57.5 39.5z" />
    <glyph glyph-name="afii10102" unicode="&#x455;" horiz-adv-x="423" 
d="M204 190q-79 23 -113 56t-34 87q0 56 43.5 91t113.5 35q43 0 82.5 -13.5t71.5 -39.5l-46 -64q-23 20 -52.5 32t-56.5 12q-32 0 -51 -14t-19 -37q0 -24 21.5 -39t81.5 -32q70 -20 103.5 -53.5t33.5 -84.5q0 -62 -46.5 -99t-123.5 -37q-50 0 -94.5 17t-84.5 51l47 64
q31 -29 63.5 -43.5t68.5 -14.5q38 0 61 16.5t23 43.5q0 23 -19 36.5t-74 29.5z" />
    <glyph glyph-name="uni0450" unicode="&#x450;" horiz-adv-x="530" 
d="M406 120l54 -60q-38 -35 -83 -52.5t-98 -17.5q-98 0 -166 68t-68 166q0 99 65 167t159 68t159 -68t65 -167q0 -9 -1 -18.5t-2 -18.5h-352q11 -52 50.5 -85t89.5 -33q37 0 68.5 12.5t59.5 38.5zM269 380q-47 0 -83 -32t-47 -83h262q-11 51 -48 83t-84 32zM205 695
l169 -130l-33 -51l-182 108z" />
    <glyph glyph-name="afii10103" unicode="&#x456;" horiz-adv-x="247" 
d="M123 654q25 0 42.5 -17.5t17.5 -42.5t-17.5 -42.5t-42.5 -17.5q-24 0 -41.5 17.5t-17.5 42.5t17.5 42.5t41.5 17.5zM78 449h91v-449h-91v449z" />
    <glyph glyph-name="afii10104" unicode="&#x457;" horiz-adv-x="247" 
d="M78 449h91v-449h-91v449zM34 652q22 0 38 -16t16 -38t-16 -38t-38 -16t-38.5 16t-16.5 38t16.5 38t38.5 16zM215 652q22 0 38.5 -16t16.5 -38t-16.5 -38t-38.5 -16t-38 16t-16 38t16 38t38 16z" />
    <glyph glyph-name="afii10105" unicode="&#x458;" horiz-adv-x="251" 
d="M127 654q25 0 42.5 -17.5t17.5 -42.5t-17.5 -42.5t-42.5 -17.5t-42.5 17.5t-17.5 42.5t17.5 42.5t42.5 17.5zM11 -127q32 0 51 25.5t19 69.5v481h92v-489q0 -78 -42 -124t-114 -46q-33 0 -65.5 13t-57.5 35l48 64q18 -14 35.5 -21.5t33.5 -7.5z" />
    <glyph glyph-name="uni045D" unicode="&#x45d;" horiz-adv-x="560" 
d="M211 695l169 -130l-33 -51l-182 108zM482 0h-85v324l-234 -324h-85v449h85v-324l234 324h85v-449z" />
    <glyph glyph-name="afii10109" unicode="&#x45c;" horiz-adv-x="532" 
d="M205 195h-36v-195h-91v449h91v-174h36q40 0 69.5 19t59.5 64l61 91h98l-61 -91q-27 -43 -49 -71t-43 -46l174 -241h-109l-141 201q-14 -3 -28.5 -4.5t-30.5 -1.5zM216 514l-34 51l169 130l46 -73z" />
    <glyph glyph-name="afii10106" unicode="&#x459;" horiz-adv-x="736" 
d="M713 140q0 -66 -49 -103t-132 -37h-147l-141 354l-140 -354h-89l183 449h96l70 -169h168q83 0 132 -37t49 -103zM622 140q0 29 -25.5 45.5t-68.5 16.5h-132l51 -124h81q43 0 68.5 16.5t25.5 45.5z" />
    <glyph glyph-name="afii10107" unicode="&#x45a;" horiz-adv-x="807" 
d="M603 0h-212v202h-222v-202h-91v449h91v-169h222v169h91v-169h121q83 0 132 -37t49 -103t-49 -103t-132 -37zM693 140q0 29 -25.5 45.5t-68.5 16.5h-117v-124h117q43 0 68.5 16.5t25.5 45.5z" />
    <glyph glyph-name="afii10108" unicode="&#x45b;" horiz-adv-x="561" 
d="M304 256q-33 0 -63.5 -21t-54.5 -60v-175h-91v415h-85v78h85v212h91v-212h168v-78h-168v-154q29 37 67.5 57.5t80.5 20.5q74 0 115.5 -47t41.5 -129v-163h-90v152q0 49 -26 76.5t-71 27.5z" />
    <glyph glyph-name="afii10110" unicode="&#x45e;" horiz-adv-x="552" 
d="M503 6q0 -94 -68.5 -155t-171.5 -61q-61 0 -117 18.5t-102 54.5l44 68q40 -31 81.5 -46t86.5 -15q69 0 113 39.5t44 101.5q0 21 -4 40.5t-13 39.5q-27 -47 -70.5 -74t-92.5 -27q-79 0 -123 49.5t-44 138.5v271h91v-260q0 -55 26 -85.5t73 -30.5q34 0 65.5 20t55.5 58v298
h92v-306l8 -17q13 -26 19.5 -57.5t6.5 -62.5zM266 512q-68 0 -112 37t-44 95v22h75v-19q0 -35 21 -54t60 -19q40 0 60.5 18.5t20.5 52.5v21h75v-24q0 -58 -43.5 -94t-112.5 -36z" />
    <glyph glyph-name="afii10193" unicode="&#x45f;" horiz-adv-x="559" 
d="M390 449h91v-449h-158v-146h-87v146h-158v449h91v-371h221v371z" />
    <glyph glyph-name="afii10194" unicode="&#x463;" horiz-adv-x="514" 
d="M491 140q0 -66 -49 -103t-132 -37h-212v415h-85v78h85v212h91v-212h168v-78h-168v-135h121q83 0 132 -37t49 -103zM400 140q0 29 -25.5 45.5t-68.5 16.5h-117v-124h117q43 0 68.5 16.5t25.5 45.5z" />
    <glyph glyph-name="afii10195" unicode="&#x473;" horiz-adv-x="558" 
d="M279 459q100 0 166.5 -67t66.5 -168t-66.5 -167.5t-166.5 -66.5t-166.5 66.5t-66.5 167.5t66.5 168t166.5 67zM279 383q-53 0 -92 -33t-51 -88h286q-11 54 -50 87.5t-93 33.5zM279 66q53 0 92 33t51 87h-286q12 -54 51 -87t92 -33z" />
    <glyph glyph-name="afii10196" unicode="&#x475;" horiz-adv-x="488" 
d="M411 319l-123 -319h-91l-175 449h97l126 -343l87 238q22 60 55.5 87.5t82.5 27.5h9t6 -1v-77q-26 0 -43.5 -15t-30.5 -47z" />
    <glyph glyph-name="breve_cyr" horiz-adv-x="335" 
d="M167 512q-68 0 -112 37t-44 95v22h75v-19q0 -35 21 -54t60 -19q40 0 60.5 18.5t20.5 52.5v21h75v-24q0 -58 -43.5 -94t-112.5 -36z" />
    <glyph glyph-name="alef:hb" unicode="&#x5d0;" horiz-adv-x="545" 
d="M537 0h-110l-225 303q-34 -22 -46.5 -56.5t-12.5 -102.5v-144h-93v134q0 88 25.5 139.5t85.5 84.5l-126 171h110l171 -232q48 26 66 62t18 112v58h93v-52q0 -94 -31 -148t-104 -88z" />
    <glyph glyph-name="bet:hb" unicode="&#x5d1;" horiz-adv-x="548" 
d="M53 442v80q44 9 80 13t71 4q114 0 173 -58.5t59 -170.5v-230h93v-80h-486v80h296v227q0 73 -37.5 112t-108.5 39q-34 0 -67 -4t-73 -12z" />
    <glyph glyph-name="gimel:hb" unicode="&#x5d2;" horiz-adv-x="430" 
d="M165 539q80 0 125 -49t45 -136v-145l43 -209h-87l-27 124q-31 -66 -76.5 -97t-111.5 -31q-11 0 -24 1t-19 3v76h24q66 0 107 30t75 103h-1v141q0 52 -23.5 80.5t-66.5 28.5q-22 0 -45 -6t-45 -17l-25 69q33 17 65.5 25.5t66.5 8.5z" />
    <glyph glyph-name="dalet:hb" unicode="&#x5d3;" horiz-adv-x="491" 
d="M468 529v-80h-80v-449h-97v449h-273v80h450z" />
    <glyph glyph-name="he:hb" unicode="&#x5d4;" horiz-adv-x="618" 
d="M279 539q129 0 195.5 -64.5t66.5 -189.5v-285h-97v285q0 86 -43.5 129.5t-131.5 43.5q-43 0 -91.5 -6.5t-96.5 -19.5v80q51 13 101.5 20t96.5 7zM91 0v299l94 4v-303h-94z" />
    <glyph glyph-name="vav:hb" unicode="&#x5d5;" horiz-adv-x="280" 
d="M91 0v529h97v-529h-97z" />
    <glyph glyph-name="zayin:hb" unicode="&#x5d6;" horiz-adv-x="336" 
d="M20 449v80h301v-80h-83q-22 -54 -33.5 -108t-11.5 -102q0 -59 13 -112.5t44 -126.5h-100q-27 60 -41 119.5t-14 116.5q0 48 13.5 103.5t37.5 109.5h-126z" />
    <glyph glyph-name="het:hb" unicode="&#x5d7;" horiz-adv-x="626" 
d="M298 458q-28 0 -58.5 -6t-59.5 -17v-435h-97v492q57 23 114.5 35t107.5 12q119 0 181.5 -63.5t62.5 -184.5v-291h-97v293q0 82 -39 123.5t-115 41.5z" />
    <glyph glyph-name="tet:hb" unicode="&#x5d8;" horiz-adv-x="601" 
d="M281 454v77q14 4 33 6t37 2q99 0 153.5 -69.5t54.5 -195.5q0 -134 -65 -209t-181 -75q-115 0 -179 74t-64 207v258h96v-258q0 -97 38 -148.5t109 -51.5t108.5 52.5t37.5 150.5q0 89 -32 137t-91 48q-17 0 -29.5 -1t-25.5 -4z" />
    <glyph glyph-name="yod:hb" unicode="&#x5d9;" horiz-adv-x="238" 
d="M71 249v280h96v-277z" />
    <glyph glyph-name="kaf:hb" unicode="&#x5db;" horiz-adv-x="503" 
d="M189 539q130 0 203.5 -73t73.5 -202t-73.5 -201.5t-203.5 -72.5q-33 0 -74 5.5t-75 14.5v81q35 -9 70.5 -13.5t70.5 -4.5q88 0 136.5 50.5t48.5 140.5q0 91 -48.5 141t-136.5 50q-34 0 -69.5 -4.5t-71.5 -12.5v81q34 9 75 14.5t74 5.5z" />
    <glyph glyph-name="finalkaf:hb" unicode="&#x5da;" horiz-adv-x="481" 
d="M172 539q114 0 173 -58.5t59 -170.5v-439h-97v436q0 74 -37.5 112.5t-108.5 38.5q-33 0 -66 -3.5t-74 -12.5v80q44 9 80 13t71 4z" />
    <glyph glyph-name="lamed:hb" unicode="&#x5dc;" horiz-adv-x="491" 
d="M119 545l1 -16h329v-73l-215 -456h-102l212 449h-316v190h85q2 -19 3 -35.5t3 -58.5z" />
    <glyph glyph-name="mem:hb" unicode="&#x5de;" horiz-adv-x="634" 
d="M187 0h-96v529h77q3 -16 5.5 -33.5t4.5 -37.5q39 39 86.5 60t95.5 21q90 0 144 -54.5t54 -144.5v-340h-223v78h127v255q0 60 -32 92.5t-90 32.5q-41 0 -81 -20.5t-72 -57.5v-380z" />
    <glyph glyph-name="finalmem:hb" unicode="&#x5dd;" horiz-adv-x="629" 
d="M308 539q119 0 182 -64t63 -184v-291h-467v492q57 23 115 35t107 12zM302 458q-27 0 -57.5 -6t-62.5 -17v-357h275v215q0 82 -39 123.5t-116 41.5z" />
    <glyph glyph-name="nun:hb" unicode="&#x5e0;" horiz-adv-x="399" 
d="M323 0h-278v80h181v270q0 52 -23.5 80.5t-66.5 28.5q-20 0 -41 -5.5t-42 -15.5l-25 69q30 16 61 24t63 8q81 0 126 -49t45 -136v-354z" />
    <glyph glyph-name="finalnun:hb" unicode="&#x5df;" horiz-adv-x="280" 
d="M91 -129v658h97v-658h-97z" />
    <glyph glyph-name="samekh:hb" unicode="&#x5e1;" horiz-adv-x="597" 
d="M301 539q122 0 188.5 -70t66.5 -198q0 -133 -64.5 -207t-180.5 -74q-114 0 -177.5 74t-63.5 207v221q59 23 119 35t112 12zM311 71q71 0 108.5 51.5t37.5 148.5q0 91 -42 139t-121 48q-31 0 -64 -6t-65 -18v-163q0 -96 38 -148t108 -52z" />
    <glyph glyph-name="ayin:hb" unicode="&#x5e2;" horiz-adv-x="603" 
d="M541 529v-151q0 -197 -76.5 -287.5t-243.5 -90.5h-140v80h114l-114 449h100l105 -446q84 15 121 83.5t37 208.5v154h97z" />
    <glyph glyph-name="pe:hb" unicode="&#x5e4;" horiz-adv-x="569" 
d="M175 272l-94 -3v234q42 16 92 26t91 10q127 0 198 -71.5t71 -198.5q0 -124 -77 -196.5t-210 -72.5h-175v80h165q90 0 143.5 51t53.5 138q0 90 -46 139.5t-129 49.5q-21 0 -42.5 -3t-40.5 -9v-174z" />
    <glyph glyph-name="finalpe:hb" unicode="&#x5e3;" horiz-adv-x="578" 
d="M501 -129h-97v415q0 84 -40 128t-116 44q-23 0 -47 -4.5t-46 -12.5v-173l-94 -2v233q48 18 101 29t92 11q118 0 182.5 -66t64.5 -187v-415z" />
    <glyph glyph-name="tsadi:hb" unicode="&#x5e6;" horiz-adv-x="527" 
d="M289 230q36 -39 83 -77t110 -78l-13 -75h-421v80l305 -3q-129 82 -203 186t-119 266h98q23 -77 51 -135.5t63 -106.5q70 30 102.5 76t32.5 116v50h92v-45q0 -95 -45 -157.5t-136 -96.5z" />
    <glyph glyph-name="finaltsadi:hb" unicode="&#x5e5;" horiz-adv-x="524" 
d="M472 529v-71q0 -113 -39 -183.5t-125 -111.5v-292h-97v285q-63 73 -104 159t-71 208l93 16q31 -113 59.5 -179.5t75.5 -143.5q60 34 85.5 86.5t25.5 145.5v81h97z" />
    <glyph glyph-name="qof:hb" unicode="&#x5e7;" horiz-adv-x="580" 
d="M530 529v-73l-119 -456h-95l115 449h-358v80h457zM75 -129v394l95 2v-396h-95z" />
    <glyph glyph-name="resh:hb" unicode="&#x5e8;" horiz-adv-x="481" 
d="M404 310v-310h-97v307q0 74 -37.5 112.5t-108.5 38.5q-33 0 -66 -3.5t-74 -12.5v80q44 9 80 13t71 4q114 0 173 -58.5t59 -170.5z" />
    <glyph glyph-name="shin:hb" unicode="&#x5e9;" horiz-adv-x="737" 
d="M70 529h93v-216q15 -4 29.5 -6t27.5 -2q54 0 78 25t24 82v117h91v-118q0 -92 -41.5 -137.5t-126.5 -45.5q-18 0 -37.5 3t-40.5 8q14 -82 65 -125t136 -43q98 0 151.5 58t53.5 166v234h93v-227q0 -150 -77.5 -231t-220.5 -81t-220.5 81t-77.5 231v227z" />
    <glyph glyph-name="tav:hb" unicode="&#x5ea;" horiz-adv-x="686" 
d="M342 458q-20 0 -43.5 -1.5t-48.5 -4.5v-293q0 -85 -37.5 -124.5t-119.5 -39.5q-15 0 -28.5 1.5t-23.5 3.5v76q15 -1 24.5 -1.5t13.5 -0.5q42 0 59.5 18.5t17.5 62.5v283q-34 -6 -62 -12.5t-54 -12.5v79q74 22 157.5 34.5t150.5 12.5q134 0 197.5 -61t63.5 -189v-289h-97
v294q0 88 -39.5 126t-130.5 38z" />
    <glyph glyph-name="shinwithshinDot:hb" unicode="&#xfb2a;" horiz-adv-x="737" 
d="M70 529h93v-216q15 -4 29.5 -6t27.5 -2q54 0 78 25t24 82v117h91v-118q0 -92 -41.5 -137.5t-126.5 -45.5q-18 0 -37.5 3t-40.5 8q14 -82 65 -125t136 -43q98 0 151.5 58t53.5 166v234h93v-227q0 -150 -77.5 -231t-220.5 -81t-220.5 81t-77.5 231v227zM150 645
q0 -14 -10 -24t-23 -10t-23 10t-10 24t9.5 23.5t23.5 9.5t23.5 -9.5t9.5 -23.5z" />
    <glyph glyph-name="shinwithsinDot:hb" unicode="&#xfb2b;" horiz-adv-x="737" 
d="M70 529h93v-216q15 -4 29.5 -6t27.5 -2q54 0 78 25t24 82v117h91v-118q0 -92 -41.5 -137.5t-126.5 -45.5q-18 0 -37.5 3t-40.5 8q14 -82 65 -125t136 -43q98 0 151.5 58t53.5 166v234h93v-227q0 -150 -77.5 -231t-220.5 -81t-220.5 81t-77.5 231v227zM652 645
q0 -14 -10 -24t-23 -10t-23 10t-10 24t9.5 23.5t23.5 9.5t23.5 -9.5t9.5 -23.5z" />
    <glyph glyph-name="shinwithdageshandshinDot:hb" unicode="&#xfb2c;" horiz-adv-x="737" 
d="M70 529h93v-216q15 -4 29.5 -6t27.5 -2q54 0 78 25t24 82v117h91v-118q0 -92 -41.5 -137.5t-126.5 -45.5q-18 0 -37.5 3t-40.5 8q14 -82 65 -125t136 -43q98 0 151.5 58t53.5 166v234h93v-227q0 -150 -77.5 -231t-220.5 -81t-220.5 81t-77.5 231v227zM150 645
q0 -14 -10 -24t-23 -10t-23 10t-10 24t9.5 23.5t23.5 9.5t23.5 -9.5t9.5 -23.5zM483 203q0 -14 -10 -24t-23 -10t-23 10t-10 24t9.5 23.5t23.5 9.5t23.5 -9.5t9.5 -23.5z" />
    <glyph glyph-name="shinwithdageshandsinDot:hb" unicode="&#xfb2d;" horiz-adv-x="737" 
d="M70 529h93v-216q15 -4 29.5 -6t27.5 -2q54 0 78 25t24 82v117h91v-118q0 -92 -41.5 -137.5t-126.5 -45.5q-18 0 -37.5 3t-40.5 8q14 -82 65 -125t136 -43q98 0 151.5 58t53.5 166v234h93v-227q0 -150 -77.5 -231t-220.5 -81t-220.5 81t-77.5 231v227zM652 645
q0 -14 -10 -24t-23 -10t-23 10t-10 24t9.5 23.5t23.5 9.5t23.5 -9.5t9.5 -23.5zM483 203q0 -14 -10 -24t-23 -10t-23 10t-10 24t9.5 23.5t23.5 9.5t23.5 -9.5t9.5 -23.5z" />
    <glyph glyph-name="alefwithpatah:hb" unicode="&#xfb2e;" horiz-adv-x="545" 
d="M537 0h-110l-225 303q-34 -22 -46.5 -56.5t-12.5 -102.5v-144h-93v134q0 88 25.5 139.5t85.5 84.5l-126 171h110l171 -232q48 26 66 62t18 112v58h93v-52q0 -94 -31 -148t-104 -88zM357 -115h-166v45h166v-45z" />
    <glyph glyph-name="alefwithqamats:hb" unicode="&#xfb2f;" horiz-adv-x="545" 
d="M537 0h-110l-225 303q-34 -22 -46.5 -56.5t-12.5 -102.5v-144h-93v134q0 88 25.5 139.5t85.5 84.5l-126 171h110l171 -232q48 26 66 62t18 112v58h93v-52q0 -94 -31 -148t-104 -88zM250 -115h-59v45h166v-45h-59v-76h-48v76z" />
    <glyph glyph-name="alefwithmapiq:hb" unicode="&#xfb30;" horiz-adv-x="545" 
d="M537 0h-110l-225 303q-34 -22 -46.5 -56.5t-12.5 -102.5v-144h-93v134q0 88 25.5 139.5t85.5 84.5l-126 171h110l171 -232q48 26 66 62t18 112v58h93v-52q0 -94 -31 -148t-104 -88zM307 -95q0 -13 -10 -23t-23 -10t-23 10t-10 23q0 14 9.5 24t23.5 10t23.5 -10t9.5 -24z
" />
    <glyph glyph-name="betwithdagesh:hb" unicode="&#xfb31;" horiz-adv-x="548" 
d="M53 442v80q44 9 80 13t71 4q114 0 173 -58.5t59 -170.5v-230h93v-80h-486v80h296v227q0 73 -37.5 112t-108.5 39q-34 0 -67 -4t-73 -12zM190 275q0 -14 -10 -24t-23 -10t-23 10t-10 24t9.5 23.5t23.5 9.5t23.5 -9.5t9.5 -23.5z" />
    <glyph glyph-name="gimelwithdagesh:hb" unicode="&#xfb32;" horiz-adv-x="430" 
d="M165 539q80 0 125 -49t45 -136v-145l43 -209h-87l-27 124q-31 -66 -76.5 -97t-111.5 -31q-11 0 -24 1t-19 3v76h24q66 0 107 30t75 103h-1v141q0 52 -23.5 80.5t-66.5 28.5q-22 0 -45 -6t-45 -17l-25 69q33 17 65.5 25.5t66.5 8.5zM144 286q0 -14 -10 -24t-23 -10t-23 10
t-10 24t9.5 23.5t23.5 9.5t23.5 -9.5t9.5 -23.5z" />
    <glyph glyph-name="daletwithdagesh:hb" unicode="&#xfb33;" horiz-adv-x="493" 
d="M468 529v-80h-80v-449h-97v449h-273v80h450zM175 245q0 -14 -10 -24t-23 -10t-23 10t-10 24t9.5 23.5t23.5 9.5t23.5 -9.5t9.5 -23.5z" />
    <glyph glyph-name="hewithmapiq:hb" unicode="&#xfb34;" horiz-adv-x="618" 
d="M279 539q129 0 195.5 -64.5t66.5 -189.5v-285h-97v285q0 86 -43.5 129.5t-131.5 43.5q-43 0 -91.5 -6.5t-96.5 -19.5v80q51 13 101.5 20t96.5 7zM91 0v299l94 4v-303h-94zM340 200q0 -14 -10 -24t-23 -10t-23 10t-10 24t9.5 23.5t23.5 9.5t23.5 -9.5t9.5 -23.5z" />
    <glyph glyph-name="vavwithdagesh:hb" unicode="&#xfb35;" horiz-adv-x="280" 
d="M91 0v529h97v-529h-97zM33 275q0 -14 -10 -24t-23 -10t-23 10t-10 24t9.5 23.5t23.5 9.5t23.5 -9.5t9.5 -23.5z" />
    <glyph glyph-name="zayinwithdagesh:hb" unicode="&#xfb36;" horiz-adv-x="339" 
d="M20 449v80h301v-80h-83q-22 -54 -33.5 -108t-11.5 -102q0 -59 13 -112.5t44 -126.5h-100q-27 60 -41 119.5t-14 116.5q0 48 13.5 103.5t37.5 109.5h-126zM37 234q0 -14 -10 -24t-23 -10t-23 10t-10 24t9.5 23.5t23.5 9.5t23.5 -9.5t9.5 -23.5z" />
    <glyph glyph-name="tetwithdagesh:hb" unicode="&#xfb38;" horiz-adv-x="601" 
d="M281 454v77q14 4 33 6t37 2q99 0 153.5 -69.5t54.5 -195.5q0 -134 -65 -209t-181 -75q-115 0 -179 74t-64 207v258h96v-258q0 -97 38 -148.5t109 -51.5t108.5 52.5t37.5 150.5q0 89 -32 137t-91 48q-17 0 -29.5 -1t-25.5 -4zM346 275q0 -14 -10 -24t-23 -10t-23 10
t-10 24t9.5 23.5t23.5 9.5t23.5 -9.5t9.5 -23.5z" />
    </font>
</defs>
</svg>
